<mxfile host="65bd71144e">
    <diagram id="d1ab7348-05c3-a1e3-ca4d-12c340fd6b49" name="Page-1">
        <mxGraphModel dx="1500" dy="953" grid="1" gridSize="10" guides="1" tooltips="1" connect="1" arrows="1" fold="1" page="1" pageScale="1" pageWidth="1169" pageHeight="900" background="none" math="0" shadow="0">
            <root>
                <mxCell id="0"/>
                <mxCell id="1" parent="0"/>
                <mxCell id="3ZfG_3-aHI2Txs_DAWEP-415" value="&lt;b&gt;Google &lt;/b&gt;Cloud Platform" style="fillColor=#F6F6F6;strokeColor=none;shadow=0;gradientColor=none;fontSize=14;align=left;spacing=10;fontColor=#717171;9E9E9E;verticalAlign=top;spacingTop=-4;fontStyle=0;spacingLeft=40;html=1;container=0;" parent="1" vertex="1">
                    <mxGeometry x="210" y="100" width="894.5" height="680" as="geometry"/>
                </mxCell>
                <mxCell id="3ZfG_3-aHI2Txs_DAWEP-419" value="europe-west3 (Frankfurt)" style="rounded=1;absoluteArcSize=1;arcSize=2;html=1;strokeColor=none;gradientColor=none;shadow=0;dashed=0;strokeColor=none;fontSize=12;fontColor=#9E9E9E;align=left;verticalAlign=top;spacing=10;spacingTop=-4;fillColor=#E1F5FE;" parent="1" vertex="1">
                    <mxGeometry x="360" y="190" width="474.5" height="450" as="geometry"/>
                </mxCell>
                <mxCell id="3ZfG_3-aHI2Txs_DAWEP-421" value="Development&lt;br&gt;Team&lt;br&gt;" style="rounded=1;absoluteArcSize=1;arcSize=2;html=1;strokeColor=none;gradientColor=none;shadow=0;dashed=0;strokeColor=none;fontSize=12;fontColor=#9E9E9E;align=left;verticalAlign=top;spacing=10;spacingTop=-4;fillColor=#F3E5F5;" parent="1" vertex="1">
                    <mxGeometry x="30" y="492" width="90" height="120" as="geometry"/>
                </mxCell>
                <mxCell id="3ZfG_3-aHI2Txs_DAWEP-422" value="" style="strokeColor=#dddddd;fillColor=#ffffff;shadow=1;strokeWidth=1;rounded=1;absoluteArcSize=1;arcSize=2;labelPosition=center;verticalLabelPosition=middle;align=center;verticalAlign=bottom;spacingLeft=0;fontColor=#999999;fontSize=12;whiteSpace=wrap;spacingBottom=2;html=1;" parent="1" vertex="1">
                    <mxGeometry x="40" y="534" width="70" height="70" as="geometry"/>
                </mxCell>
                <mxCell id="3ZfG_3-aHI2Txs_DAWEP-423" value="" style="dashed=0;connectable=0;html=1;fillColor=#757575;strokeColor=none;shape=mxgraph.gcp2.laptop;part=1;" parent="3ZfG_3-aHI2Txs_DAWEP-422" vertex="1">
                    <mxGeometry x="0.5" width="50" height="33" relative="1" as="geometry">
                        <mxPoint x="-25" y="18.5" as="offset"/>
                    </mxGeometry>
                </mxCell>
                <mxCell id="3ZfG_3-aHI2Txs_DAWEP-416" value="" style="shape=mxgraph.gcp2.google_cloud_platform;fillColor=#F6F6F6;strokeColor=none;shadow=0;gradientColor=none;" parent="1" vertex="1">
                    <mxGeometry x="234.5" y="114" width="23" height="20" as="geometry">
                        <mxPoint x="20" y="10" as="offset"/>
                    </mxGeometry>
                </mxCell>
                <mxCell id="3ZfG_3-aHI2Txs_DAWEP-417" value="&lt;font style=&quot;color: rgb(0, 0, 0);&quot;&gt;Non-technical PSI users&lt;/font&gt;" style="rounded=1;absoluteArcSize=1;arcSize=2;html=1;strokeColor=none;gradientColor=none;shadow=0;dashed=0;strokeColor=none;fontSize=12;fontColor=#9E9E9E;align=left;verticalAlign=top;spacing=10;spacingTop=-4;fillColor=#F1F8E9;" parent="1" vertex="1">
                    <mxGeometry x="1164.5" y="318" width="150" height="190" as="geometry"/>
                </mxCell>
                <mxCell id="3ZfG_3-aHI2Txs_DAWEP-446" style="edgeStyle=orthogonalEdgeStyle;rounded=0;html=1;labelBackgroundColor=none;startFill=1;startSize=4;endArrow=blockThin;endFill=1;endSize=4;jettySize=auto;orthogonalLoop=1;strokeColor=#9E9E9E;strokeWidth=2;fontSize=12;fontColor=#000000;align=center;dashed=0;entryX=1;entryY=0.5;entryDx=0;entryDy=0;" parent="1" source="3ZfG_3-aHI2Txs_DAWEP-447" target="2" edge="1">
                    <mxGeometry relative="1" as="geometry">
                        <Array as="points">
                            <mxPoint x="1114.5" y="380"/>
                            <mxPoint x="1114.5" y="420"/>
                        </Array>
                        <mxPoint x="1027" y="410.0000000000002" as="targetPoint"/>
                    </mxGeometry>
                </mxCell>
                <mxCell id="3ZfG_3-aHI2Txs_DAWEP-447" value="" style="strokeColor=#dddddd;fillColor=#ffffff;shadow=1;strokeWidth=1;rounded=1;absoluteArcSize=1;arcSize=2;labelPosition=center;verticalLabelPosition=middle;align=center;verticalAlign=bottom;spacingLeft=0;fontColor=#999999;fontSize=12;whiteSpace=wrap;spacingBottom=2;html=1;" parent="1" vertex="1">
                    <mxGeometry x="1174.5" y="348" width="70" height="69" as="geometry"/>
                </mxCell>
                <mxCell id="3ZfG_3-aHI2Txs_DAWEP-448" value="" style="dashed=0;connectable=0;html=1;fillColor=#757575;strokeColor=none;shape=mxgraph.gcp2.laptop;part=1;" parent="3ZfG_3-aHI2Txs_DAWEP-447" vertex="1">
                    <mxGeometry x="0.5" width="50" height="33" relative="1" as="geometry">
                        <mxPoint x="-25" y="18.5" as="offset"/>
                    </mxGeometry>
                </mxCell>
                <mxCell id="3ZfG_3-aHI2Txs_DAWEP-449" style="edgeStyle=orthogonalEdgeStyle;rounded=0;html=1;labelBackgroundColor=none;startFill=1;startSize=4;endArrow=blockThin;endFill=1;endSize=4;jettySize=auto;orthogonalLoop=1;strokeColor=#9E9E9E;strokeWidth=2;fontSize=12;fontColor=#000000;align=center;dashed=0;entryX=1;entryY=0.5;entryDx=0;entryDy=0;exitX=0;exitY=0.5;exitDx=0;exitDy=0;" parent="1" source="3ZfG_3-aHI2Txs_DAWEP-450" target="2" edge="1">
                    <mxGeometry relative="1" as="geometry">
                        <Array as="points">
                            <mxPoint x="1114.5" y="465"/>
                            <mxPoint x="1114.5" y="420"/>
                        </Array>
                        <mxPoint x="1027" y="410.0000000000002" as="targetPoint"/>
                    </mxGeometry>
                </mxCell>
                <mxCell id="3ZfG_3-aHI2Txs_DAWEP-450" value="" style="strokeColor=#dddddd;fillColor=#ffffff;shadow=1;strokeWidth=1;rounded=1;absoluteArcSize=1;arcSize=2;labelPosition=center;verticalLabelPosition=middle;align=center;verticalAlign=bottom;spacingLeft=0;fontColor=#999999;fontSize=12;whiteSpace=wrap;spacingBottom=2;html=1;" parent="1" vertex="1">
                    <mxGeometry x="1174.5" y="433" width="70" height="65" as="geometry"/>
                </mxCell>
                <mxCell id="3ZfG_3-aHI2Txs_DAWEP-451" value="" style="dashed=0;connectable=0;html=1;fillColor=#757575;strokeColor=none;shape=mxgraph.gcp2.mobile_devices;part=1;" parent="3ZfG_3-aHI2Txs_DAWEP-450" vertex="1">
                    <mxGeometry x="0.5" width="50" height="36.5" relative="1" as="geometry">
                        <mxPoint x="-25" y="16.75" as="offset"/>
                    </mxGeometry>
                </mxCell>
                <mxCell id="2" value="" style="strokeColor=#dddddd;shadow=1;strokeWidth=1;rounded=1;absoluteArcSize=1;arcSize=2;fillStyle=auto;fillColor=default;" parent="1" vertex="1">
                    <mxGeometry x="885.75" y="390" width="187.5" height="60" as="geometry"/>
                </mxCell>
                <mxCell id="3" value="&lt;font color=&quot;#000000&quot;&gt;External Application &lt;br&gt;Load Balancer&lt;/font&gt;" style="editableCssRules=.*;html=1;fontColor=#999999;shape=image;verticalLabelPosition=middle;verticalAlign=middle;labelPosition=right;align=left;spacingLeft=20;part=1;points=[];imageAspect=0;image=data:image/svg+xml,PHN2ZyB4bWxucz0iaHR0cDovL3d3dy53My5vcmcvMjAwMC9zdmciIHhtbG5zOnY9Imh0dHBzOi8vdmVjdGEuaW8vbmFubyIgd2lkdGg9IjIwIiBoZWlnaHQ9IjIwIiB2aWV3Qm94PSIwIDAgMjAgMjAiPiYjeGE7CTxzdHlsZSB0eXBlPSJ0ZXh0L2NzcyI+JiN4YTsJLnN0MHtmaWxsOiM0Mjg1ZjQ7fSYjeGE7CS5zdDF7ZmlsbDojNjY5ZGY2O30mI3hhOwkuc3Qye2ZpbGw6I2FlY2JmYTt9JiN4YTsJPC9zdHlsZT4mI3hhOwk8cGF0aCBjbGFzcz0ic3QxIiBkPSJNMTYgMTBoMnY0aC0yem0tNyAwaDJ2NEg5em0tNyAwaDJ2NEgyeiIvPiYjeGE7CTxwYXRoIGNsYXNzPSJzdDAiIGQ9Ik05IDVoMnY0SDl6Ii8+JiN4YTsJPHBhdGggY2xhc3M9InN0MSIgZD0iTTIgOWgxNnYySDJ6Ii8+JiN4YTsJPHBhdGggY2xhc3M9InN0MiIgZD0iTTQgMGgxMnY1SDR6Ii8+JiN4YTsJPHBhdGggY2xhc3M9InN0MSIgZD0iTTEwIDBoNnY1aC02eiIvPiYjeGE7CTxwYXRoIGNsYXNzPSJzdDIiIGQ9Ik0xNCAxNGg2djZoLTZ6TTAgMTRoNnY2SDB6Ii8+JiN4YTsJPHBhdGggY2xhc3M9InN0MSIgZD0iTTMgMTRoM3Y2SDN6Ii8+JiN4YTsJPHBhdGggY2xhc3M9InN0MiIgZD0iTTcgMTRoNnY2SDd6Ii8+JiN4YTsJPHBhdGggY2xhc3M9InN0MSIgZD0iTTEwIDE0aDN2NmgtM3ptNyAwaDN2NmgtM3oiLz4mI3hhOzwvc3ZnPg==;" parent="2" vertex="1">
                    <mxGeometry width="30" height="30" relative="1" as="geometry">
                        <mxPoint x="15" y="15" as="offset"/>
                    </mxGeometry>
                </mxCell>
                <mxCell id="6" value="" style="strokeColor=#dddddd;shadow=1;strokeWidth=1;rounded=1;absoluteArcSize=1;arcSize=2;fillStyle=auto;fillColor=default;" parent="1" vertex="1">
                    <mxGeometry x="904.5" y="247" width="150" height="60" as="geometry"/>
                </mxCell>
                <mxCell id="7" value="&lt;font style=&quot;color: rgb(0, 0, 0);&quot;&gt;Identity-Aware&lt;br&gt;Proxy&lt;/font&gt;" style="editableCssRules=.*;html=1;fontColor=#999999;shape=image;verticalLabelPosition=middle;verticalAlign=middle;labelPosition=right;align=left;spacingLeft=20;part=1;points=[];imageAspect=0;image=data:image/svg+xml,PHN2ZyB4bWxucz0iaHR0cDovL3d3dy53My5vcmcvMjAwMC9zdmciIHhtbG5zOnY9Imh0dHBzOi8vdmVjdGEuaW8vbmFubyIgd2lkdGg9IjE5Ljk5IiBoZWlnaHQ9IjEwLjQxIiB2aWV3Qm94PSIwIDAgMTkuOTkgMTAuNDEiPiYjeGE7CTxwYXRoIGQ9Ik05Ljg0LjIxYTUuMSA1LjEgMCAxIDAgNS4xIDUuMWgwYTUuMSA1LjEgMCAwIDAtNS4xLTUuMXptMCA5LjA4YTQgNCAwIDEgMSA0LTRoMGE0IDQgMCAwIDEtNCA0LjAxeiIgZmlsbD0iIzQyODVmNCIvPiYjeGE7CTxwYXRoIGQ9Ik0xMS43NiA1LjkyYTIuMDkgMi4wOSAwIDAgMC0uMjgtLjIyIDMuMTEgMy4xMSAwIDAgMC0yLjYxLS4yOCAyLjMxIDIuMzEgMCAwIDAtLjg5LjQ3Ljg2Ljg2IDAgMCAwLS4zNy42NXYxaDQuNDd2LS44MmExIDEgMCAwIDAtLjMyLS44ek05Ljg0IDQuNzRhMS4xNiAxLjE2IDAgMSAwLTEuMTctMS4xNWgwYTEuMTcgMS4xNyAwIDAgMCAxLjE3IDEuMTV6IiBmaWxsPSIjNjY5ZGY2Ii8+JiN4YTsJPHBhdGggZD0iTTE2LjI5IDUuNmgyLjIxbC0uNzcuNzhoMS4wNGwxLjIyLTEuMjMtMS4yMi0xLjIyaC0xLjA0bC43Ny43N2gtMi4yMXoiIGZpbGw9IiNhZWNiZmEiLz4mI3hhOwk8cGF0aCBkPSJNMTcuODggMS43M1YwaC0xLjczbC0uNzMuNzRoMS4wOWwtLjk4Ljk3LjY0LjY0Ljk4LS45N3YxLjA5em0tMi40NiA3Ljk1bC43My43M2gxLjczVjguNjhsLS43My0uNzN2MS4wOWwtLjk4LS45Ny0uNjQuNjMuOTguOTh6TTEuMzQgMy44NkExLjM1IDEuMzUgMCAxIDAgMi43IDUuMjFhMS4zNSAxLjM1IDAgMCAwLTEuMzYtMS4zNXptMCAyLjFhLjc2Ljc2IDAgMSAxIC43Ni0uNzVoMGEuNzYuNzYgMCAwIDEtLjc2Ljc1eiIgZmlsbD0iIzY2OWRmNiIvPiYjeGE7PC9zdmc+;" parent="6" vertex="1">
                    <mxGeometry width="30" height="15" relative="1" as="geometry">
                        <mxPoint x="15" y="22" as="offset"/>
                    </mxGeometry>
                </mxCell>
                <mxCell id="8" value="" style="strokeColor=#dddddd;shadow=1;strokeWidth=1;rounded=1;absoluteArcSize=1;arcSize=2;" parent="1" vertex="1">
                    <mxGeometry x="607.0799999999999" y="120" width="110" height="60" as="geometry"/>
                </mxCell>
                <mxCell id="9" value="Cloud&#xa;IAM" style="editableCssRules=.*;html=1;fontColor=#999999;shape=image;verticalLabelPosition=middle;verticalAlign=middle;labelPosition=right;align=left;spacingLeft=20;part=1;points=[];imageAspect=0;image=data:image/svg+xml,PHN2ZyB4bWxucz0iaHR0cDovL3d3dy53My5vcmcvMjAwMC9zdmciIHhtbG5zOnY9Imh0dHBzOi8vdmVjdGEuaW8vbmFubyIgd2lkdGg9IjE2LjQyMDAwMDA3NjI5Mzk0NSIgaGVpZ2h0PSIyMC4wNDk5OTkyMzcwNjA1NDciIGZpbGwtcnVsZT0iZXZlbm9kZCIgdmlld0JveD0iMCAwIDE2LjQyMDAwMDA3NjI5Mzk0NSAyMC4wNDk5OTkyMzcwNjA1NDciPiYjeGE7CTxzdHlsZSB0eXBlPSJ0ZXh0L2NzcyI+JiN4YTsJLnN0MHtmaWxsOiM0Mjg1ZjQ7fSYjeGE7CS5zdDF7ZmlsbDojNjY5ZGY2O30mI3hhOwk8L3N0eWxlPiYjeGE7CTxwYXRoIGNsYXNzPSJzdDEiIGQ9Ik04LjIxIDBMMCAzLjQydjUuNjNjMCA1LjA2IDMuNSA5LjggOC4yMSAxMSA0LjcxLTEuMTUgOC4yMS01Ljg5IDguMjEtMTAuOTVWMy40MnptMCAzLjc5YTIuNjMgMi42MyAwIDAgMSAxLjAwNSA1LjA2QTIuNjMgMi42MyAwIDAgMSA2LjM1IDQuNTZhMi42MyAyLjYzIDAgMCAxIDEuODYtLjc3em00LjExIDExLjE1YTguNjQgOC42NCAwIDAgMS00LjExIDIuOTMgOC42NCA4LjY0IDAgMCAxLTQuMTEtMi45M3YtMi4yNWMwLTEuNjcgMi43NC0yLjUyIDQuMTEtMi41MnM0LjExLjg1IDQuMTEgMi41MnoiLz4mI3hhOwk8cGF0aCBjbGFzcz0ic3QwIiBkPSJNOC4yMSAwdjMuNzlhMi42MyAyLjYzIDAgMSAxIDAgNS4yNnYxLjEyYzEuMzcgMCA0LjExLjg1IDQuMTEgMi41MnYyLjI1YTguNjQgOC42NCAwIDAgMS00LjExIDIuOTNWMjBjNC43MS0xLjE1IDguMjEtNS44OSA4LjIxLTEwLjk1VjMuNDJ6Ii8+JiN4YTs8L3N2Zz4=;" parent="8" vertex="1">
                    <mxGeometry width="24" height="30" relative="1" as="geometry">
                        <mxPoint x="18" y="15" as="offset"/>
                    </mxGeometry>
                </mxCell>
                <mxCell id="10" value="Microsoft Entra ID" style="image;aspect=fixed;html=1;points=[];align=left;fontSize=12;image=img/lib/azure2/other/Entra_Identity.svg;labelPosition=right;verticalLabelPosition=middle;verticalAlign=middle;" parent="1" vertex="1">
                    <mxGeometry x="628.0799999999999" width="68" height="60.440000000000005" as="geometry"/>
                </mxCell>
                <mxCell id="13" style="edgeStyle=orthogonalEdgeStyle;rounded=0;html=1;labelBackgroundColor=none;startFill=1;endArrow=blockThin;endFill=1;jettySize=auto;orthogonalLoop=1;strokeColor=#9E9E9E;strokeWidth=2;fontSize=12;fontColor=#000000;align=center;dashed=0;exitX=0.5;exitY=0;exitDx=0;exitDy=0;entryX=0.498;entryY=1.055;entryDx=0;entryDy=0;entryPerimeter=0;" parent="1" source="8" target="10" edge="1">
                    <mxGeometry relative="1" as="geometry">
                        <Array as="points">
                            <mxPoint x="662" y="90"/>
                            <mxPoint x="662" y="90"/>
                        </Array>
                        <mxPoint x="969.2" y="110.44" as="sourcePoint"/>
                        <mxPoint x="969.2" y="60.44" as="targetPoint"/>
                    </mxGeometry>
                </mxCell>
                <mxCell id="16" style="edgeStyle=orthogonalEdgeStyle;rounded=0;html=1;labelBackgroundColor=none;startFill=1;endArrow=blockThin;endFill=1;jettySize=auto;orthogonalLoop=1;strokeColor=#9E9E9E;strokeWidth=2;fontSize=12;fontColor=#000000;align=center;dashed=0;entryX=1;entryY=0.5;entryDx=0;entryDy=0;exitX=0.5;exitY=0;exitDx=0;exitDy=0;" parent="1" source="6" target="8" edge="1">
                    <mxGeometry relative="1" as="geometry">
                        <Array as="points"/>
                        <mxPoint x="990.22" y="303" as="sourcePoint"/>
                        <mxPoint x="990.22" y="193" as="targetPoint"/>
                    </mxGeometry>
                </mxCell>
                <mxCell id="17" style="edgeStyle=orthogonalEdgeStyle;rounded=0;html=1;labelBackgroundColor=none;startFill=1;endArrow=blockThin;endFill=1;jettySize=auto;orthogonalLoop=1;strokeColor=#9E9E9E;strokeWidth=2;fontSize=12;fontColor=#000000;align=center;dashed=0;exitX=0.5;exitY=0;exitDx=0;exitDy=0;" parent="1" source="2" target="6" edge="1">
                    <mxGeometry relative="1" as="geometry">
                        <Array as="points">
                            <mxPoint x="979.5" y="340"/>
                            <mxPoint x="979.5" y="340"/>
                        </Array>
                        <mxPoint x="994.5" y="390" as="sourcePoint"/>
                        <mxPoint x="994.5" y="324" as="targetPoint"/>
                    </mxGeometry>
                </mxCell>
                <mxCell id="25" value="vpc-ew3" style="editableCssRules=.*;html=1;shape=image;verticalLabelPosition=bottom;labelBackgroundColor=#ffffff;verticalAlign=top;aspect=fixed;imageAspect=0;image=data:image/svg+xml,PHN2ZyB4bWxucz0iaHR0cDovL3d3dy53My5vcmcvMjAwMC9zdmciIHhtbG5zOnY9Imh0dHBzOi8vdmVjdGEuaW8vbmFubyIgd2lkdGg9IjIwIiBoZWlnaHQ9IjIwIiB2aWV3Qm94PSIwIDAgMjAgMjAiPiYjeGE7CTxzdHlsZSB0eXBlPSJ0ZXh0L2NzcyI+JiN4YTsJLnN0MHtmaWxsOiM0Mjg1ZjQ7fSYjeGE7CS5zdDF7ZmlsbDojNjY5ZGY2O30mI3hhOwkuc3Qye2ZpbGw6I2FlY2JmYTt9JiN4YTsJPC9zdHlsZT4mI3hhOwk8cGF0aCBjbGFzcz0ic3QyIiBkPSJNMTQgMGg2djZoLTZ6Ii8+JiN4YTsJPHBhdGggY2xhc3M9InN0MSIgZD0iTTE3IDBoM3Y2aC0zeiIvPiYjeGE7CTxwYXRoIGNsYXNzPSJzdDIiIGQ9Ik0xNCAxNGg2djZoLTZ6Ii8+JiN4YTsJPHBhdGggY2xhc3M9InN0MSIgZD0iTTE3IDE0aDN2NmgtM3oiLz4mI3hhOwk8cGF0aCBjbGFzcz0ic3QyIiBkPSJNMCAwaDZ2NkgweiIvPiYjeGE7CTxwYXRoIGNsYXNzPSJzdDEiIGQ9Ik0zIDBoM3Y2SDN6Ii8+JiN4YTsJPHBhdGggY2xhc3M9InN0MiIgZD0iTTAgMTRoNnY2SDB6Ii8+JiN4YTsJPGcgY2xhc3M9InN0MSI+JiN4YTsJCTxwYXRoIGQ9Ik0zIDE0aDN2Nkgzek02IDJoOHYySDZ6Ii8+JiN4YTsJCTxwYXRoIGQ9Ik02IDE2aDh2Mkg2ek0xNiA2aDJ2OGgtMnpNMiA2aDJ2OEgyeiIvPiYjeGE7CTwvZz4mI3hhOwk8cGF0aCBjbGFzcz0ic3QwIiBkPSJNMiA2aDJ2Mkgyem0xNCAwaDJ2MmgtMnpNNiAyaDJ2Mkg2em0wIDE0aDJ2Mkg2eiIvPiYjeGE7PC9zdmc+;" parent="1" vertex="1">
                    <mxGeometry x="394.5" y="225" width="40" height="40" as="geometry"/>
                </mxCell>
                <mxCell id="28" value="" style="shape=mxgraph.gcp2.doubleRect;strokeColor=#dddddd;shadow=1;strokeWidth=1;rounded=1;absoluteArcSize=1;arcSize=2;" parent="1" vertex="1">
                    <mxGeometry x="455.33" y="239" width="170" height="68" as="geometry"/>
                </mxCell>
                <mxCell id="29" value="&lt;font color=&quot;#000000&quot;&gt;vm-1&lt;/font&gt;&lt;br&gt;Compute Engine" style="editableCssRules=.*;html=1;fontColor=#999999;shape=image;verticalLabelPosition=middle;verticalAlign=middle;labelPosition=right;align=left;spacingLeft=20;part=1;points=[];imageAspect=0;image=data:image/svg+xml,PHN2ZyB4bWxucz0iaHR0cDovL3d3dy53My5vcmcvMjAwMC9zdmciIHhtbG5zOnY9Imh0dHBzOi8vdmVjdGEuaW8vbmFubyIgd2lkdGg9IjIwIiBoZWlnaHQ9IjIwIiB2aWV3Qm94PSIwIDAgMjAgMjAiPiYjeGE7CTxzdHlsZSB0eXBlPSJ0ZXh0L2NzcyI+JiN4YTsJLnN0MHtmaWxsOiM0Mjg1ZjQ7fSYjeGE7CS5zdDF7ZmlsbDojNjY5ZGY2O30mI3hhOwkuc3Qye2ZpbGw6I2FlY2JmYTt9JiN4YTsJPC9zdHlsZT4mI3hhOwk8cGF0aCBjbGFzcz0ic3QyIiBkPSJNNyA3aDZ2Nkg3eiIvPiYjeGE7CTxwYXRoIGNsYXNzPSJzdDEiIGQ9Ik05IDBoMnY0SDl6TTUgMGgydjRINXptOCAwaDJ2NGgtMnoiLz4mI3hhOwk8cGF0aCBjbGFzcz0ic3QwIiBkPSJNOSAxNmgydjRIOXptLTQgMGgydjRINXptOCAwaDJ2NGgtMnptMy01VjloNHYyem0wIDR2LTJoNHYyem0wLThWNWg0djJ6Ii8+JiN4YTsJPHBhdGggY2xhc3M9InN0MSIgZD0iTTAgMTFWOWg0djJ6bTAgNHYtMmg0djJ6bTAtOFY1aDR2MnoiLz4mI3hhOwk8cGF0aCBjbGFzcz0ic3QyIiBkPSJNMyAzdjE0aDE0VjN6bTEyIDEySDVWNWgxMHoiLz4mI3hhOwk8cGF0aCBjbGFzcz0ic3QxIiBkPSJNMTAgMTBsLTMgM2g2eiIvPiYjeGE7CTxwYXRoIGNsYXNzPSJzdDAiIGQ9Ik0xMyA3bC0zIDMgMyAzeiIvPiYjeGE7PC9zdmc+;" parent="28" vertex="1">
                    <mxGeometry width="30" height="30" relative="1" as="geometry">
                        <mxPoint x="15" y="15" as="offset"/>
                    </mxGeometry>
                </mxCell>
                <mxCell id="31" value="" style="sketch=0;points=[[0,0,0],[0.25,0,0],[0.5,0,0],[0.75,0,0],[1,0,0],[1,0.25,0],[1,0.5,0],[1,0.75,0],[1,1,0],[0.75,1,0],[0.5,1,0],[0.25,1,0],[0,1,0],[0,0.75,0],[0,0.5,0],[0,0.25,0]];rounded=1;absoluteArcSize=1;arcSize=2;html=1;shadow=0;dashed=0;fontSize=12;align=left;verticalAlign=top;spacing=10;spacingTop=-4;whiteSpace=wrap;" parent="1" vertex="1">
                    <mxGeometry x="394.5" y="340" width="420" height="280" as="geometry"/>
                </mxCell>
                <mxCell id="30" value="Google Kubernetes&#xa;Engine" style="sketch=0;html=1;verticalAlign=top;labelPosition=center;verticalLabelPosition=bottom;align=center;spacingTop=-6;fontSize=11;fontStyle=1;fontColor=#999999;shape=image;aspect=fixed;imageAspect=0;image=data:image/svg+xml,PHN2ZyB4bWxucz0iaHR0cDovL3d3dy53My5vcmcvMjAwMC9zdmciIHhtbG5zOnY9Imh0dHBzOi8vdmVjdGEuaW8vbmFubyIgd2lkdGg9IjMyOS45MjU5OTcyMzE3OTM4IiBoZWlnaHQ9IjM3OC4yODQ5OTAzMTEyNzg4IiB2aWV3Qm94PSIwIDAgODcuMjkyOTk5MjY3NTc4MTIgMTAwLjA4Nzk5NzQzNjUyMzQ0Ij4mI3hhOzxzdHlsZSB0eXBlPSJ0ZXh0L2NzcyI+JiN4YTsJLnN0MHtmaWxsOiNhZWNiZmE7fSYjeGE7CS5zdDF7ZmlsbDojNjY5ZGY2O30mI3hhOwkuc3Qye2ZpbGw6IzQyODVmNDt9JiN4YTs8L3N0eWxlPiYjeGE7CTxwYXRoIGNsYXNzPSJzdDAiIGQ9Ik00My43NTEgMEwwIDI1LjQ2NXYyLjU4OCA0Ni45Mmw0My43NTIgMjUuMTE1IDQzLjU0MS0yNS4xMjFWMjUuNDczem0yLjQzOCAxMS44NTNsMzIuMTAzIDE4Ljc4MlY2OS43N0w0My43MzkgODkuNzA1IDkgNjkuNzYyVjMwLjY0MWwzMi4xOS0xOC43MzZ2MTQuMTU0TDI0LjUwMyAzNi4xNTNsMTkuMTcyIDExLjUwMiAxOC44ODYtMTEuNTU0LTE2LjM3Mi0xMC4wMjR6Ii8+JiN4YTsJPHBhdGggY2xhc3M9InN0MSIgZD0iTTIyLjAyNSA0MC40OTZsLjE2NiAxOS4xNDMtMTMuMjQ3IDcuMzN2Mi43NDJsMi42MzcgMS41MTQgMTIuNjQ4LTYuOTk5IDE2Ljk2MSAxMC42MDJWNTEuOTkzeiIvPiYjeGE7CTxwYXRoIGNsYXNzPSJzdDIiIGQ9Ik02NS4zNDQgNDAuMjZMNDYuMTg5IDUxLjk3OXYyMi44NDdsMTYuODk5LTEwLjU3NiAxMi41MzkgNi45NzQgMi42MDktMS41MDV2LTIuNzY1bC0xMi43ODQtNy4xMTJ6Ii8+JiN4YTs8L3N2Zz4=;" parent="1" vertex="1">
                    <mxGeometry x="426.5" y="361.5" width="37" height="42" as="geometry"/>
                </mxCell>
                <mxCell id="33" value="&lt;font style=&quot;color: rgb(0, 0, 0);&quot;&gt;scada-core-main&lt;/font&gt;&lt;div&gt;&lt;font style=&quot;color: rgb(0, 0, 0);&quot;&gt;&lt;br&gt;&lt;/font&gt;&lt;/div&gt;" style="sketch=0;points=[[0,0,0],[0.25,0,0],[0.5,0,0],[0.75,0,0],[1,0,0],[1,0.25,0],[1,0.5,0],[1,0.75,0],[1,1,0],[0.75,1,0],[0.5,1,0],[0.25,1,0],[0,1,0],[0,0.75,0],[0,0.5,0],[0,0.25,0]];rounded=1;absoluteArcSize=1;arcSize=2;html=1;strokeColor=none;gradientColor=none;shadow=0;dashed=0;fontSize=12;fontColor=#9E9E9E;align=left;verticalAlign=top;spacing=10;spacingTop=-4;whiteSpace=wrap;fillColor=#FFF8E1;" parent="1" vertex="1">
                    <mxGeometry x="504.92" y="462" width="260" height="42" as="geometry"/>
                </mxCell>
                <mxCell id="34" value="&lt;font style=&quot;color: rgb(0, 0, 0);&quot;&gt;scada-core-fb-123&lt;/font&gt;" style="sketch=0;points=[[0,0,0],[0.25,0,0],[0.5,0,0],[0.75,0,0],[1,0,0],[1,0.25,0],[1,0.5,0],[1,0.75,0],[1,1,0],[0.75,1,0],[0.5,1,0],[0.25,1,0],[0,1,0],[0,0.75,0],[0,0.5,0],[0,0.25,0]];rounded=1;absoluteArcSize=1;arcSize=2;html=1;strokeColor=none;gradientColor=none;shadow=0;dashed=0;fontSize=12;fontColor=#9E9E9E;align=left;verticalAlign=top;spacing=10;spacingTop=-4;whiteSpace=wrap;fillColor=#FFF8E1;" parent="1" vertex="1">
                    <mxGeometry x="504.92" y="512" width="260" height="42" as="geometry"/>
                </mxCell>
                <mxCell id="35" value="&lt;font style=&quot;color: rgb(0, 0, 0);&quot;&gt;saso-test&lt;/font&gt;" style="sketch=0;points=[[0,0,0],[0.25,0,0],[0.5,0,0],[0.75,0,0],[1,0,0],[1,0.25,0],[1,0.5,0],[1,0.75,0],[1,1,0],[0.75,1,0],[0.5,1,0],[0.25,1,0],[0,1,0],[0,0.75,0],[0,0.5,0],[0,0.25,0]];rounded=1;absoluteArcSize=1;arcSize=2;html=1;strokeColor=none;gradientColor=none;shadow=0;dashed=0;fontSize=12;fontColor=#9E9E9E;align=left;verticalAlign=top;spacing=10;spacingTop=-4;whiteSpace=wrap;fillColor=#FFF8E1;" parent="1" vertex="1">
                    <mxGeometry x="504.5" y="562" width="260" height="42" as="geometry"/>
                </mxCell>
                <mxCell id="36" value="&lt;font style=&quot;color: rgb(0, 0, 0);&quot;&gt;Nginx ingress controller&lt;/font&gt;" style="sketch=0;points=[[0,0,0],[0.25,0,0],[0.5,0,0],[0.75,0,0],[1,0,0],[1,0.25,0],[1,0.5,0],[1,0.75,0],[1,1,0],[0.75,1,0],[0.5,1,0],[0.25,1,0],[0,1,0],[0,0.75,0],[0,0.5,0],[0,0.25,0]];rounded=1;absoluteArcSize=1;arcSize=2;html=1;strokeColor=#82b366;shadow=0;dashed=0;fontSize=12;align=left;verticalAlign=top;spacing=10;spacingTop=-4;whiteSpace=wrap;fillColor=#d5e8d4;labelBackgroundColor=none;" parent="1" vertex="1">
                    <mxGeometry x="504.5" y="402" width="260" height="42" as="geometry"/>
                </mxCell>
                <mxCell id="3ZfG_3-aHI2Txs_DAWEP-443" style="edgeStyle=orthogonalEdgeStyle;rounded=0;html=1;labelBackgroundColor=none;startFill=1;startSize=4;endArrow=blockThin;endFill=1;endSize=4;jettySize=auto;orthogonalLoop=1;strokeColor=#9E9E9E;strokeWidth=2;fontSize=12;fontColor=#000000;align=center;dashed=0;exitX=0;exitY=0.5;exitDx=0;exitDy=0;" parent="1" source="2" target="36" edge="1">
                    <mxGeometry relative="1" as="geometry">
                        <Array as="points">
                            <mxPoint x="886" y="423"/>
                        </Array>
                        <mxPoint x="889.5" y="410.0000000000002" as="sourcePoint"/>
                        <mxPoint x="847.25" y="514" as="targetPoint"/>
                    </mxGeometry>
                </mxCell>
                <mxCell id="37" value="" style="aspect=fixed;sketch=0;html=1;dashed=0;whitespace=wrap;verticalLabelPosition=bottom;verticalAlign=top;fillColor=#2875E2;strokeColor=#ffffff;points=[[0.005,0.63,0],[0.1,0.2,0],[0.9,0.2,0],[0.5,0,0],[0.995,0.63,0],[0.72,0.99,0],[0.5,1,0],[0.28,0.99,0]];shape=mxgraph.kubernetes.icon2;prIcon=pod" parent="1" vertex="1">
                    <mxGeometry x="667.69" y="523" width="20.83" height="20" as="geometry"/>
                </mxCell>
                <mxCell id="38" value="" style="aspect=fixed;sketch=0;html=1;dashed=0;whitespace=wrap;verticalLabelPosition=bottom;verticalAlign=top;fillColor=#2875E2;strokeColor=#ffffff;points=[[0.005,0.63,0],[0.1,0.2,0],[0.9,0.2,0],[0.5,0,0],[0.995,0.63,0],[0.72,0.99,0],[0.5,1,0],[0.28,0.99,0]];shape=mxgraph.kubernetes.icon2;prIcon=pod" parent="1" vertex="1">
                    <mxGeometry x="628.08" y="534" width="20.83" height="20" as="geometry"/>
                </mxCell>
                <mxCell id="43" value="" style="aspect=fixed;sketch=0;html=1;dashed=0;whitespace=wrap;verticalLabelPosition=bottom;verticalAlign=top;fillColor=#2875E2;strokeColor=#ffffff;points=[[0.005,0.63,0],[0.1,0.2,0],[0.9,0.2,0],[0.5,0,0],[0.995,0.63,0],[0.72,0.99,0],[0.5,1,0],[0.28,0.99,0]];shape=mxgraph.kubernetes.icon2;prIcon=pod" parent="1" vertex="1">
                    <mxGeometry x="646.84" y="512" width="20.83" height="20" as="geometry"/>
                </mxCell>
                <mxCell id="44" value="" style="aspect=fixed;sketch=0;html=1;dashed=0;whitespace=wrap;verticalLabelPosition=bottom;verticalAlign=top;fillColor=#2875E2;strokeColor=#ffffff;points=[[0.005,0.63,0],[0.1,0.2,0],[0.9,0.2,0],[0.5,0,0],[0.995,0.63,0],[0.72,0.99,0],[0.5,1,0],[0.28,0.99,0]];shape=mxgraph.kubernetes.icon2;prIcon=pod;direction=south;" parent="1" vertex="1">
                    <mxGeometry x="604.915" y="577.585" width="20" height="20.83" as="geometry"/>
                </mxCell>
                <mxCell id="46" value="" style="aspect=fixed;sketch=0;html=1;dashed=0;whitespace=wrap;verticalLabelPosition=bottom;verticalAlign=top;fillColor=#2875E2;strokeColor=#ffffff;points=[[0.005,0.63,0],[0.1,0.2,0],[0.9,0.2,0],[0.5,0,0],[0.995,0.63,0],[0.72,0.99,0],[0.5,1,0],[0.28,0.99,0]];shape=mxgraph.kubernetes.icon2;prIcon=pod" parent="1" vertex="1">
                    <mxGeometry x="634.08" y="573" width="20.83" height="20" as="geometry"/>
                </mxCell>
                <mxCell id="47" value="" style="aspect=fixed;sketch=0;html=1;dashed=0;whitespace=wrap;verticalLabelPosition=bottom;verticalAlign=top;fillColor=#2875E2;strokeColor=#ffffff;points=[[0.005,0.63,0],[0.1,0.2,0],[0.9,0.2,0],[0.5,0,0],[0.995,0.63,0],[0.72,0.99,0],[0.5,1,0],[0.28,0.99,0]];shape=mxgraph.kubernetes.icon2;prIcon=pod" parent="1" vertex="1">
                    <mxGeometry x="651.6600000000001" y="478" width="20.83" height="20" as="geometry"/>
                </mxCell>
                <mxCell id="48" value="" style="aspect=fixed;sketch=0;html=1;dashed=0;whitespace=wrap;verticalLabelPosition=bottom;verticalAlign=top;fillColor=#2875E2;strokeColor=#ffffff;points=[[0.005,0.63,0],[0.1,0.2,0],[0.9,0.2,0],[0.5,0,0],[0.995,0.63,0],[0.72,0.99,0],[0.5,1,0],[0.28,0.99,0]];shape=mxgraph.kubernetes.icon2;prIcon=pod" parent="1" vertex="1">
                    <mxGeometry x="607.25" y="478" width="20.83" height="20" as="geometry"/>
                </mxCell>
                <mxCell id="49" value="" style="aspect=fixed;sketch=0;html=1;dashed=0;whitespace=wrap;verticalLabelPosition=bottom;verticalAlign=top;fillColor=#2875E2;strokeColor=#ffffff;points=[[0.005,0.63,0],[0.1,0.2,0],[0.9,0.2,0],[0.5,0,0],[0.995,0.63,0],[0.72,0.99,0],[0.5,1,0],[0.28,0.99,0]];shape=mxgraph.kubernetes.icon2;prIcon=pod" parent="1" vertex="1">
                    <mxGeometry x="630.83" y="470" width="20.83" height="20" as="geometry"/>
                </mxCell>
                <mxCell id="65" value="" style="aspect=fixed;sketch=0;html=1;dashed=0;whitespace=wrap;verticalLabelPosition=bottom;verticalAlign=top;fillColor=#2875E2;strokeColor=#ffffff;points=[[0.005,0.63,0],[0.1,0.2,0],[0.9,0.2,0],[0.5,0,0],[0.995,0.63,0],[0.72,0.99,0],[0.5,1,0],[0.28,0.99,0]];shape=mxgraph.kubernetes.icon2;prIcon=pod" parent="1" vertex="1">
                    <mxGeometry x="646.86" y="413" width="20.83" height="20" as="geometry"/>
                </mxCell>
                <mxCell id="67" value="" style="aspect=fixed;sketch=0;html=1;dashed=0;whitespace=wrap;verticalLabelPosition=bottom;verticalAlign=top;fillColor=#2875E2;strokeColor=#ffffff;points=[[0.005,0.63,0],[0.1,0.2,0],[0.9,0.2,0],[0.5,0,0],[0.995,0.63,0],[0.72,0.99,0],[0.5,1,0],[0.28,0.99,0]];shape=mxgraph.kubernetes.icon2;kubernetesLabel=1;prIcon=ing" parent="1" vertex="1">
                    <mxGeometry x="704.5" y="573" width="31.25" height="30" as="geometry"/>
                </mxCell>
                <mxCell id="68" value="" style="aspect=fixed;sketch=0;html=1;dashed=0;whitespace=wrap;verticalLabelPosition=bottom;verticalAlign=top;fillColor=#2875E2;strokeColor=#ffffff;points=[[0.005,0.63,0],[0.1,0.2,0],[0.9,0.2,0],[0.5,0,0],[0.995,0.63,0],[0.72,0.99,0],[0.5,1,0],[0.28,0.99,0]];shape=mxgraph.kubernetes.icon2;kubernetesLabel=1;prIcon=svc" parent="1" vertex="1">
                    <mxGeometry x="735.33" y="406" width="29.17" height="28" as="geometry"/>
                </mxCell>
                <mxCell id="69" style="edgeStyle=orthogonalEdgeStyle;rounded=0;html=1;labelBackgroundColor=none;startFill=1;startSize=4;endArrow=blockThin;endFill=1;endSize=4;jettySize=auto;orthogonalLoop=1;strokeColor=#9E9E9E;strokeWidth=2;fontSize=12;fontColor=#000000;align=center;dashed=0;exitX=0.5;exitY=0;exitDx=0;exitDy=0;entryX=0.5;entryY=0;entryDx=0;entryDy=0;entryPerimeter=0;exitPerimeter=0;" parent="1" source="66" target="67" edge="1">
                    <mxGeometry relative="1" as="geometry">
                        <Array as="points">
                            <mxPoint x="720" y="530"/>
                            <mxPoint x="720" y="530"/>
                        </Array>
                        <mxPoint x="895.5" y="430" as="sourcePoint"/>
                        <mxPoint x="774.5" y="410" as="targetPoint"/>
                    </mxGeometry>
                </mxCell>
                <mxCell id="60" value="" style="aspect=fixed;sketch=0;html=1;dashed=0;whitespace=wrap;verticalLabelPosition=bottom;verticalAlign=top;fillColor=#2875E2;strokeColor=#ffffff;points=[[0.005,0.63,0],[0.1,0.2,0],[0.9,0.2,0],[0.5,0,0],[0.995,0.63,0],[0.72,0.99,0],[0.5,1,0],[0.28,0.99,0]];shape=mxgraph.kubernetes.icon2;kubernetesLabel=1;prIcon=ing" parent="1" vertex="1">
                    <mxGeometry x="704.5" y="468" width="31.25" height="30" as="geometry"/>
                </mxCell>
                <mxCell id="70" value="" style="strokeColor=#dddddd;shadow=1;strokeWidth=1;rounded=1;absoluteArcSize=1;arcSize=2;" parent="1" vertex="1">
                    <mxGeometry x="730" y="660" width="363.88" height="60" as="geometry"/>
                </mxCell>
                <mxCell id="71" value="&lt;font color=&quot;#000000&quot;&gt;europe-west3-docker.pkg.dev/psi-de-0-sbox-csf/artifacts&lt;/font&gt;&lt;br&gt;Artifact Registry" style="editableCssRules=.*;html=1;fontColor=#999999;shape=image;verticalLabelPosition=middle;verticalAlign=middle;labelPosition=right;align=left;spacingLeft=20;part=1;points=[];imageAspect=0;image=data:image/svg+xml,PHN2ZyB4bWxucz0iaHR0cDovL3d3dy53My5vcmcvMjAwMC9zdmciIHhtbG5zOnY9Imh0dHBzOi8vdmVjdGEuaW8vbmFubyIgd2lkdGg9IjIxLjk5OTAwMDU0OTMxNjQwNiIgaGVpZ2h0PSIyMC4zOTM5OTkwOTk3MzE0NDUiIHZpZXdCb3g9IjAgMCAyMS45OTkwMDA1NDkzMTY0MDYgMjAuMzkzOTk5MDk5NzMxNDQ1Ij4mI3hhOwk8c3R5bGUgdHlwZT0idGV4dC9jc3MiPiYjeGE7CS5zdDB7ZmlsbDojNDI4NWY0O2ZpbGwtcnVsZTpldmVub2RkfSYjeGE7CTwvc3R5bGU+JiN4YTsJPHBhdGggY2xhc3M9InN0MCIgZD0iTTUgMHYyLjQ1OEwxLjk5OSA0LjE5N3YxMi4wMUw1IDE3LjkzOHYyLjQ1NmwtNS0yLjg4N1YyLjg4NnptMTIgMGw0Ljk5OSAyLjg4NnYxNC42MjFMMTcgMjAuMzk0di0yLjQ1NmwzLTEuNzMxVjQuMTk3bC0zLTEuNzM5em0tNi4wMTYgNi42NzNsMi45NDctMS42NDYtMi45NDctMS42NDYtMi45NDcgMS42NDZ6bTMuMjY4LTEuMDk2bC0yLjg3MSAxLjY3OHYzLjI4N2wyLjg3MS0xLjY3NnpNNy43NzMgOC44NjZsMi44NzEgMS42NzRWNy4yNTZMNy43NzMgNS41Nzd6bS0uMjEyIDMuODc4bDIuODItMS42NDYtMi44Mi0xLjY0Ni0yLjgyIDEuNjQ2em0zLjEzMi0xLjA5OGwtMi44NzEgMS42Nzh2My4yODdsMi44NzEtMS42NzZ6bS02LjI2NCAzLjI4OUw3LjMgMTYuNjA5di0zLjI4NWwtMi44NzEtMS42Nzl6bTEwLjAyOS0yLjE5MWwyLjgyLTEuNjQ2LTIuODItMS42NDYtMi44MiAxLjY0NnptMy4xMzItMS4wOThsLTIuODcxIDEuNjc4djMuMjg3bDIuODcxLTEuNjc2em0tNi4yNjQgMy4yODlsMi44NzEgMS42NzR2LTMuMjg1bC0yLjg3MS0xLjY3OXoiLz4mI3hhOzwvc3ZnPg==;" parent="70" vertex="1">
                    <mxGeometry width="30" height="27" relative="1" as="geometry">
                        <mxPoint x="15" y="16" as="offset"/>
                    </mxGeometry>
                </mxCell>
                <mxCell id="74" value="gitlab.com" style="shape=image;verticalLabelPosition=top;labelBackgroundColor=default;verticalAlign=bottom;aspect=fixed;imageAspect=0;image=data:image/png,iVBORw0KGgoAAAANSUhEUgAABBcAAAFSCAYAAACpETdJAAAABGdBTUEAALGPC/xhBQAAAAlwSFlzAAAWJQAAFiUBSVIk8AAArnBJREFUeF7s/QV7HFcW7Q+/3+R/7504UnfLDgxlKOAxJHaYmeOAHYeZcSbJBBw7ZpIsMzMzMzNKLWaGPlW13rNPtxLHLtlqqbnX73nW41ixuovr7HX23uf/B0IIIYQQQgghhJAuQHOBEEIIIYQQQgghXYLmAiGEEEIIIYQQQroEzQVCCCGEEEIIIYR0CZoLhBBCCCGEEEII6RI0FwghhBBCCCGEENIlaC4QQgghhBBCCCGkS9BcIIQQQgghhBBCSJeguUAIIYQQQgghhJAuQXOBEEIIIYQQQgghXYLmAiGEEEIIIYQQQroEzQVCCCGEEEIIIYR0CZoLhBBCCCGEEEII6RI0FwghhBBCCCGEENIlaC5cgGNbsJsaYddVw6qvhd3aIj8N/k9CyCVxAq2wG+tg6fvHbqiDowL6h7x/CCGEEEIISXVoLoRwWpuhykvQcvQAGjeuQMOKuWhYvQBNuzai9dwJ2LVVgG2H/jUh5FccG05LMwKFeWjetx0N65eiXu6ftYvN3wMF52A3NoT+MSGEEEIIISQVobmgcZRC4NxJ1C2YgrJPB6PwsT4ouP96FDx4I4pfuhcVP32Cxs0rYNfV0GAg5HwcxxgHraeOoGr8EJS8/gQKH+1t7p/Ch/+NktceQfXEIWg5vAeOyQIihBBCCCGEpCJpby6IsdB6+jiqfvkaRU/3h7/fNcjvk4X83j6tLPj7dkfBHX9F8cD70bB8DqzKstBvEkLspgY079uG8i9fh//O65Dft8dv94/+03/zVfrnf0X5F6+hacf60G8RQgghhBBCUo30NhdsC1ZVOWqmjkLx83fD3+9q5P/b4yIv/P2vRenbT6Np+3rYjfWhDyAkvWk5uh+VQ7+A/46/utw3IfXyovCBG1Hxvw/QevqYMfQIIYQQQgghqUVamwsy6yrp2qXvD0DBnZcIjnpmanngv/1PqJ4wBIFzp0KfQEj6Ig0bpZSo+Lk7kHfjle73Tpv6dEfx83fpfz/V/B6bPBJCCCGEEJJapLG54MAqL0H9oummx0J+3+46CMq8OCg6T3k3dkPZ+wPQtG0tey+QtKf17HFUDvkU/tv+5Hq//E69vKYPQ8W370MV+YOrSBBCCCGEEEJShrQ1F2TJydYzx1A19HP47/iLCX5cg6Lz1TMTRY/3Qd2cbJP1QEj64qBx00qUvfdcsMeC2/1yvvS9I6VFJYMfNCtIsLSIEEIIIYSQ1CJ9zQVpRLdzA8reehL5fXVwJKUPbkHRBfLf+kdU/fw5AnknQ59ESLrhwFGtqJ02xpRE5Pfyud4rv5OYC327o+ixPmhYMh1WRWnoswghhBBCCCGpQNqaC7LqQ8OSmSh6vK8OjoLBj2tQdKF0gFT2wQto2rom9EmEpBmWBVXsR+X3H6Hwvuvd7xM3SWnEnX9F9fAvEThzTH8OGzsSQgghhBCSKqSnueDYpmt99dgfTCZCsNdCB80FHSAVD7gLtTPGBdftZ2M6kmbIdd+0ezPK3nk2dP+43Ceu0vfYzT1MKUWz/n2nuTH0iYQQQgghhJBkJy3NBWkm17RjA8o/G4y8m67seNZCSAX3XY+K7z+GKi0ys7iEpA2OA7u+DrVzclD83J1mFQi3e8RVcp/18qLoqX5oWD7HLANLCCGEEEIISQ3S0lyQZnL1i2eYpfHyrv9D2OaCv981KH37GTTv2QantTX0qYSkPo5SUMUFxlyT1R/c7o92FbrPCm7/M2on/gxllnRl5g8hhBBCCCGpQFqaC6qkENXjfkTBPf9A/uXW53eRNKaT0oi6+VPhNDG1m6QPskpK88E9KHnjiWBJRJjGnCivZwbKv3gVzbs2cUlKQgghhBBCUoT0MxccB817t6Hss1eQ19vXqeBIUrsLH7wJlUM+hyothMPGdCRNsKoqUL9iPoqevAX5fXt04v7JRN4NV6D4xXtM9pDdwCUpCSGEEEIISQXSzlwQI6BuwVQUv3AP8m7s5hL8dEA6oPLf/mdTGtFyeC9sZi+QdMC2EMg/jerxP8J/19+MyeZ6f1xO+r4ruPefpqFqoMgf+nBCCCGEEEJIMpNe5oJjw6qvRdWwr1Bw379MkOMa/FxOYi707YGip/qjftVCM5tLSKrjtDaj5cBOlH86yKz60KmsH5H8Xm8fyj9/Dc37d5hsIkIIIYQQQkhyk1bmgjSjC5w7YZbC83clOBL18sJ/13WonvgzAv6zcGw79C2EpCZWbTUa1ixC8bO36XvA26X7J+96KY24D/VLZnLFFUIIIYQQQlKA9DIXWprQuHo+ip/RwdFNGa5BT4clgVWf7ij/9GW0HNxp1v4nJGVxHKiCs6idPBz+W6/V94AYC10wF27ohoIHb0LV6G9hNzcwe4EQQgghhJAkJ43MBQd2XQ2qRnyNwvuvR14kzIVeXhQPuANN6xbrz64OfQ8hKYhloXnfdlT8563gCitdyfoR6fvP3/8alH88EIG8k2yKSgghhBBCSJKTNuaCE2hF4NwplL7Z+SX0fqfQ7xfc8RfUThlpZnU5+0pSFbulGfUr5qFk0AOmpKHL909Ixc/fhcb1S+DozyeEEEIIIYQkL2ljLti11WjcuBKFD/c0zeTcAp2wJQHWTVei4pt30XJgh+mmT0gqoipKUZ091DRCzZPMBbf7IUzJ5xTefwOqR39n7k+ac4QQQgghhCQvaWMuqII81Iz7CQWRyFpok/6cvOv/gJLBD6Nh9ULYrZx9JalJy5H9KP/qzeDykxG8f+R+LHv7KQQKz8JRgdC3EUIIIYQQQpKN9DAXbBsth/ei7J1n4b/5KvdAp7O6sRsKH7geNZOGw6oqD30hIalF/fJ5KHn5IdOI0fU+6JQyTRZR4UM90bhllemJQgghhBBCCElO0sJcMEvorZyPwod76WAmyyXI6YJ6ZiC/b3dU/PcdtB47EPpGQlIEx4Hd1Iiq0f8zJoBp5uh2H3RB/tv+hOoJP0EV5oW+lBBCCCGEEJJspIW50HrulA5ehiBfSiIkrdslwOmKpHa85JVHTGkEIamEoxQC506i7MOX4O93TeRKIn6V/rybe6D0g+dNdhFXjSCEEEIIISQ5SX1zwbbRtHszyr54Hfl9ursENxGQNKZ7pBeqx/8Eu7WFjelIyiCrODSuXYLiAXfpaz3SxkJIvbNQ+FhfNKxdDKu+NvTNhBBCCCGEkGQi5c0Fu7kJ9UtmofiFe6OStWDUM9PM6pZ9PAiBwnw4FleNIKmBBPvVY/+HwgdvDJYAuV3/XZXcl/2uRXX2Lwj4z4a+mRBCCCGEEJJMpLy5oEr8pp674AEJjqI08yrSn23W7N+0kmv2k5TAlEQUnEPZO0+j4PY/Rff+6dMd5V+9hea920PfTgghhBBCCEkmUt5caDm4E5XfvIOC23Rw5BbUREo3ZZiGd2Jk2A11oW8nJHmx66rRuHkVCh/vY5qWul73kVIvL4oHPoD6pXPgNDeFtoAQQgghhBCSLKSuueA4Zt38hhVzUfrG4/D3ifAqEReqZyYK7vgLyj583sz2cs1+kuyoonzU5AxFwZ3XRa+k6DwVPnQTaib+DFVSENoCQgghhBBCSLKQuuaCbcOqqUTNhJ9Q9OTN0U3pblPf7ijU39W0fR1sNqYjyYxlofXoPpR/Mii4SoTb9R5RZZrSi8pv30XLod2hjSCEEEIIIYQkCylrLph68bMnUPH1W/Df9Tfk3RSlZnTnq5cXBXddh9opI6GKOftKkhe7oRaN65ei6On+0S+JCMmvv6f0zSfQsGq+MQcJIYQQQgghyUPqmgstzWjashqlrz4K/81XxSZzQcvf/1qUf/EqWk8eCW0JIcmHlPbUTBlljLn83j7Xaz3i0vdo0ZO3oHriENi11TQYCCGEEEIISSJS01yQkojqCtTq4Kjo8b7ugUy01LcHip67A40bV8BuqA9tECHJRfPB3Sj/7gPk33J1TPotGEnfknv+gYpv3kXg7EmTfUQIIYQQQghJDlLSXHACrWjNP4OK/76NAlMScaV7MBMN9fbBf/c/UDN9LAJF+aEtIiR5sJubUL9qIUpeexz5vWKUtSDqmQn/LVej9I0n0LR1LVeNIIQQQgghJIlISXNBMgaa9m5D8aAHTLAiy0S6BjPRkMzy6u+s+OFjtBzaY1atICSZUKVFqMkdgcJHe8esnOh8SWlE7fSxsGuqWBpBCCGEEEJIkpB65oIO5q3yEtQtmmZSrPP/HaOU7vPV24eSNx5Hw9rFJouCkGSi5dgBVP7wMfx3/CW2xpxIf59kG5nSCFnSNcAlXQkhhBBCCEkGUs9csG20nj6Oih8/QX6f7rEPjkQ9M1H4WB/UTB4FVV4S2jBCEh/HVmaViNJ3ntX3T5b79R1N6fvVf8s1KHn5ITQd3AW7qSG0ZYQQQgghhJBEJuXMBae1Bc27N6Nk8EO/BisXBTDRljSmu/M6VP74iZkFJiQpcGyzBGXt1FEofvb2uJREmO+UJV3vvwF1i2eYLCSWFhFCCCGEEJL4pJy5YFWVo/7XkggdqMQjQNKSNfvL3huAxg3L9Eax6z1JAiwLqvAcqn74CIX3/jM+xpyop/7eW65G5c9foPXMcTi2FdpAQgghhBBCSKKScuZC66kjqPrlK+TF0Vgw0t9dPOBO1M4YC6exjrOvJOExWT97t6Ls7adj3wj1fMn39vKi5LXH0LRni9kuQgghhBBCSGKTWuaCDuCbtqzWwdFTyLv+D3E1F/JuvBIF91+PqiGfwiopMLPChCQs+t6x62tRt2Ayip7qF7x34nX/hL634L5/on7pLFg1laGNJIQQQgghhCQqKWUuSPO3utkTUfRIL+Tr4P6ioCWWksZ0/a5B2XvPofngDjgBzr6SxMWRkoiyYlT+9AkK7vm7Mcdcr+uYKdNkH1WP/AaBM8dDW0kIIYQQQghJVFLKXAjkndLB0ac6qL86rlkL56vomVtRt2AK7PoaHcFxzX6SmDjNTWg5uh8lrz4cvH/iVRLRJn3/5l1/helb0rR9XWgrCSGEEEIIIYlKSpkLTZtXofSdZ5CXIMaCKY245x+oHPIZVEkhHDZ2JAmKaYS6fB4KHrjB9DtICHPuhm4oevJm1M3LhdPcGNpSQgghhBBCSCKSIuaCA0cFUDt1NIqe6h//Wdc2hUojSl573CxJKbPDhCQcjoNA3hlU/vJf5N98VeLcPz0z4b/1j6ZBqyrMC20sIYQQQgghJBFJDXPBtmFVlqHim3dRcOd1CVMSYbajlxeFD9yI+tWLYFWzMR1JPByl0Lx/p1mdwVy3iWIuaOXpbSl7fwCadqwPbS0hhBBCCCEkEUkJc8FpbUXTnq0oeVUHR327uwYp8ZIERzIbXDXqOwQKzoW2mJDEwaqpQt2SWSi4+x/B6zZRzDktuX+KnrkNtTPHg4u5EkIIIYQQkrikhLlgNzagZvq4YElEL59rkBI39cwIrtn/9tNoPrjLzBITkki0njmOqpHfIu/fXvdrOJ6S0oi7/46K7z6Aqig1WUqEEEIIIYSQxCPpzQVpkqhKClD+n7dRcO+/3AOUeCo0C+yX0ogV82DVVoe2nJD44zgOmnZsQNkHLyDvhm4XX7+JoJuvQskbT6BpzzY4gdbQlhNCCCGEEEISiaQ3F+zGejQf2IHilx8wzd9cg5N4q6cHeb28qB73IwJ5p0NbTkj8sZubzFKpRU/1S6heC7+TvnckK6l21kRzvxNCCCGEEEISj6Q3F6yKUtQvmYGiR3vBn2D9Fn5Vz0ycu/4PKPt4IJp2bTLd+QlJBFTROVQN/wr+W6/9NcsmEVVw379Mw1aWRhBCCCGEEJKYJL25EMg/bYKjgruuQ37vBOu3cL5uuhJFT/dD/aJpcAItoa0nJL40bV+L8vefd79mE0iSlVTy8oNoPrIXdnNjaOsJIYQQQgghiUJSmwtOSxOa92xB2bvPwH/LVa5BScJIGtPd9idUjfgaqohr9pP441gW6maOR/GAO9yv2URS3x4ofKwPGpbPMcvOEkIIIYQQQhKLpDYXJMhoWDbL1Iv7TdZC4qZ1G/Xyouyjl9C0a2NoDwiJE7at759SVP74sSk5cL1eE0n6/i64+++oHvVfBPJOsTSCEEIIIYSQBCN5zQXHQeDsCdRM+AkFd/01FIQkuLnQMxPFL9yN2rk5XJKSxBVZdaHlwE6UvfMs/P2vcb9eE0z+flej7L3n0Lx3K5yW5tCeEEIIIYQQQhKBpDUXHBUwzRHLv3jNZAQkvLEQUsH916NyyGewaio5+0riht3YgLoFU1E84E7k98lyvVYTStJssrcPRU/cgoZlc2BVlYf2hBBCCCGEEJIIJK25YNfXon7RDBS/cG9off7kMBf8/a9F2bvPoeXwHq7ZT+KCY1tQ5aWo/OkzFD54Y8icc79eE0p6OwvuvA412UODpRGEEEIIIYSQhCFpzYVAkR/V439Cwf03IP/GK92DkQSUv093lDx/N+oXz4DDrvckDthNjWg5sg8lbz0F/+1/dr1OE1X+Plko/+oNNO3ebLKXCCGEEEIIIYlBcpoLto3m/bt0kPEm8m++Cvk9M1wDkYRULy8KH+qJymFfwjJr9luhnSIkNlhVFWhYOR9FT/WH39w/yZH1Y3TTlWZJyvqls2DX14X2iBBCCCGEEBJvks9ccBxTTlC/dA6KX34IeZK1kEzBkZb/9r+g9O1n0HLsAJzmptCOERIDbBuB/DOoHv8jCu75h+lj4HaNJqrybuxmzLmaiUOhigtCO0UIIYQQQgiJN0lpLsiMZfXYH1D48L+Rd8MVrkFIIsvftweKnuyHhtULYVVXhHaMkOjjtLYEV4n4ZCDyb7lKX4/JZczl35QBf79rUPHNu2g+vNc8DwghhBBCCCHxJ+nMBcdSCPjPovzzV+C/9Y8m2HANQhJZsmb/vf9A9cSfESjMC+0ZIdHHrq1G49rFKB5wR7CRY5Jl/Yjy9D1f8uqjqF85P9R3gQYDIYQQQggh8Sb5zIWWZjRtWoHiF+/RwZEONpIwOBL5+1+D8s9fRcuh3XBauWoEiQ2BgnOonTIKBff8PXQtJqG5IKURj/Ux5pzdUKsfClzSlRBCCCGEkHiTZOaClETUombCj2YJPdNvwSX4SHj1zDRd78UgaVy3BFZtdWj/CIkilkLzgZ2o+O595PdJrl4Lv9NNV5pVLsq/fA0B/2mTzUQIIYQQQgiJL0llLjhKIVCUh7L3B8B/25+SsyRCFMq2KLzvn6idNgaq8JzeOaZ2k+giS59Kn4+S1x5F3g3d9DWYnFk/5v7p5UHxwHvRtG216SNBCCGEEEIIiS9JZS7YDXVo2rURhY/0CnW5T9LgSCQBkt6Hyu8/QMvBXYDFJSlJdLGqylEzZVSwEeqNYi64XJdJIjFHCh+4ATU5w8xzgRBCCCGEEBJfkspcUCUFJjjy9/9j0vZa+FV6+89dfwVKXn8cDWsWc0lKEl0cBy0nDwVLIm6+KunvH2nqaEojPhmknwuFcGjOEUIIIYQQEleSxlxwJDg6fghln75slnJMenNBy8y+PtobtdNGw6oqC+0pIZHHsW00rF2MktcfQ36y9io5X3L/9+2Ooqf6oXnPFtgN9aE9JYQQQgghhMSDpDEX7MYGNGxYgaIn+wVLIlLAXDBr9ve/BhXff4TWk4f1XrLvAokCjgO7uQnV2cPMKgt5N1zhfj0mofx3/AW1M8dDlRaFdpYQQgghhBASD5LGXAgU5qNmcqgkwiXISEr1zETeTVei5M0n0bB+OWAztZtEHikZCBTlo+yL10ONUFMgc0Fkshd6oPzLN9B64rC+f7gkJSGEEEIIIfEiacyF5v07Uf7128jv5XUPNJJUMotc9MQtqMkdCaelxcwyExJJZDWFxm3rUPzivciTgDwVsn5Esh+9fSh6qj8at66F3dIc2mNCCCGEEEJIrEkKc0HWsa9fuQDFA+93DzKSWW2N6b56C4GSIjamIxHHbqxHTe6I4CoRqZK10CYxG/tdi9ppY03DV0IIIYQQQkh8SApzQZWXoDp7KAoeuME9wEhmhWZfS15+EE07N3LNfhJRxKxSpYUo/3QQCu74i77eMtyvwyRWXi8vKr59Dy2Hdof2mhBCCCGEEBJrksJcaDm8BxXfvAv/rde6BhfJLplNLny0l1k1QhpXEhIpJGuhee8WFD3dH/6+3VOnJOIClQx+CA2rFsIJtIb2nBBCCCGEEBJLEt5ckJnXhlXzUfrmk2bpObfAIul1UwYK7vwryr98zWRpyLKBhEQCq6wIdbMmmFUVXK+9FFHhgzeiZtJwWJVc0pUQQgghhJB4kNjmgmPDbqhFzcQhKHrylpRr5virembC37cHSp69DS1H9sBpbgwdAEK6gOOg9dRRVPznbfhvuTplsxZEktVU8d17aDm6P7TzhBBCCCGEkFiS0OaCNHJsPXfSBEcFd/89pYMjkcwu183LhVVeEjoChHQeu6UJjdvWoui525HfJ8v1mksVSclH2VtPo3HNotDeE0IIIYQQQmJJYpsLrS1o2roapW88AX+/a1LbXJB9u+VqVHzzDgJnjoeOACGdR1ZPqJ05HgV3XZe6WT9t0vsnS1LW5AyD3VBnsjYIIYQQQgghsSNxzQXbhl1ThdppY0zQICsquAYVqaQ+3VH8wl1o2rYOTnNT6EAQ0jlaDu9FxQ8fIf/mHqlvLmgV3PMP0/hV5Z82WU+EEEIIIYSQ2JGw5oJ0fQ/4z5ol5iRoSPWSCKPePjPLXDd7IlRpUehIEBI+TiCAhrVLUPLGE+lhzGn5+1+L0reeQvP29VzSlRBCCCGEkBiTsOaCLMnYdGAnSl55BPmmJCL11ue/WF7T2LHqp0/RysZ0pAuoyjLUTB6Fwkd6u1xnKarePhQ/fRvqZo6HXV/L0ghCCCGEEEJiSGKaCzookKaGdYtmoPDBm4Izr+mQuSDS+1oqjek2ruSSlKTTtJw4hIofPwkuQZku947eT1Ma8e17CBScM9kbhBBCCCGEkNiQmOaCrBJx6hgqh34ZylpIk+BI1MuLwsdvRu30cbCqK0MHhJCO4zg2GjYsR+n7A4L9Ftyus1RUzwyzJGXJa4+jef8O2I31oSNCCCGEEEIIiTYJaS5IM8PmXZtQ+uZTwUZ0N6VDScRv8t95HSqHfIbWU0dCR4SQDuI4sJvqUTt9LIoH3JkWjRx/lZiQfbJQ+Ggf1C+ZBVVRytIIQgghhBBCYkRCmgtWVTnql85C4cM9ddCgA4Z0ylwQ3XwVyj54AY2bVplVMwjpMJYFVZSHyp8+QeH9N6TfvaP313/rH1E14r9oPXuCq0YQQgghhBASIxLPXHAcBM6dQPW479Or18Lv5EXx83ehbsY4OC2NnH0lHUZWSWjetw1l7z5nVk9IP3MhI9i35J1n0Lxnq75/mkNHhhBCCCGEEBJNEjBzwUHz7k0o+2Qgzl3/h/Q0F/Q+Fz5wA6qGfAqr2G9mowm5LFISUV+LugVTUPzs7cGSiLQzF4L7W/hob9Svmgertip0cAghhBBCCCHRJOHMBZlprF80XQdHtyLvhit0oJCe5kLBbX9C2QfPo2X/NjiB1tDRIaR9HKVglRSgaujnKLjvX2nXq+RX6fvHf0sPVE/8CYG8U6GjQwghhBBCCIkmCWcuqGI/qkZ+A//tf0rf4EjUx4fi5+9E/aJpXLOfdAinuRGtR/ej9O2nzKoJ6WwuiDFZ/vlgNO/ezL4lhBBCCCGExICEMxdklYiyD19EntROp1tK93mS/S+4/wZU/fI1VEmhmZUm5FJY1RVoWLMIRY/1hr9PVvreP2IuXP8HFA+4HQ2LZ5jVZwghhBBCCCHRJbHMBdtG3ZxsFD13e6gkwiVwSBfdJGv2/xGl7z6HlhOHGCCRS6PvnYD/LKrH/wR/v2t0gJ3GWT8iuX9u/xOqRn8LVVoYOkiEEEIIIYSQaJE45oIOjqzaGlT88DEK7v57epdEiGTWWdbsf+JmNGxYDquGjelI+0hmS/PhvSj96MVgI8d0v3+0JPun7JNBaN63PXSUCCGEEEIIIdEiYcwFJxAIBkdvPoX8vj1cg4X0Uybyb/8zqrOHIVBwjrXjpF2suhrUr16Ewsf6Bq+dNC4palPejd1Q/MLdZvUMhz1LCCGEEEIIiSqJYy40NaJu/lQUPXWra6CQlpLZZ1mz/+NBaDm0xxgwhLgRyD+D6ok/h4w5GgtG+v6RVTMqh35hzBc4NOcIIYQQQgiJFolhLkhJRGUZKr//MLiEHmddgzLHIROFj/dFw5rFwVUjCLkIB817t6L8s8E4d/0feP+cJ//NV6H0nWfRfPwQHEVzjhBCCHHDsmzU1tXj1Jn8Dun02XwUFZehpYXLpRNCfiMhzAWnpRktevBf8vID8Pe/1jVISGv1yUJ19i/B0ghCLsCxFOqXzUbxgDtCjVBpLvyqnpkoevpW1C2ZBZtNUQkhhBBXmpqase/AUfzv53Ed0k+/TMTMectQXFIe+gRCCEkQc8GqqkDDyvkoeLinCaRdg4R0lQ6OZDa6/MvX0bx/R+iIEfIbVmUJasb+z6yOwKyFC6SPR8F916Pix0+DpRGEEEIIuQiaC4SQSJAQ5oKSJfRGfQP/XdcFO927BQlpq0wzG1380j2oXzmPqd3kIpr3bzclEe7XDyVLupa8+ihaTx2B09ocOmqEEEIIaYPmAiEkEsTdXHBaW0xwVPbus8H1+V2Cg7SXNKa75++omTgEqqI0dOQI0TgO6hZORfGL93L5yfbUtzsKH+mFxjULYFVXhA4cISQZUMpCTW2dqe/ef/AYduw+gK079mH7rv3Yu/8ITp46h4rKKgQCKvQbhJDOQHOBEBIJ4m4uyGC/fvkcFD3elyUR7UlS3Xt7UfHl62g5vCd05Eja4ziwG+tR9cvXKHzgRpZEtKdeXvjv/Cuqx3yHgP+MHLjg8SOEJCyyemxDYxPy8guxbcdezJ6/HGOzZ+DnkTn48ZcJGDI8G6PGT8OMOUuwYfNOnDqTh7r6Bi47S0gnoblACIkEcTcXAudOonriEBTc8VeWRFxCeTdeiZJBD6B+6ezgqIukPVIi03rqKErfG4D8fle7XjeUlpgL/a9B2XvPoeXQbtMAk5BkRYJny7ahlEJrIGA6tTc3t6BRBwaNOhiXgNyooRH1Wg0Nwb/L/5PgoUn/W/kdmelXlgVbf1YiItt4+OhJTJu92DWwOV/fDx2PiZPnYM++w+Y40GAgJHxoLpD2MO8dy0ZA3jutwfeOvEt+994x75uQQu8c+f9t7xx5X0kmmrxz+IhObeJqLji2heY9W1Dx1RvIv1nW53cJDKigbspA4YM3oWrkN7CbG2kwEDjN+mG+fC6KB9yF/N4+9+uGCqpPdxQ+cTMaVs2HXVMVOoKEJB8ySCspLcfxk2ewe+8hrN+0A4uXr8PMuUsxZcZCZE+di/GTZmH0xOlmZn9czkxkT5mLKTMXmkBg0dK1ZqZ//8GjOJdXgOrq2oQ0GPbqIGey3p8fdQDjFthcqB+GTcDoCdONwSAZDISQ8KC5QNpDTILCojIcOXYKO3YdwJr1W7FgyWpMn70YudPnG3N3bPZM8wweo989E3JnI3fafPP/5d+t3bjNPJtPns5DlX7niDlOUpe4mgt2Qx3ql85C8csPIo/L511WZvb1gxfQeuowGzumOeIiq+pKVA79CoUP9WTWz+XU2wf/XX9DTc4wBPJPh44iIYmNZVmo14Hy6bN+7Np7CKvWbcHcRSsxddYi5EydFzQR9GBu+JjJ+HnkJFMqIMG4BNoymy8BwA/DxpufDRmRjaH63/yi/638jhn86UHhjLlLsXj5WmzdsRcnTp8zAz/53nghRkdZWSXmLVplSiAuDGguJdlvMVLO6OPFwSsh4UFzgQjyDBaDVvrc7NxzECvWbMacBSuMQS3PVzGsxbj+ZXQufh6Rg5+GTzSlavLOadOP+lksP5f//8voyRg1YZp5X03S763ps5cYQ1zeOadO55kMO8mKiBdt2YAdlW1zcvdyxNVcCBT7UT1xKAof/jeb0XVEOkAqfv4u1K+Ya2atSfpitzSj5eQRlLz1FPy3/8X9eqF+k5gvN1+Fiv++jea9W03WFCGJiAyyJMA/c86P3fsOY/W6LZitB3YyqBMTQQJot4F+ZyUDQTEexuXMMoGCDCRlQHk2r8AYG7E2GiR1dteeQ2Yg6ra9l5McH2n4WF1TF/rE9EZKX6pqak0jzM3b9nRI0iiztIzNb9MNmgvpi60D7Nq6epzLL8Qeff+vXr/V9LnJnjLHmAiRfu+IcTxOP+NnzV9mvuvAoePmOmpuaQ1tUWyQkkLJpti4dVeHtG3nPpO9IeUhpH3iZy7oC7n54G6Uf/Me/LfK+vw0FzoimaWuGvFfWNWV+hgmZq0siT5y/hvWLkHRk7fAz5KiDqvklYdRv3yuaYRJSKIgMyctra2oqKzG6TP52LJ9D+YsXGEyDNwGZtGUmA0jx03FvEUrfzUZZLUGqZWNBVKfK2m0Mtvltn0d0aJla5FfUBT6xPRGymjEqJKMFbdj5SYxdg4cPh76BJIu0FxIP6T3jjzfxVQQA3L+4tUYM3GGeQ+4nfNoSL5LyipWrtmMw0dPobyiypjMseidI8br8tWbXLfLTcNG55rsQblXSPvEx1zQF4yjB1L1K+aj5LXHQiURLIvoiGSWuvTtZ9B69qQ5hiQdcRAoyEP1hJ9RcO8/2W+hg5KmqJIlJaURqqQgdCwJiS8StEta6Lm8Qqxau0UH9lMiPkvUFUkPhy079pqZbGnkFe0BnzQBy502z6TUum1PRyRNIE+cOhv6xPSG5gLpKDQX0gcpfZBnQ1FxmTGzpUwuEd47I/T7b+mK9fAXlph3QbTLJWguRIf4mAtSt1JbjerxP6Hw0d7Iu6GbazBAuejmq1D4RD80blxhjiFJP6TfRsvhvSj/bDD8/a9lv4WOqmcm/Lf9CRXfvmeOHyHxRgZ4kpIp9adSkzpkRE5MZ4w6IhlwDh01CZOmzTc1smKERLMBpHQZ7+pAd/L0BTh6nL1VBJoLpKPQXEgP5PldWVVjmgFLuZ304kkUQ7utTE+y9tZt3K6vrbKoGto0F6JDXMwFWQquNf8UKr5+EwV3/hX5N13pHgxQF6t3Fgru/RdqJg2HKvKHjihJJ+zaajSuW4ziF+6Gv0939+uEclcvL0rfeAINqxbACbSaLCpCYo2kfBaXlpvB09SZi0wvhUQzFS7UT8OlL8NMLFy6BidPnzPdw6OBzFZNnrHAfJ/bdnRE0+cswYlT50KfGFmkB0WevwjHT57FkeOn25X8/7Zsj3hCc4F0FJoLqY0E6dJXYf+hY5g9P1h215UMsWhK3oej9PZJY9/9B4+ZazMaJgPNhegQH3OhpRlN29ei5JWHkN8ny8wougYC1MWSNftv+xPKv3wdLUf3cdWINCRQeA6100aj4L5/MWshTOXddKXpUyGlEWLSSBYVIbFCxkbSrPHgkRNYtHyt6bgtXbbdBjGJKBnwSffvWfOWm2UwpTY20kiDLcnkEMPFbRs6oiWhtNpoIA3HpMmmHAMpv2hP0gxt38GjcV8Wk+YC6Sg0F1IXMbTzC4qxYfMuY952dInfeEuyKmSJZSndKC2vND0iIgnNhegQe3NBj67s2hodHI1C4aO99GCfjRzDlb9vdxS/eC8aNyyDXVcTOrAkLbAttBzajcofPkL+LVe5Xh/UJXTTlSi4+2+o+OYdsySlZFEREgskFVWCcVkjXNL23QYuySRpwLVp626zT5FcUSKgB8ES4EhphNv3Xk6S8SDHuLY2Ok1bpWxDlgG93OBcuqFL2rGYSfGE5gLpKDQXUg+Z7RfD9sy5fGO6hvMcSBSJqS1m89qN2+EvKEZzS0to77oOzYXoEHNzQQbzqrgA5V++hoI7/oL8G1kSEZ4yzWx1wf3/Qt2McVBF+aEjS9IBu7kRjWsWmdR+mYV3v0aodiVZUn27o+S1R9G0a4PJoiIkmsjgziwHWF1jumFLtoLboCVSkoHYD6JhE36T/ns0yi6k+daylRtQWVUdsdUk2pZEk9Uqwk3ZlSyQiVPmmrKFaNXpNjQ0YmzOTH1cL308aS6QZIPmQmrRZiycOp2HabMWmfPldh67Knm3mPfO+e8c/XyMxjtHVgKSFYxUhJaCpLkQHWJvLjQ1oOXALhQ/ezv8fXuwJKKzuuUqVP74CVqO7JUnSOjoklTHqixD7bQxKHq8L/JuZCPUzkhMGWkkWztzHOw6PfDn/UOiiMzEF5WUYsacJWa98GgMuNokwbjM8EgtrQSIEyfPxbhJs83fJbjsSh8DN8m+DBulB1sLV6KwuAy2HZl7SQwG6Vkwc+5S1+91k2zLyPFTcfTEmaj1g5BHRV1dg1mq020bzhfNBZJs0FxILaT5rpRmjc2eGbUyCDER5Fknz0T5Hsk4E42ZOB3Dx06JeNmfvMPmLFgRsdWAaC5Eh5ibC1Z5CermTYb/zutcB/5Ux5TXMxOlbz2FxrWL4TQ3ho4uSWn0yLblxCFU/Pgx/Lf9GfksKeqUZEnKAv38qfzvO1AlRXAimNJNyPlIYHf6bD5mzV9mVlyIhLEgnyHdtKXL94Ilq7Fu03bs2nsQR46eNN91Lq8Aef5C5BcUwV9YbOps5e/y81Nn8nBY/7sduw9i9fqtpm+ADAK7sl3GYNADLumTkJdfGNrzriMGgRgM0kBS9vf7oe7fL5K6XDFvpJeFZBZEazUL+dyKqhqM0INmt+04XzQXSLJBcyF1qKmpw+59hyO2xKQ854OrBs0zz/pNW3Zh74EjOHbijHm+nNPP/ny/fufo941IssfknSPNfw8cOo4t2/di6coNmDR9fpffhSbAX7jSfG9XM+ZoLkSHmJoLkqLTeuaYWQpOUpMZHHVBOkCSxnS108dCVZSGjjBJXRxZEB8NG5aj9J1n2MixK9LPHf/NV6HkxXvQfGg37CaacyTySFAnKxaIARCJjAGZBZoyc6EpQ9i2cx8OHTlpBnTS80BmqKTR1eVKAeT/SyaFNBmUlQxOncnH3v1HsHbjNszSQYLMPnV2IDpn4Qoz2IskYjCIYbF5225zHKURmQS+YybOMCtXyEBXBpkSxMtMlgz4olUOIchAVgIpORdux+B80VwgyQbNhdSgprbeNNztam+fNuNYGiouW7VRv3f248ixU8Y8kKUs5fksJX+XQrLZ5BlUXVOHgqISs5KOLGm8eNk6Y5B3ZrUK2S55F9BcSFxiai7YrS1o3LEBRc/fGQyOWBLROclxkwDpjr+icsjnaD11NHSEScqiB8xOYwNqpo5B0VO3Iu8GlkR0WqHnjv+u61C/aCosmnMkwliWbQY+C5as6ZKxIKmsEvCLqbBy7WYcPHzCmAmRnJmXz2psasLJU+ewZv22X5fGdNseN8lAb9SEadi+60BUAmkzKdEaMAPaA4eOYZsemG7aust0D9+z/4iZHYvVigyyHXn5RR06PjQXSLJBcyG5kWelrGYjpRDyznA7Zx2RGMzyjJMAfvmqjfq9cxwVFdXmvRYJxAgvLinDzj0HzVKT8ryR7DS3bXGTvG9Wr9tqStS6aibTXIgOMTUXVHkpaudMQv6tf0R+Lxno01zovPSx6+VF2XvPo3HzKrNmvyxLSaWoWltglRSg4rv3UXDX39gItYsyzTD7+FD5/YcInD2hn07Rm+0k6YUE6xJQyqApnAHT+ZKAXX53/KTZpgmkDMRkKbFoI7NAZ876TdMsGURdLotBtlP6SKzZsM3MZKU60hzt5Ok8vc80F0jqQXMhuZGg/ay+13O7kLEgmQSSGSaZBWfPFVw2M6EryLtSyth27j5gjIyh+pkp7xS37WqTmPWSRVFSWhH6lK5BcyE6xNRcaD11ENUjPkfhrT4U3t4dhXdQnZYcv1u9KBt0B+pyfkTLoT1oPX5Q6xCVgmo5sg9N6xah/K2HUXTX1fr8Z7lfF1THdFsWivSfFW8/iJYDW42BQ0hXkVkUWapw8fL1pi7/cgOl9iQDGCl/kLpVWXZLZoyime5/PmIwVOsB16EjJ0Jpq+0bJBJkL1i82qS8RjKbIlFp1OdWelbI+XE7HueL5gJJNmguJC9iAkhWm2QsdNbUFs1esAJHj582z7poGgtttGWmyTUkJvXlmuXO1+8beZ5ZEXrf0FyIDrEzFxwL6pg+IWOfQd3zWah7yoe6p/WfRvLfVNh6yov6QX9D3Yf3ovLLV1D+mdanVCqq4rPBqP/Ps6gf/E/3a4EKU/q5M6AHGj79JwI7JsNpKAk9qAjpPDW1daaedNSE6Z3qXSCdtWUGRxo0Sk+EFj3oigcycBOTRMwNKceQLuAXbqs0UTSrRBSVworBIDQRqK9vND0qho2adNHxuFA0F0iyQXMhOZEAvay80jRM7EyzRHlXSVC/fvNO88yXXgqxMrPbCCiFispqc/1NnbXootUt2t6N0uRXMsgiBc2F6BAzc8FproS1bwwC2X3Q+nkWWl/1onWQB60DM6lOKwOtL/vQOPCPKHvsHyi486/w3/4XKtV0x19QdO9f0TDor/qeyUJAzrvr9UB1WIP18+f97mj9yQe14TPY5QdCTypCOkdTc7OZ8Zk4eU6njAUpL5AltmRmvLauPiEyAWRJyKLiMmzcssvsV9u2ysBv1vzlplN4pOpwkwE5L9t37TcD+PPPnZtoLpBkg+ZCciKmtvQv6Ey2nDzLJUNNVnOQzAcJ8uOFGBrSnFiaRkoA3/bMkutsfO5s7D90zPz/SEJzITrEzFywyw/B2vw+1KSroX7xQn2kB/WvZcJ6+Uqqi2p50YPKh7vD3zsz2KyOSh3dpNUrE8W3e9H8ghfWoAzXa4AKQ4OvhHo3E+p/+hk07gqo5Y/DPrfcZFcR0hlkUCRLP8oSXW4DkstJVh+QdE9Ztqur3a+jgQw6JSNDljWTwWju9PlmoNfS2hr6F+mBlIuI0SLGgdt5PF80F0iyQXMh+ZDSBTF5p89Z4nqOLiV5lsuKO9t27DOZarHOVmgPeQfKssryTpSMClkZaOOWncbAj/Q20lyIDjEyFxzYZxbDWvEkrEkeqAkZCPygB/bveaFeocHQVclMtqR5F9zsDTXKpFJJcl4rHuqOwCC5V2gudEmDroR6MxPqa/3sGe+BlaP/PvtGWIfGwmmtCz2vCAkPGWhs2rq7QzPaF0p6GkgDRVkjPJGRGSMxFGSWS/6URlzpRmVVtelSPmQEzQWSetBcSD6qqmuwcs0m/DAsvIwFyXCQoH3X3kNmhYlERJYhlobGUpon12Y0zA+aC9EhBuaCA8dqhdo3DGrezbAm6eBIBvTjMqD+49EDff33Qd3cAwGqQ1I64Gx6wYfiO7Lg7+11DVCp5FSeljTurH0qS59rGgtd1uuZUF/6oEb69HNIH89J+v6Z3B1q8wewK7ikK+kcBw8dN420OtPAUZarlA7fid63QAZ20niroqrGNJlMlFmuWCIZHFLX3JGGaTQXSLJBcyH5kKV55X51Oz/tSd5T8nzavfcQ6urqE/ZZLu9EyaiQXjfR2kaaC9Eh+uaCrWDXnoPa+BbUjL+awXxQGXqA79UDfQ+sNxg0dVVSR17xYCh7oad7oEoln8QsKr3Lh6bnva7nnQpDr+rnzKf6mfOzD9ZE/dxpexblZkKtfBrW2WVckJKEhQx46uobTOaBNDh0G4y0J0lJnT57sSmFiGSDqmgjzR7T0VgQpMmmpOpeagWNNtFcIMkGzYXkQXryyPNo9oLlHXoenS95Nm3augsVlVURW3UhWsi7JprvG5oL0SH65oLVAjt/Dazlj0JN6XGeuaCV7YEapgf7n+nAif0XuiQ1KAO1T2ahqD8zF1JGPaUkwofKB32Q5p1u553qoAZrva+fNT9qjRNjIZi1EFQG1Px+sPYPh6Oa5G0WengRcmlkXfEDh45jYu5vzQ47IjEWJCX14JETZmaGJAfFJWU6mFpqzp/beT1fNBdIstEZc2EWzYW4IP1uNm/fgzHZM1zPTXuS4HjOwhXGmFBxbN6YKNBciA7RNRfEcWqpgX1gFKz5t8DKPW+2sE3jPVBDfFAfeGG9wgCq88pA0/M+lNzpY2lEiiivpwfFt/lQ+4S+P1zPOdUhibEgfRa+yYIaI30WzjcWglIzroO16W04tfmAzcaO5PLIzFF1TR1mz18edq+FUeOnYfX6rXFZ8ot0Hll2U5ZDk2XR3M7r+aK5QJKNsM2F4RPN86+klOZCLJFyASnRksa6Q8LIWhBTdMqMhaYBJI2FIDQXokN0zQUroAfrZ6E2vAlr5t8uGtD/qnGhzu1v6oH/YBoMnVXroExUPOBjaUQKqexuHxqf87meb6qDeiMD6ossqLFZ+nmTefHzRzSlO6zlj8H2rzfZVoRcjqamFhw/cdYsIek2CGlPMtsnM0c1elCTCMtNko7jLyg2K2Z0ZKlRmgvpiXiFbanccn//puimd0eCzpgLcxeuRElpRegTukbbMZNUfQmgf1PwGNKIDSKleLv3HQ7f1J4wzTyT5FiSIDQXokN0zYXWOjhFW2AtfRDW1Kv0IL7bxYN6UY4e/I/1QH3tg3o9w3R0dw0SqEtKZrdrHvei6FYv8mQZw/OCVCrJZEoislD5UBZaXmK/hU5JGsW+lgH1qTRwvISxIJKsqgX9YR2UVSMaQg8wQtrH1N8vWhV2vavMNu09cIQDvCREupdL1klHGnfSXEg/JPaVUikJPCQAlHNfUVGt/6xBbW29+XkizxiHby5kY/7iVeZZ2FXEOAgEAuaYlejP8xeWIM9fiILCYhSXlqOyqsZsn5g06U5hcalpINyR8qzztXDpWvO75DdoLkSHqJoLTkMJ7KNTYc3pCWuyDpDaMxdE2ToIGK2DgM+9NBi6oMbnvCi92+cesFJJo7ybMlF0W5YpiZClRt3ONXUJibHwqgfqI/1MGSINHC9hLLRp5j9gbXoXTm0eYAdCTzFCLiagA4Tjp85i+NgpYa0QIasMrFm/FdV6QEOSj7PnCsxsYYfMhRE5WLNhG8rKK03A2VVJUNqZmVuaC5FFzkFLS4sOqCtxQj8D9uw7bJrjrVizCQuWrDYN9qQPwYy5SzF9zhJMm73YNG6dof9bmh9K1pI0gF29bgt27N6PYyfPmOBcznG8J+Y7Yy4sXLoGpfoaDwc5hrLyjJgGh46cNMdv6Yr1psRCjtnUWYswecZCTJ6+wPw5deYicxzluMoxXrV2M7bv2o8Tp8+Z1WvkeZwuyP186OhJY16G8+4ZmzPTrA4hx538Bs2F6BA1c8GRVSKqjsHa/iWsade6D+Yvkg4GfvZCfaz/lM7ubkEDdUm1vOQxs93SCNAtaKWSR2X3dkfDs/p+oNHWKan39LGTcqtxHTAWcrrBmnoNrGUPwyneBrTWh55khFyMzKJt1ANit8HHpTRFD5KPHj/NrIUOIOnQlVXVOJtX0CFJyYJ0Pw/n2Cr9HZLSfeTYqQ5p3aYdHSqJEElfBgmOVuiB64bNO7usrTv2mhlw2eZwoLnQNYIz6srUuJ88nYfd+w6ZjJQlOhieOXcpcqbOw5iJ003Q0ZFrQwJCKScYPnYyJkyebUwH+azNW3eboFFm7Zv1OYsH4ZoLUu+/ePk6Y6B1BAls5d/KvbRxyy7zu2IcjJk4wwTLbt9xoeS+kmtZypPErFm+eiO27dxnVt2prq5N+V4CYkSJQe12bC6lpas2oKCIWQsXQnMhOkTPXFBNsIu2QK16xiz1ZuVc4T6oP1+5WuMzoX7QQcH7XvZf6IQCgzJR+0QWim7vbhoCugWtVOLL38eHqkey0PwCSyI6I/WGB+q/+jkyqgPGglE3/fzRx3pOL9gnZsJp5EuYtI8MZGfMWeo6+GhPEnhs0gGEGBPk8sjynAcOHcO8Ras6pGUrN2DP/sNoDXR8Zk6CuJ17DmHStPkdksz+uZ3bWEgCKjEJxCwIB5oLnUNmw6WUoaCwBEePnTaGgmQjjBw/NawZ445KDIfsKXOxet1WE3yLmRHrbIawzYUR2Vi6cr3Z1vZoy1IQU0GM1bUbtpnSsHBT+tvT90Pl3sg1Js3mbXtw+mw+amrroFTqNWaWY3n0+CljWrodCzfJtSrZVrIyUTIteRwraC5Eh+iZC82VsE/Ng5rbJzh4l5nBiwb07pKO7upbnw4QGFiFK1mSsuEZL0rvobmQzCrs392URLS+pINjl/NMXUKvZkB9rp8fo9xXhrikpv0J1s5vYNec0i9yzi6Ti5HmYpKSG04zLRngjRw7xQx8mbXQMerqG7Fq3RbX4+mmEfr4Ll25IawBdGNjM9as3+b6eYkmmgvRR4I3CUrlGioqKTMz4jKz/mMHs1UiJenrsWzVRhQVl5nzJ9sVCzpjLizX21nRjrkg2Uf1+j4+l1eIxcvWmXvU7XMiqezJc7Fl+x5TqpEIpSaRRPZn87bdxohy23c3iYkzffYScy2Ri6G5EB2iYy7ou9mpPgVr7xCoKdLI0WUQfwmpHK1RmVBfeqFe1T9jWngYykDz815UPdzdzH67Ba5UYsvfy4PSu7LQ+IzHmEXu55lylTRw/NgHNbyDfRbOV043qFz9u6ufh120DY7iy4NcTGVltRlQhzN7KYPwFas3XnKGj/wemgu/F82F6CMBw6kzeViyfJ05BkNHTorYDHs4kmeLlAlI6r80f5XmkLEgfHMhByvXbkaFfiZeiBgL0pBRyhZGjJtqnoHRyPi4UJIhJsav9GiQMhMJyFMFKeFavHy96363JzkW0mshVtdQskFzITpEx1yQfguFm6DWDYbK+YMeuHc8a6FNaqIOEoZ7oT7xwpIGj26BBOUqme2ufdyHwn5ZrsErldgq6ONDxYNZaH7eA/Uyr/0OSzIWPtDH7EcfrAlSihVm1oJ5TunPmHcL7FNz4TRFZnktklqcOHnW1Fq7DTzakyxXeVz/XhPTUjsMzYXfi+ZC9JBSJSnBkd4Hk6bNw3B9rGKdreAmMTbG5842M/Ed7WvQFcI1F6RpqZRxSG+UNiQzSzIZZJulVEGMhViYChdKzJlJU+eZfiVi6qbCKhOHj57EtFmLXffXTXLcR0+cjpLS8pTvRdFZaC5Eh6iYC7KUm318BtSiO2Fl/9/QoN1tMH8p6UH+xEzT6V196DEzkq4BBXWRZHWBhmc8KLkzC/m93ANYKjHl7+VFYT+fMYdaX2RJRDhS7+rnxbdeqLGdMRZEweeUmnotrL0/w64+abKwCDkfGTSPC6P2XlJYpembBDAsieg4NBd+L5oLkUWCLWmQKQGbXGeTZyzAsDBKnWKpiZNnm4ae0e7X0hlzQXooyHZJ6UZDY5PpRyMrZ4zPmRWXrI/z9cOw8aZZ5LqNO8wSjMn+/BWjZPSE6a776ibJWpDVS+S8EHdoLkSH6JgLdQWwdn8Pa8Z1epAvmQtuA/mOSY33QH2nA4b3PGzw2EEpLZn1rnggC/4+XtcglkpMyfkqucOHxme9XIKyoxqkr/k3MqC+0s+KUfpZkaN/5vIs6Zi66d+/Amr967ALt5gsLEIE8ZkkxXbx8rVmUO028HCTzNzJ4KW5hVkL4UBz4feiuRAZpGdKXV0DzupjIg1WpYmipOy7HYdEkhiUO/ccNNd3tHowhG0ujMwxjS5llZaq6loc1NeMLCf5U5xNhQs1cvw0Y4LISgux6l8RSWSbpSnmgiVrwuq3MDZ7pukbwuUn24fmQnSIjrlQvB3W2kGhQX5nshZ+kxKN1kHD1zpoeMPjHlxQF8mURjyRZWbB83vRYEgWFfT1ouxeH1pe1Nc8+y10SGKmqU/180HKqCaF2WfhIunn1cT/A2vxPbBPzgEUHX8SxKT7VlabWl63QUd7kuBFur+n01rskYDmwu9Fc6HrSJBWU1OHXTpIlxUL3PY9kSUrlsi5jFaKe2fNBVkKdsu2PSZLwO3fJYJGjpuK1fp50tQUPXMmWlj63SPGyNRZi1z3rT1JNk5+QZHpf0HcobkQHaJiLtjHp8FadBes7P/nMngPX8ZgGKkDhy+0BunB/wXBBXWxAjowbXw2E8W3eeDv7R7IUgmmXh4U9fei+lGfOX9u55W6QIP1s+ED/VwY6oOa6HF9foQtybaa8TfY+4bo6KMk9FQj6Y4M6I+fPIOcqXNdBx3tScwIqUlmSUR40Fz4vWgudI222d9lqzYEeyr8Ev+eCuFKgnlZDrO2riEqAXK45sJPw7OxYMlqs6KGZGhJGYLbv0sESf8BKWfbtGUXWlrDu4fijRjTh4+dNEa12761J8kiiWamSypAcyE6RNZc0Bew01oHa8dXsGb9s8slEefL9F8YpoMI6b/wiv6ZW6BB/SqZ9W5+IRNl93pRcLNLIEslnnp7UHKHF/XPZLmeU+oCvZIB9Y5+JvzggxrX1YyF8yXZVvrz1r8Kp2R36OFG0h0JTLbu3GtSTd0GHW4aogffC5euMYNDDu/Cg+bC70VzoeuIwSdL+Y0No2eKm6TZ43B9vUlQvXj5OqzbtB07dh3AgUPHTZaSNG89ceqc+fOw/vvufYdMvbwE4rICRGcbHMrvjRg3JWrd/8M1F8z26OMgpscPYeyT9GKQUgUJfuUe37FrPw4eOYFjJ87g5Ok8HNd/ykoPu/cdxsYtu0wpmpSFhLP8r5ukpGDi5Dk4cfpcUjXXFTNErttwMkOkifAKHTSnQiPLaEJzITpE1lywA7Arj8Ja9SysyTpA6mJJxIVS4zOhftLBxPte0xneNeCgflVgYCaqHvWZ2XA2dkx8+U1JRBZaXqS50BGpt/Tz4D8+qDHSwFH/zOWZ0Vmp7P8Ltfhe2CdmGdOUEAlal65Yb4IKt0GHm6T5lgQVJHxiYS5IDw2pvd+8bc9lJZ+dPWWO63e7SQKoqTMXYvX6ra6fF6527D5gBsIqzBRnmgu/R9LEJcgPN8CXWXoxBuYtWoV1G7ebAF8ymfwFxWY1AunjIMdajEQxMSSokz/lGpOGelJSlZdfiP2HjmGNviYmz1holrp0+65LKXhdLUK+X9LdI5sNFa65EK5Gjp9qMi9k//fsP4LTZ/PN8oq1dfVo1QG07I/MssufYubKcZOlf+UYS+NNCbDnL16FMdkzOp0lIedxnv6MgqKSpCkXkGfaomVrw7qH5Vrdvmt/6BNIe9BciA6RNRdUE6xT86Dm99eD/StcB+1dkg4gTIPH/2VBvSsZDDQYLiU16EozCy4NAv292Xch0VXUPwtVj3aHGux1PZ/UbzINHD/Xz4KRWhE2Foyy/x/UrOth7fwGTms9DQZiBroSLIbT/E1qXiWYIOETC3MhHCTAkVlqt+92U1s9ujS6iyc0F35PIBAwPRdkiT63fT9fPwyboI9brpk1F0NCgrU8fyEau9B9XwyH+voGk+UgRoXM4IdrdIjBIPsgnxNJomEuSPmJ3JtT9LNTsoQkm0PMhM4g97aYQ5LNIP0HZHa+M1kgYjDIuayprQt9cmLT0NCI3OkLzHa77Y+bps9egqPHT4c+gbQHzYXoEEFzwYHTUg21/UuomX+PaEnE+ZJAQo31Qn3lg3qTDR4vJbNqxIs+lN/rM40C3QJaKnFUcldWsCSCpln7kpUhXtH6xAM1LErGgiinWzD7atVzsCv1IJurRqQ1MptWXVOHUWEGAnMWrDCBHQkfmguRgebCxciyhMtXbWz3Xpafy4owY7NnGFNB0vXlOEa6dr2krAIr127RQXLHz02bxJiQRoqRJJLmwvdaEgxLnwPpc1FUXIbWQGRWLZCMAzEZJANBruvOGAxiTsh5TfR+BLbePgmApSGl2360J8nwkGNELg3NhegQMXPBsVphV52CWvowrKlX6wF6ZEsificxGKQz/Odar2XqgINNHtuTzIJXPdIdhf19rgEtlRjy9/Ki/D4fml7wwh7M67ldDc6A+sAD9aO+9ydEss+Ci8RgWNDfZGNx1Yj0RlKbC4tKwyqJEC1ZsR6l5RWhTyHhQHMhMtBcuBi5n6WkwS0wlb+LiSgrC0jw3tjUZJq5RiMIlVUAyssrsXHLzrDT/OVZtGvvoYhuVyTNBek3IwHuydPnzD3ZVvIQKcRgkFKTtRu2d8qckf4LUt5S3xD53hWRRDJtCgqLTRNSt/1oT8tXb0RlVU3oU0h70FyIDpEzF5qrYJ1ZBjX7Rli5EerafilN1AHGzz6oT3xs8HgpDb4SdU8FSyPcgloqMVRwSxaqH8lC6yBm47QrMRbe0ff9d16o0dJnIcP92RApSWmXNKbd8RXslvgGCCS+yOD45KlzYQ9i12zY1qUU6nSG5kJkoLlwMRLkVlRWmetryIgcs88S3Estv2QSnDqdZwJXOXbRRowLubYkQyKctHcp2Vi5dnNEr69ImAuyXRMmz8HWHXuNIRut+1EQg0F6NkhfG7nfws1gmD57sWnAmchI48njp86aEhC3fWhP6zbuiMn1m+zQXIgOkTMXavOgdv8INe1PemAe5UG/kQ40xulA4wcfrHe9TCVvT4O7oel5L8ru85nVCNwCWyrO6ulB8R1ZqHtKB80v8zp2lSw5+Xom1Nf6GI3Uf2brn7k+FyKpbrCmXgO14glY1afhWJFJ6STJh9S8Hjh0DMNGdXyAJ8GKNCCLdNO1dIHmQmSgueCOdOCXBovS+E5WgJmnAwbJBCguKQ+7aWZXaWpuNgGkNICV4NztnLhp1rxlZnWFSNFVc0ECL9mmfQePmus+Fs8+pSxT5iLNdsPphyOS7I9Va7cEM1NCn5do1Ot3jxzPcN490udiy/a9XCmiA9BciA4RMRccW8Eu3QO1agCsKT1cBulRUk4G1GgP1H+zYEn/hcEMzC6UpNi3DvSg6hEf/LcweyERladVfn8WmgYwa6E9qdcyoD7W9/oIrZgYCyHl6u+b3RNW3io4LUwxTFdqauuxbee+sLq7S3ApHf5J56C5EBloLrRPsz42Muu9aetuUwIhKxTEA8mkkIax8xevDmuGWs6TPJciRWfNBckYkJ4Akn0hDRul7CSWyHnL1/enNN4MJ/tDtlsaH5ZVVJlGm4mINJ2ULJBw3j0SAO/cczD0CeRS0FyIDpExF/Sg2z69EGpOr9iURJwvYzB4oT7LgvV6pmtgku5SgzNQ95QPxXd0N7PkbgEuFUf19aHm8Sy0vkRzwU2mgeP7GQhIGdQkfY/nxiIz6jepqddC7R0Gpy4/9MQj6YbUrkqJgzR5cxtwuEnqtvfuPxL6BBIuNBciA82F9pGgXpoMJkJgKbPn0mAwe8o813PiJrnG5JqPVC+DzpgLEqBLwLVizSYUl5SFPin2iMGwdcc+k4Xitp3taVzOLBOIx8tYuhzBd8/WsN49oyfMMOeRXB6aC9EhMuZCzWlY+4bqQfgf9WA8tgN/kVlBYpgOPD7QgQf7L7ioG5oGeFF+f3fk3ZTpHuBScVPR7VloeMYLNYiZNxdJ+iy8r4/Nj1lQk7yu93/UNaUHAqtfhF1+QEajoaceSSfKy6tMc0ZpUuY24HDThNw5OHj4ROgTSLjQXIgMNBcuTSSbDHaFYPZCsykrcDsnbpLAftb85WjUgU4k9iNcc0G+X67zzdv2oLyiKq4lYLKqQl19A2YvWB5WaYmUG8xdmLjBYlkn3j0TJ8/FoSMnQ59ALgXNhejQdXNB39B20VZYG94ILt0WB3PBKNujAxAxGDzB/guD9M/cgpU0VctLHlQ/loX83lySMmEkWSS9pCSiO5qfZ9bCxdL38dteqG/0fT1WH58YZyz8qly9DfP6wj67GE5rfAMFEh9KyyqwYMmasFJuJ09fwHXGuwDNhchAcyF5kAwKadIYzsoAU2YuND0HpLlhVwnXXJDa/tzp83H2XIHpfRBv5PhJmYj00XDbXjeJESHLZQbNkfjvw4V06t0zYyGOneC7pyPQXIgOXTYXnNZ6WCdmQS25Tw/E4zT4F0ngMVYHAd95Yb0rgZr+u2vAkp4KDMpA/dNeFMmSlDqgdQ12qZiroI83WBLxIkt6ficxB1/3QH2l7+kR+n6O9soQl1JuZrBR7f5f4NScCT35SDpRUlpuZrdk+TK3AYebps1aZOqPSeeguRAZaC4kF7v2HET25Lmu58VN2VPmmhUPAqrrfQ7CNRd++mUiZs5bZppgJgpyn8oSmG7b256kz8VRHYwnYsDYmXePrIJx4hTfPR2B5kJ06Lq5UJsHa8+PsGZdrwOAbu6D85gpA2qkDkiko/wbEqzRYDhfTQMyUXYvzYWEUW8vim71oeFZHwIDea3+KjEWpM/Cpz6oXzywJsbRWDDKgMr1mewsydKCw+7/6YYMniVdWQbTbgMON82Ys8Ss8R5rpHZY0qSlQVw81NwSmeCe5kJkoLmQXJw4eRYz5y51PS9ukln37bv2R6RnQCqYC3L/b9yyM6wygkS5V93ozLtHrp94vHuSEZoL0aGL5oIDu3gHrI1vmiXbzNJtroPzGCpbByXDMxH4TJan5Gzw+Wp9MQPVj/qQ38drVihwDXipmCivpwf+vl6U3puF5hcyoVjGE1SbsfCeB2pYFqwJ+h52u89jrgyoxffCOjEbTqAp9Pwj6UJRcZnpKv5jGAM8GRCeOhP7JqDSVE1SYg/q4DAeOpdfGNqSrkFzITLQXEguCgpLzKoLbufFTdI4drW+T+Q8d5VUMBeEA4ePmWvYbZvdJFkB0qtBsgQSjc6+e07H4d2TjNBciA5dMBccOHYA1qm5UMsfDXZxdx2Ux0ETdCDwiw5OPhCDIYP9F0KS2fH6Z7wo7J+F/F7svRBPiblQeIsP1Y92R+tLNMF+lSwn+66+d78XYyHO5RDnK6cb1KwbYO0dAqe+IPQMJOlCYVGpqW2WGmO3AYeb5ixYgTNn/aFPiB0bt+zChEmzzSAoHlq0bG1oS7oGzYXIQHMhuZDrJZxgR/ozLNb3XCSu+1QxF2RZ0XmLOl4a8cPQ8Rg9YTry/EWhT0gckundk4zQXIgOnTcXHBtOc5UebA+FmnezHnxf4T4oj4dytCZkmgaP1ns6QBGDwS2QSTPJagRNL3hQdl8P+Pt4uSxlPNVLlgbNQsOz3blKxK/Sx+EtL9TXWbDGeBPHWDDqBmvatbA2vwendE/oIUjSBRngSZOs8AZ4y/UAL/azR2vXbzOBtts2xUJzF64IbUnXoLkQGWguJBdSWrRG38Nu58VNQ0dNwuz5yyMS7KSKuSDNGeXec9vm9iT7Ij1y4rnihRvJ9O5JRmguRIfOmwu2gl19Ctamd6Fm/C2xzAWRBCZjPVD/1UHKO5nBGVHXgCZ9pLRaX8pA1WNXobCfj+ZCvGRKInwovy8LzS/qYJq9QYJ6PRPqM308hiWasRDSZL1dK5+EfWahef5J9hZJD6Qb+9RZi8JOTT11Ji/0CbGD5gLNhfOhuZBcSO+EcALjISOyMXXmIjQ2dr1cL1XMBTkWe/Yfcd3mS0n2PdGCxmR69yQjNBeiQ+fNBdUMy78OavljUJO768F3AvRbuFA6QFHDdbDypQ4KTINH/bM0l5RG1D3THcW3szQiXpJ+F4X9fah6OAutA3ldGr2SAfWhB+onjylrsnIT8Hmin3Fqfj9Y+4fDaalhY8c0oqikzDRoDGeAN8M01aK50FloLkQGmguJj+M4ZhnEltZWfd03YM36ra7nxU0S4OdMnUdz4TyUPpbHTpwxy0y6bXd72rJtD6rjfL9eSDK9e5IRmgvRoXPmggyqm6ugDo6Dmts7lLWQgMFA7pVQ2ZlQQ71QH+ugZbD+mVtgk0aSxoFNz3tQdo+PpRFxkxfFd/hQ+4RPnw+aCyar6G19n/7gC/ZZkGVl3e7neCvnD8Esrc3vwZYlKU32AkkHikvLTeqxDKbdBhxumhan5cBoLtBcOB+aC4mBbdvGQAgElMlOkFVVJECRMojaunqUlVeaXgGHj54095DbeXGTpMtPmDzHfE5XSRVzQZBjOWxULr4fOt512920au3mhGvqmEzvnmSE5kJ06Jy5oAfVTl0+1Ma3YU3/sxl0uw7GE0RqvA5cfvJAvctATiSz5ZUP+VDYz2saC7oHwFS0JKZO+b0+ND6nA2mX85NWEmPhTX1vfuM1ZUyyKoPbPZwQyrnCZGmp5U/AKtgEqOgEMSTxKCmrwDw9oAhnrfEpMxaa2bNYQ3OB5sL50FyIP2IqyIx4nr8QB4+cwNbte7FCBzSyQoFkHUgzQbl+5RxJ8BLOc0Zm58fp80Vz4ff4C4sxcfKcsLIXpBltfkFiNXVMpndPMkJzITp0ylxwAg2windALboH1uSsUOaCy2A8UZRzJdTYTKjvfVBvM4NBGgjKrLnMnrsFv1R0VXiLF1UPedHyQpqbXW3Gwlc+WKP0fZmdwMZCSEqeJfP6wjo4Hk5zNUsj0oTSskosXLpGD/A6vna6DGwP6UAi1tBcoLlwPjQXYocxEXSwIsuxHjx8Alt37MWKNZtMMDJ9zhJMnr7APBfGZs/AiHFTTTNGSXcPZ3b9Qsnvjs2eiYaGxtBWdJ5UMhdkm2bPXxbWjH8irrIg754FSfLuSUZoLkSHzpkLjSWwjk0NpgibmcZErI++QNJ/YYx0ovdBvZVpmhu6BjxposbngrPnpjTiguCXiq6Kb/eh9nGv6X/hdm7SQoN0kP5aBtSnHrNsbDIYC0ZSGjH9OqhN75nsLdiB0FORpDIVFVV6ALLRNE9zG3C4SWYjZaAea2gu0Fw4H5oL0UH6JEifA0mjP3n6nLnXN2/bbcwEmWmW5QPH5czCLzoY6Yp5cDnJZ4+huXAR5eWVWLJiHYaEEZRLOYGsGJFIyMoXy1Ylx7snGaG5EB3CNxdkCcqq47C2fAwl3dMTPWvhfInBMMIb7Ej/ehrPGg++Ei0vZprZ88JbuGpETNXbi7J7fWh4Jo1LIgZp6WtQfRBs4Kgm6r+73a+JKHneTekOteQB2CW7gUBD6MFIUhkJEDds3mECRrcBh5uk3nfnnoOhT4gdNBdoLpwPzYXI0draipraOh1Ml+H02Xzs2X/Y1OlLA70xE6fjxzAbCEZCNBfcqays1udmiw7KO/7MnjRtPo4cOxX6hMRAnh/yHEmGd08yQnMhOoRtLjhWK+zCzXpwfd9vg+0LB+AJLJXdLdTgUWtw+hoMgYGZZva8+DaaC7GUv68XVQ/70PxCGpfnDNL34LueYJnSBK/rfZq4CmZpqZl/g31yNpymMnkqBh+OJGWRhms7dh8wacxuAw43SaAhtdUywxlLZPY0Z+pcjBw3NSKSoD2cWTOaC0HRXEh+gqs42GYVB+lpkJdfiC3b9xgzYZh+FkQzI6GjorngTlV1DdZt3B5WUD4hdzYOJth1L++e7Uny7klGaC5Eh/AzF5rK4RyfAjXtz78bbCeT1ETpTK+Dm3f1nwP19rsFQCmvDDQ+40XZPVySMmbq5UFBP6/pdxEY6IGdpuaCekPfd9/4oEZ7XO/PhJc0dsz1wdrxBZyak/qhyBd4qiPpz1LDKgMLtwFHe1qng8tmHdzFkrZAqF4HG5FQebmUhHR88EVzISiaC8mPrOpQWFyKjVt2YfKMhRg5fhqGjux6n4RIiuaCO9L7YuPWXWGZC+NyZuLAoWOhT0gM5FkuhkcyvHuSEZoL0SH8zIXKw2ZQLY3NktFYCCoDaowH6rs0bvCo97n5eQ+qHspi34UYyd/bg5K7sky/C/VyGmbNyH32WibU5/q+G55EfRYulMnWyoBa9jCcoi2AxRd4qiMBmqRBhxOgiaRPQ2V1TehTkpPGxmasWb/Ndf/cRHMhKJoLyYntOGa2+NCRk2ZFh6kzF5mSB6ndTxRD4XzRXHCnprYeW3fsM2aQ27a7aczEGdh3MLF6FciSpafO5KXluycW0FyIDmGZC5JiY+evhlr5lA4M/t/Fg+5kUrYOckbpIE8aPL6pAz3pXO8WEKWwWl/ymFn0wn4+M6vuFhBTkZO/jwcVD3UPlkS8nH7Xm2ng+KG+54Z6YU1IUmPBKFQaMeNvsI9PN9lcJLVRyjKN24brANZtwNGe5i9ebYLSZIbmQhCaC6mN3OOyXOSR46f09b7VmArhBnThSLr/y4oRkoov3zV7/nKzFKI0hMydvsD1d9xEc8Gd2roG03cgnHICaYS498CR0CckBkopfXzL0vLdEwtoLkSHsMwFW5agPJINNeffkK7pFw+6k0xSHjHcB/WpVho2eJTZ88bnfCi+M8vMqrsFxFSEJCURt3hR82QWWgem4bX2SgbUe/p++0HfaxP0/rvdj0mlblA53WDt/BpOVWKlUZLII8Z6bW09ZMm3H4Z1fPZSlp87euJ06FOSE5oLQWgupC6NOlDI1+dX6tQnz1iAH3+JTGNGCfylhGK4Pvay/GT2lLm/MxLWbtiGHbv2m5IryYwqKi5DdU0d1m7c7vp5bqK54E5dfQN27T2U9OaCvHukiahkVYSTOZMK755YQHMhOoRnLlSfhtr6CdTkLDO4dh90J5dUdgYCP+mA532PCYDcAqOU1eAMtLzoNbPpMqvuGhRTEZG/txdFt2WhcYC+1tIxa+HtUJ+FiT593yVz1kKbuul9+f+gVj4Ly78WDvsupDwSgMzQA7ZwanhlvfGduw+EPiE5obkQhOZC6iGBmxyfo8dPm4BfjAC349FRtZkJP4/IMUHIqPHTTHPVxcvWmUaQ8j2SASW18Jdqtrd52x7Xz3cTzQV3pLRFnr3hmAtiAO0/mHiTBfLumTprUViNdVPh3RMLaC5Ehw6bC/IYtPJW6cH0M2Zg7T7gTk6ZBo/SuV462A/S++YSHKWkBodWjXiqOwpu1kEwSyOipoKbvSi/v3v6ZS3IyhBv6PtKyo9GpYqxEFLOH6Dm9oY6Ogm2ago+KEnKIrWvUoMtqcxugw43yUBkxZrNoU9ITmguBKG5kFpIcC+NWmVFAdlfCZTdjkVHJUG+mAqSmSAZCYePnjRGgnyHXJPSHDKgFCzbvqSxINBc6Doy279tZ3g9FxL1upfrR55t4ZRGpMK7JxbQXIgOHTQXHDhWAGr/SKj5/fTAOrXMBdOcbawOfv6rJf0XZB1+t0ApBaUGZaLx+SwU3S6lEWzsGC0V9feh9snuCKTRtSVSr2RCfZ4F9YvXZAm533/Jqm5QU66G2vY57JozoWclSVUkOJDlKKWjuNugw00/DJtggu2m5ubLBhSJCs2FIDQXUgcJ8CXwF7NQ0s07m7Eggf24nFlYuHQNtu/aj1On81BYVIrKqhpjKki9fGegudB1ZLWITWGuFiGz/VKikmjIu0eaU0pZntt2uykV3j2xgOZCdOiYueBYcOqLYG18B2r6X10G2SmgHOm/oAOgL3ywXpOGe/pnaaEMtA70oOx+yV6guRAV9fKi5E4fml7QQXY6GVfSZ+EDH9QQfV+NTzVjoU16v1Y9B9u/NvSwJKmKNHyTrt2Tps1zHXS0pykzFqKgqASWZYU+KbmguRCE5kJqIIGW9DZYs2GbuWYkOHc7Bu1J/v3wMVNMTfvq9VtNMJ7nLzQ9WWw7MkEczYWuIwbP6nVbTTaJ27a7SRppHjmeeH0KxKQ6duKM6dnhtt3tKdnfPbGA5kJ06Ji5YLXAKdoMa/ljsEy/BbdBdgpIyiOG6WDoIx+sNOq/ID0Aah7vjqL+NBeioYKbfai4PwutL6eRaSXGwjueYAPHcalqLIi6wVp4G+xD4+DYAf2w5AxBqmLbtg4UazBj7tKwApJxOlCTruUy+5SM0FwIQnMhNajSQeeGzTtNPwS3fb+UxFSQho+Sbi7BnjQNtCw79MmRg+ZC1ykrrzT3qywh6rbtbpKeOidPnQt9QuIg757yiipMn71Yn2/3bXeTeffs1e+eQHK+e2IBzYXo0DFzIVAPSw+erQX9YOWmQqf39qUmSINHr2lAly7LU8pseuOALJTc4WXfhQgrr6cHRbf6UPOYDrLTabnTtzKDZUbjvbByUttcUDOug7X5fdiNeoDlRH6gSRIHmfVcvEIPWMNorCWDkXmLVpmmXMkIzYUgNBeSH5nB3bZjn1n+0W2/25OkmMt9LOf/9Jn8qBuFNBe6TnFpOWbNX2a20W3b3STLN57LLwx9QmIhBoOU34RTwiPXrOxTsr57YgHNhehweXPBVnDqC6E2vg1r5j/0YDqVAwWtHB1sj9eB0TdeKB0gmUApDVLZpTSi/D4fCvp6ka8DYrdAmQpfYi6U3ulD4zNe2C7HPSX1pr5/vvRBjfGluLEQlFk9Z8XjsIu369Fra+jBSVIVCU7GT+p4cCKD/9ETp6OistoMEJMNmgtBaC4kN2Is5BcUYdqsxcYscNtvN8mylNJnRWrxZZlIKY+Kdg07zYWuI/er9FAI51wvX7XR9MxIVDZt3a3P9QzXbXdT8N0zAxVVNUn57okFNBeiw2XNBSfQoAfNO6CWPghr6tWug+uUkw6I1CgP1FfnGQwpLqVV86g3WBpBcyEy0sfR39eHygez0PJCmpREvJYJ9am+b4Z6YWWndpbTr5JsrgX9YR/OBvTzkqQ2J06fMwNqt4FHe5IByb6DR1EfgQAg1tBcCEJzIbmR2dsl+vwNH9vx4yDnUO71k/qel+A9VgEazYWuId7PmbN+s1KEHB+3bXeTrBwi5QeJypHjpzBt9mLXbW9P8u45cOi4vj64opUbNBeiw+XNhcZSWCdmwJrTC9ZkWUrOZXCdisrOgBrmgfpMB4Wvp4fB0PCM18yy5/2bvRciIVMScVt31DzuQ2BgGpREDL4S6kMv1I9a49PEWDDS53bWP2Fteh9OQxFgs3lSKiN9F6TLfDiD1p+GT9RB90rToT7ZoLkQhOZC8iLH4GxeAcZmz+jwTLakn0ta/dHjpxEIqJh23Ke50DWkbOXQkZNhPaNFO/ccMH00EhXpI7FkxXrXbW9PPw3PxrzFq1BaVhH6FHI+NBeiw6XNBceGU30a1s5vYMkqESneb+Eijc/QgZJHB0yetGjw2PyCFxUPZCG/j881WKbCkymJuKcHGp71mcwQt2OeMhJjQfosfCvlEPp+cbufUllTr4Fa9gjs0n1wAsk3O006jqRF79i1H8PDCNZkkPvL6MkmUEm2xo40F4LQXEhepImjzEqHs3JAzpS5JtsoHvcrzYWuIeUrW3bsdd3m9iSmk2QGiJGUqMi1uGX7HpOR4bYPbpLrQxqRHj95NqH3LV7QXIgOlzQXHKsVdsluqLWDYE3p7j6oTml1gxqbAfU/jw6cdMCkAyjXwCpF1DooE9WPZ6Hw1u4sjYiEentR9XB3Y9q4He+U0msZCHzlgxot2U1pZkKKpmTBmn8L7LNL4TQnbloliQwnT+dh5tylroOPS0mC9GSbQaK5EITmQnIiGQdy7rInz+1w1oL8u606OJUgNR7QXOga/sKSsGb4jfmr749zeQWhT0hcjp44jckzFrrux6W0fvMOVFRybHIhNBeiw6XNBem34F8HtfQRWLnS9b2b+8A6haUmZUCNlc73ev9f0z9zC6xSRLJqRP3TXpTc1R3nbsx0D5ipDqvglizUPuFD68AUL6uRPguf+KBG+tKnz8KFmqyfD3NugnVsMpzGktATlKQqMhMqzbXcBh+XkjSG23/wWExTrLsKzYUgNBeSE5mtPXLsVFjGghgRefmFcWuCR3Oha0iG2OTpC1y32U1SAjNl5kIUFiduM8c2Sssqw3oetyl7ylwcOnoy9CmkDZoL0eHS5kJrHey8lVCL79UDaB00pKG5IFI6YFKjvFCf6wDijdQOFGWWvfLhHsjr5WP2QmcVOm7Fd2ah/mlPavdbeEXfGx/oe2OID9bE1F8Zol3leqBm/RPqwGjY9Yk/+0G6RkApk2YqAZsM7t0GIW6S3gsSACdT7wWaC0FoLiQnNTV1JgvBbT/dJOdNSiikt0q8oLnQeWRVkO0792HYqI6XDgwZkWOeNRVV1aFPSVzkfhaTQJZD/n6o+/64Sf697GNlEuxjLKG5EB06ZC5YaW4uiIzBMEwHUZ94U7rBoyxJWftElpl1vyhopjosf28vyh/MQtMAfd2k6lKmgzOg3tNB9Xfp1sDRRWIuzAyaCw7NhbRAyhvmL15lGma5DULak6yxL8tZKiVN4kIflsDQXAjiLyw2qw24fbebaC4kBkXFZaYBq9t+ukl6o8jqENG6jjoCzYXOIwaBLCkZTuAtAaM0gGxoTPwVFSTrTZbLnD57icm4cNuf9jRp2nzs3X8Etp08mXPRhuZCdOhQWYS1LH3LIs6XMRh+9JmO+KbBYwoGjYFBGWbViOI7spDfyz1wpi6jXl4U9POhRkoiXkpdI8o0cPyvDqrH6D9z0/vZYJ6Ps2+AdSQHTkNx6AlKUplGPRA9fPQkRo6bGlb2gqybP33OEjMTLrNsiQ7NhSAFRSXm892+203SPHDthu2orIrfDLiQ7ubC2XMF+ppc6bqfF0ru41Hjp5lzFq+SCIHmQueRZ/LUWYtct9dNcvxGT5yOkrIK06w3GZAVLXbtPWSMsHBMFHkmzdOBsSy3Gc/rO5GguRAdLmkuQLXALt4Otfp5WJOz3AfV6aRcHVCN08HUt16otz2wBumAyiXoSnY1D8hEuawa0ZtLUoatnsGsheLbfWh8NoVLIl7LgPpK3wcj9f0gSzG63S/pJFmmd24f2KcXwGnikk/pgMwg1esAeNqsxWF1oRdJoLdgyRrU1TXATvD0BZoLQYpKyrBizWbX73aTSbVeuwUVlfFNQ053c0HKl6bO7Fiw+eOwCSazKN4z2DQXOodl2Vip79FwrnXJMBKztzGJgkUxBiQjSvoohJu9MHrCdKzftN3sb7L0/pHNlH1WlhXxbaa5EB0ubS6YpShPwNr+Bazpf9LBNYMIK+dKqNE6qPrGB5Wi5RGtL2ai5vFQaUQvGgxhScyFvl6U3etDywtSEpFi5sJgvT+mgaO+B37xQE1M83KINk29CmrJvbCLd8AJ1IceoCTVaQ0EzGBcAhK3gUh7koBguA6Gd+w5iNq6xL5eaC4EkTKY1eu2un63m6TGedmqDWaWMJ6ku7kgzRwlHdxtPy+UlDhNnrHAZCXFE5oL4SPGQlFxKabNWmSOidv2ummsPnbbdu5LuiWC5b7evG23PvczXPerPf0gmRoTpuPUmby4lv6EgzRllWwiyUKK9L1JcyE6XNpc0DiNpbBPzICa++9gR3S3gXW6ScojRujg6gufCbRcg7Aklsy2NzzjQfHtWWYW3jWIptzVy4Oi/j5UP5qlj2MKmk+vZkC974H6SWuc3r8c/TO3eyStlAFr1r+gNn8Iu74IsJMjtZJ0Haldramtx4Ilq80MmNtgpD1JV/pxObPM6hESSCcqNBeCiEkgPRTcvttNEqhKT454Lz2a7ubCoSMnkD15jut+XiiZBc6ZOpeZCy7f46ZEMhea9XUuz4uR46e6bmt7kqyW4tJyY04kEzKTX1ZeiVn6+Eupndu+tSe5zqfNXqyDdb8O3BPbVBED/1x+AeYtWmVW9BCzMJIGA82F6HB5cyHQCLtsH9Sq52BN/7PLwDpNNSETaqgX6iNvyhkMMtve/Hwmyu7NQkFfmgvhyN/bg5I7vKh/2gf1cqplLehr4+0MqG9pLPxO0m9h0V2wTswyz0uSXkiapgRiUzqx9rhIGnMd1L8f79nS9qC5ECTc5UdlwC/XhDRfiyc0FzpuLsisriwXG4lAvbOEe93TXPjtGpcMsnDKBCRQlOaPEsAmS4nA+UiZwI5d+zGxg9f3+ZKVi5asWK8D90LzOYlIS2urybBYtHytKTOTa33W/OVmqVE555GA5kJ0uKy5IKURdlMlrAOjYS24NVhb7DbATjdJYDU+E+qHLKj3Qw0e3QKypFQGWgdmouoRHwr70VwIR2LGlN/rNUt6Ktdjm6QSY+HNDKgv9DU/xuN+T6Sp1Mx/wNr0Luzqk4CtQg9Okk5IacOGzTvDCuDaJAGNDNAPHz1lZkwTbZBLcyGI9MfYsfuA63e7SQbCMot6Lq8gruc03c2FYFnEPNf9dJM0aJV69lh31JfeK7X6GpNMJunj4rZtboqnuRCcAV9iyhHihWQciLmxdOV6U4rktp3tafKMhThwKLmvc8lekD4T4WbOiX7RgbKspFJQVJpQzYXleSnPcTEWFi5d87t9E9N2/uLV5pkWiW2muRAdLm8uCHrAbFceg7XxbT2Q/rseUOtA2mWQnY4yDR6lsd2bqZe9UP+UNCb0mtl4t0CauliF/X2oetiHwCAdgLsc16SVNHD8XF/nUg6Uq691l3shLTWlO6xVz8I6uxTJN+9BIsnZPL/pxC2DfbdByaUkv5MzdZ5Zv1wyGBKpk3dDQxPWrO94r4FUNRdkFu3gkeOu392efhg23syyxbMLfbqbC6ahYxirB8hxOptXYM53rJD7vb6hETv3HDLH3m272lM8zQUp7ZoweQ5Ons4zPQtibaLJ14khs3PPwbAyFkSy7SvXbka1Di6THXnGiFHitp+X07BRuTqAX4uKiurQ8sjxHcmIqdekn+Gnz+Sb+9at5ENMJCmTqKys7nI5C82F6NAxc0GwFayCjVAbXoOaejWsnCvcB9vpplwddI3yQX2hgy4dgLkGZkkoNehKNA3woOxuL/x93ANp6gL1kpIIH+qeyjIz/W7HNSk1OAPqY32ND9XKEWMhzZedlP2XZXlzPVCyTO+JGVwhgpggTmZJpVFjZwwGGezKMniSei8p+ImSwVBeXomlK9a7brObUtVckPNxSg94ww1izPmsjt9ylOluLsi+d3QpStHQkZNMgz/ppRIL5LqS2WdZWWTEuKnmOeC2Xe0pnuaCSLZ3ysxFpvwk1k0RWwMKe/YdNqUsbtt2KUkJhWQtJJKR21nEmNqtj4OUOrjt66Uk148YDLJiRr6/SJ/D2JlqbkgWoGSIjc2ZYcpu2ttmeZ5JTxv5913JMqK5EB06bi5o7JYaWP61sDa/BzUjlMEgg+x0DjZytbJ1kDHMC/VpapVHBAZ6UPVQlpmNdw2mqd+rt8esEtE4wAv7ZX1PuBzTpJMYC+/pa/tHrfHMWAiaqvrcTvsjrJXPwDo+HU7tWWO+kvRGgoTqmjps37U/tP54ZwwGHShMnIFFy9bi2InTcV0eTVJO8/Rgc5kO2EdPmOa6vW5KVXNBkMG3dJcPJwCcPX8FTp/ND31C7El3c0FS9qWu3m0/3STmkcyYFhSWRN3gk3MjmRWS+j1y/LROPTPibS6IJG198vQFZvUCWXo12gG7nBcxMiSglr4m4Rp+orUbtxtTJxWw9PEu1fsi5WvhLosskmtIzqE0TNy19yAqq2K/fK70vZDn1Io1m0yj48s9Y+X/yzNf3hHSbLez9yrNhegQlrkgp85proJduAnW9i9hLbwDauo1oUF3GhsMYrKM90D9pAOw97VkuT63QC3plIHaJ7NQfIcsSekSTFO/U8EtwZKIloEpUBIxSP7MgHpLX9ff+YJ9FtK9gaM84yZnwZrbC/aGN2Cfng+nNg+OFV+nnyQO0hirQg/MlulgRmYh3QYnHZEMYGQmSbrGy4BLTIZYzbBJOriscLB3/xHMX7Ja74dkYrhvp5tS2VwoLinDzLlLwwpmpO+CzIRHc7suRbqbC5L2vmV7eKsvDB01ycye1tTWhT4lssi9XF5Rid17D5lu/3K/u21LR5QI5oJI7gkJCiU4FMOkrr4hKs8sMT1ra+t/NRbC7bMgQamsCNJWypEqSHAuzWPnLFjR6etJriXpTyJlcCdC5zDaBpucz5LScn0+D5kMI+l54rZtbpLtHTVhmsle6eySzjQXokNY5sKvyAoSFUdgHRgFtfJJqJl/04NvHVCndbq03v+xmToQ80K9rQOxVDAYBl+JxgE+Mxsvs/JuATX1m8SEqX0ydVaJUG/o6/lLMRa8OrCW+1v/PG2ln21ipMqqEDu+glO42RitXHaSXIgMlmTWU5pOdSVoEElAOEcH63v1gF+yCKTRnASLkUaCAGkmWVpWiWMnzmC1HlxKqnE4M/RtSmVzQWb0VuttCnd2UAb8Z876Y2YQnU+6mwtilh06eiLslPHpsxebYxDJZSnl2VCvr+u8/EKzrGnwHgs/W+F8JYq50CYxGWbMWWL6IPj1c1BS9iN13cu9XVhcih27DhgjI9yMBTlWUrYWy7KXWCI9EyTjTYzpzmQwtEnMNbn+d+lzKO8dMegiacSIYSHXmmSOnDx9zjxTw80IE8n5HKa3VUrPJGOmM9BciA6dMxcExzZ1xtaZxVDrXw02epQSAdeBeZooRxo8ZkD9xwdLB2bB2d/klT24G1oGelH5kA9+Lkl5WZXdl2VKIlKh34J6PcOU+aiRWfraTndjQR+PKd2hlj8O6/AEOLIqhH7+EXIpTpw6q4PK5Z2qg71QwRml+SYgkbXJZcAuTa9kwCfNAmXw3tEZJvl30gRLBqISeDU2NemgucYsh7lgyRrT98FtGzoqmX2KBIloLkigefDIibBNIxmsS9O06uraTjVNk/Mb0L8nKwqES2fMBQncJHNFrq9k0OWC186Us4gkwBJjormlxaSed+LwG2T7ZDslAJLjKrPDP3bCuHNTopkLbfppeLbJ8hFjVExRuS/NNXyZc3Uhcq/I78lzSgJRKSHp7LGT1H8xPiTzIdargcQKOV579h1C7vT5nTKHz5f8fvaUudi4ZZcxGeQaa9bPk0BAGaOsI88j+SdyziWrT7Ir5DqQjCAxsWUpzOFjO1dCKL8j53P2/OUmY6Oz55PmQnTovLkgyABbNcIp3wdr709Q8/pAyWA8nUskcnRQNtpnOutLh31rkD4WLsFbski9nGlm44tuy3INqKmQenlR9UgWWl70wE5mc0EMsVcyoT7S1/AQH6yJ6WwsBJ9jatq1waUm/evgNJbpNyX7K5DLI0GkDIZl1tptkBKuZEAtgykJomVd80XL1pnUbVmuS2aApHTickGrDPJkUFRSUo6jJ05j09ZdZvtGT5xuBk0SEHRmoHe+UtlcEFNG6ntHT5ge1nGSfztcslD0sZZ15cPJPpHrSILSI8dPoa6u3gzqw6Ez5oL8W1n5RMoJEl079T0gM6uXWqtfjp8suRduCn0w1X+mSfWXUiEJqsJF7jn5funFMn32EnOfRcpYEMm1lYjmgkiOnyx3KJkwslziUX0Ni8HWUYNB/p0YekePncaCJav1fs4wzyi377qcpLRryswFOkguNIZsKiP3vJxHMQbcjkU4EoNB3jtS3iUrUkjjUVk1x19YbJ5HlzuWcs9ILyJ57u3ZfxhLlq9Dtn5/yfNQ7sfOvm+MUaTvJ3Nf6mdkZ6G5EB26Zi60EWiEU3Uc1rGpUCufgZr+5wsG6WmmbB2c/eyF+tgD61UxGPTP3AK5ZJCURjwXbFToGlRTRoW3+MzSnWpQci9JKiUd6l29H1LeMzad+ywEyyDU4nug9vwAp+IgnJYaPdphGQTpODIAEYNBAu5IZDCIZJAsy3PJ4EwCH5kFlQZ0Urst3bMX68Gb9HyQwbyUN0iALoGV/FyW75J/N3XmIjPwHCOmwqhJnR7gnS/5DAmeDh87Gdr7rpGI5oJ4N7JUqDTclOPvth3tSdLfpSt77vQF5tzsPXDEDLhlObW6ugY0NTcbg0hm9WTdfqlbl/Rt2SeZQZdma7LknHx/OHTGXJDgV/ZvrA7mEl250+Yjv6DYZAa0h2QeyEof4fYPEcm9JnXgco/Jedunz1t+gaSK1+nA6bflF+VPMX7knhcDSpp4Sk+F5as3mtlyuVclIHL7jgsl3yf/3u3/XahENhfaJAGq7JM8c2bMXaoDzPUmlX3/wWPm+SgBv5SSScAqS/rKqjtinMr9L88r+T25frsyEy+ZX3I+JFvrciZsKiA9COT4yrHragaDSK6zIcOzzXkUc1uMhhlzlpp326/vnLWbzTmT+0QaAS9autYYqlKmIc89MZnkueK2vGQ4ks9YuGS1yUgS86Irp5PmQnSIjLkgWPqGbSiCdW4FrM3vQ82/ObgGvOvAPQ00LhPqew/UB8nff6HlxUxUPSJ9F1ga0Z5K7/ah6bnkNhbESDJ9Fr6WcggxFtI1ayEDavYNUGtfgnVkEuyqE8xWIJ1GBiGSXSADMBmYRSKQb08SwMrMniynJytWSH3x8DFTzIBIBobR+m6ZoZT0VCmtkCZgkSARzQVBMgkk6yNn6jzX7eiI5LxIsCMDcxmUy36u3bAdazZsMwNzMS8kCJswabYpqZDfkRrqdRu3m2VKw6Ez5kIySfZL9u9S2SCSMi3BlvRBkZl0t8/piCSoETNDTLwV+jxt2LzTrJDQlkUh6eNr9TmU63D2guXI0YGd3Hsdve/k/pWgTT5HSqA60lMgXuaCbJscD7kuw3muyL8don9HjCFZYULMAzE9JTNBJD1mps1ebAJYuU/cPiNcybKTW7fvjeuSsLFGDJQ2g0HMLTGR3Y5NVyXn07xz9OfLvSjXhLx7ho7MMUtJhnNtdESSNSarv8g9H24Wlxs0F6JD5MwFg2M6p9ulu2Ht+QHWkvthTf8LrNw0XcJutAfqWy+st/T+J3GqfGBQJuqe8qGwf3euGuGm3h5UP5qF1heT2ESS6/O1jGCfheEeWNnpaCzo+3TKVVBze8Pa+hGsc8vhNJaGnm2EdB4ZBBUWlZjAUWYkuzpzkyiSGTEJ6mfNX25m2iO5dGaimgsyaJdUbakXloGm27ZEQxLMzZyz1KxYEQ40F4KIKSR13p1duvBSkgCqK0GU3EdyLckM776DR1EjaeR5BcYYvNznyv+Ph7kgQeTsBSuM0SLlCpE+ppGQHBvpISNmTaosOxkukl0jmSBS5tSZzJ1EkVmmWV9n8k6QDJdIZZ/QXIgOETYXgsgpd+ryYZ+YCbX6eajpf4WVqwMW1wF9ikqaW8rM78jM3/ovuAV1SaKmAR6U3tsD/l7MXvid9PEo7JeFhmezEBiYxJkLr2ZAve+BGuYzZT1p15w1V9+f0/5oyiCsfUPhVBzRo1G+PEhkqa2tw9Yde016aGdrhxNFEkxIWYUE2VJTHuk65kQ1F9qQOnCZEexKUBmO5HtkJlcaeoYzsKa58BvSM0MyAqTHSKzO2+XUVjIwd9EqUw7T1tdBAiiZvb9cSnu8zAXJBpDmlFXVdVi7cXvCmabG+NTHVTJJpGFtuiPX07JVG8z9crlrKpEk17dkQMg9K1lC0l8lktBciA5RMRcMjgWnuRJ28XaobZ9Dze2rB/CypN0f3Af3qapsHbSN8EJ9pPdd+i+4BXZJIFMa8WgP+Fka8TvJKhql9/QwjRyTdgnKVzKg3tPX6I9ZUBMly0jvh9u1nIrKuQIq+w9QM/8BtX4wrDML4TSWmDKvoE1KSOSQ9GwZlEgwtHDJmqQ1GKQmf9qsxSYQkf3paIO2cEh0c0Fqt7fvPtDl1TXCkQy0pfSkI4F0GzQXfo+sXLBm/bYO9z+ItsRAkJR9WaJSMpzafCPJUJGa9stlBMTLXJg0dZ7plyBmiPQB2X/wqMkKcfu38dDYnJmmZ4kc12g8n5INubbk2pdeLxMmz04ag0HKbqR0RnqYRONdQ3MhOkTPXBDEYGitg115FNahcaFmj3/RAcz/0QP7dFlRQgdqOmCTzvum/4IO5FwDvASXzMrXP5OFgluksSMNBlFeT485HlWPXpXEWQsZUO+EynfGpVOfBf38yfkDVK4XatFdsHb/D3bRFjjN5fq5xf4KJHrIrLMEQiWl5aZ7drAeNnbp9V2RzEzKEmdSXy5r9cuSmNEi0c0FOY+SsSGzaTLgjNVMuKR4SxPIjkJz4fdIkFVUXGZmtKU3SazO2/mS7xw1YZppgCflRNLE88JsFEnjl94b0ivF7TPaFC9zQRqMynGUbBDZdnkWSNNM6UUhJRPxOK4iMWxn6mBUeg3UpPCSk51BzlV9fYPJfpJVH+S6SWSTQfrayPPOX1hilsAMJ2Oro9BciA7RNRfasBWc2rOwTy+EtfkDqNk3QUnQbZasTAeTQQdw0uBRB3DqXR3AJWGDRzUoA80veFByV/dg9oIOrN0C7vSSF0W3+VD3THdzfNyOW0JrUKiB41f6uhyVRmVLOVfoPzOgZlwHtepZ2EdyYFccghOITCM6QjqCDJQkIJDZP2kMJ7MzEiDHa1B+KUkAJytMrF631awGIcvJXWrpv0iQ6OaCIIFqaVmlSbWPVd25NL2TVSY6Cs2Fi5HZdskMkPM2LkdKlGLTL0DqxiXTRfoU7Np7yJRBtLfdksovDT5l5tbts9oUL3NBsiqkYaB9XsAnK3YU6eMqGQPyPItUQ8aOSIJkKc2QQFEMG8lYIO7Ic0uuvd37DptGwxNyL19+EyvJvSjnUZ7lBw4dR3llNawoZp7QXIgOsTEXDI5Zys0u3glr1/+gFtwGS9aPN80eU99gUDndTACn/qMDuTd1IJeEy1PK7HzlIz1QcLPPzNq7B9xpIr3//j5SEuFD0wv6vCbh+VSvaH2mt/2XdMpY0JqcBTX331Ab34J9dlmwDMLhEpMkfshAWEyG1TqYlk7pMriS7tvxMhrke2XGVDpzS/d6GXwdOnLSzLDGaiYwGcwFQWYDa2vrjUEkaeEy+HTbvkhJZvPCWe6T5oI7ErBIcCxZONJIMZrGnnyuNNOT2X7JmJClF6XB5KWQa2rbzv0mu8LtM9sUD3NBvlNWdQjofbjwaSCmqZgMEuDLErhSPiHnKFrHVoJReU5JBphkEUnGR7SNz1RB+uQYM2jXfrPaj5ToyLmSsje3Yx1NSfbe+EmzzXW1Zftes5yrXF/RhuZCdIihuRDEsS3YTRWwjk2DWvkU1Iy/6gF/egQ2xmAYEWzwqFyCvUSXzM7XP9Mdhbf6kOcWcKeRTElEPx8qH/Kh9aUkzFqQPgsf6utwmNeU7bhdrymnXL3PYiwsuBVq17ewK47qEaYMSJk2SRIDCVRlRml7aLAnqdNiMkigLzNL0Rqgi4LLWE40wczI8dPMMnEbNu+Av6DYpKTGmmQxF9qQWuCjx0+bruySFi7p2ZE4X/IZcu6HjMg2A3AJAGRGr6PQXLg0EgyfzfOba0eCVMkUiMQsrpw3yWSR+1can8qSo7KdbQ0bL4esSHLoyAmT6SDnvj39rO9XuSbk33eVJn3vSDmB7P+lJN+5ZPn60G+1T2NTE06dzjPlHbIf8ntyTLq6YoEcW7m/JNAT82Ldxh0oLatgb4VOIkabLCF84NAxLFy6xjQclmeNXF9yvqPx3gmew+D7Rp7dcxaswJ79R1BZ1fGSr0hAcyE6xNxcMDj6ARBogO1fC7X5fahZN+jBf5oYDNmZUL/ooE4aPCbZ8pQyO9/0ghcld2chv7cvrUsjxFwout2H2id8yVcSMTgD6m0P1A8+WOPSyFiQ1SBWPQvrxAw4DYWmXIvGAkk0xGCQmT+ZiZSaZkmfltRVCSCi1YSubZmvuQtXYNuOvaafQkNjownYgk3mYn+fJJu5IMhsdHVNnTEZ5i9erQeiXZ+xlQG+NGCTVTlkVrlEB1HSTLKj0Fy4PDLTLT0DpNxESn8kc6irpRKyXTPmLjUlAhL4yjKtMlPc0VtJTAg51+s2bjdL2LanVWs3Y9PW3WFdE+0hx1AyDiQ75lKSLAExQC+HPDdkn6XhY0FRCTZv34OpMxfiZ31Nux2zjkiC3eFjJ2OBvr8OHD6Osooqs900FrqGnCu55sRgkutVjIal+pmTPWWufgZF9r0jz0Qxm+YsWG6yFMTAFnNDls2M9XmkuRAd4mMuGKRMohp2yS5Y+4ZDLbnfDP7NknApXiahxocaPL6ffCtItLyUiYoHg40dJcB2C7xTXrLfvb0ou9eHxuf0OXQ5TgkrMRbe0tff13q7x3jMaiZu12hqKPQcmdIDal4fWNu/gJ2/Gk5DUchYICRxCQ7MlRl0SaqvLCV24tRZUycrAYcEm5LdIA0Wx2bPMMH1hbNN8qf8XWZPpf5ZDIRJ0+abemiZTZSa7h27D+DYiTMmVVuaTErpQ2sEApWuIkGJpMZKk7iO6Fxegel/EO8gQ75fBp4SGJ7W27VzzwHT5E7OlQzUZVAts3XBGdzxRnKOJBgdM3GGPp8LMG/RKqxcu+XXcyODbwmiJAA2AWrouzqCbI8Etmf18XE7bsku2S/Zv66ed7nfJECXXgf5/iITuK7fvMP0uJAsHjk3Elicf97aZs9lmTy5r8SckyaNYghKmZOknEtTQTEvwjXo5N+LyVilt0cah15KsjxfJK57+YyGhiYUFJZcUrJfYqJ1FNl1CVzl2VJYVGquaTFdlq5cb0pSZKZcrv+2bJ+255b8bGz2TNPvRc7Duk3bzaoUcs4lAJZsDTE/SWSRZ4yY2/L8/fW9o69pWXJUjG5pmCkmk2TkSJbW0JE5F90XQ/W7SN5Jcv7kmSaZCctXb8SmrbvMvSWGYNv7RkyFcO+PSCHXpbxf3Z4tbjp7rsD0a5FJANI+cTQXgjiBRjhVJ2BLmcT6V0wttDXZZzq5XxwspIhydIA3Tjr0+4INHpNoBQmZpa99IsvM2qezuSB9J6QkouWF5FolQr2REeyzMDzF+yyY54c+NzP+DmvFE7APjIBdts/0fTGZU4QkIRKkyIBaBn0yyJfluY4eP2VSmXfvO6QD2YNmRnHrjr1mRkj+lL9LgCv/f58emB85dkoPkvKQrwNWGaCLecEa5eggwZocXxmMitFw+OhJ7N1/BDt3H8C2HfvMORLJOZKAVM6PZD1I8FSsB95mNi8GdcfkYiQDpryyymQzyDmRcyP3lwTFv563nXJvHcS+A0fMfSVd+KWsyZhAvKfaRUxTMV3kGXbi1DlT5iPXvxzP859bu/YeNM+24yfPmPMgzz3OGMceMXDEbCgrD5oN8v6QZ5lkUonpICbo+feF9AqR+0KMcDl/R/T9I2ZCUXGpMe+YaZL6xN1cMMgsYnMlrPy1sHZ8CbXoTqgpV+ngoJsOElI0iyFHB3rS4PFLr5lJdgsEE1MZZra+7B4f8nul55KUeT0zUXybD7WPexEYmESZJ69mQH2sr7khWimbsSDPjCtg5ep9nNsb1obXYIfKIBw2bSSEEEIIISRqJIa5YHDg2AHYNWdgHZ4IteyRoMEg5kLKGgw62BvmhfpEB0JJlL3Q8qIHVQ/5zOx9uvZdKLvbh4Zn9HlLon4L6r1MqB/09TbBo4Nv/TO3azKpJc8JLTEW5t0Mtfs72MXb4bTWhp4xhBBCCCGEkGiRQOaC4JgsBqex1NRGW5veMWvRm8DBrE1/YTCR/FI5OtgbmhVs8OgSECaiZEnK2se8KLrNm5alEQV9vKh60Ivm5zOTpimnelNfZ9/5oMZ6XK/D5FfIWJh6LdSyR2GfmA275iwc1cQyCEIIIYQQQmJAgpkLIcRgaK6EXboH1r5hUIvv0UGDlEm4BRVJLuliP04Hfj/owO+d5FhBwixJ+bQHpXenYWlELw8K+wVLIlpfSo5yFvWaNHDU19dI/We2/pnbdZj0yoCa2wfWlo9CTRtLAEu6xsenSRAhhBBCCCHpRmKaC4LjwFEtcGpOwzqSA2v187Bm/UsH4zqgcw0uklhSHjHaA/VfHQC+JQZD4qfaNw3woPJBH/x908tc8Pf2ouSu7mh41ofAoAQ3FwaJsZAB9YkXaoTWxFTss6D3SVaDkNVm9g6BXbITTmsdsxUIIYQQQgiJMYlrLpyHzELaZ5fA2vw+LFlSbkr3YFDhGmwkqbJ1IDhKB4BfdId6I/FnxGXWXmbvC/tL9oJ7IJ6KEjOl4uEeaH4x8U0gJQ0cP/RADfVB5aSgKTclK2g4rngC1tFc2DWn4dhs2kgIIYQQQkg8SApzwaCaYVccgZIyiQX9YU29RgcYEjClTrNHlXMlAr94dUCYGWzwOEj/3CVoTASplzPN7L3M4stsvlsgnnKSkohbvKh9qjtaBya+AaTe19fSj1lQk7yu11tSSwzGeX2gNr8Hu2BjcIlJQgghhBBCSNxIHnPBNHsMwGmqhH16Eay1A2HN/Ecw0EihZo8qOxPqJx/UBx4dwCewwTA4E80v+FD+YPdgaUQaZC/4e3tQdKsXjc9JSUQiZy1kQL2tr59v9XU0NpWMhW7mXldTroG17FFYB8fArjoOsGkjIYQQQgghcSeJzIUQOohwmitgF6yHtfNbqEX3QOX6QgZDKmQx6MBwrASGXqh3PSZQdA8g46zBUhrhQc0TWWY2Px3MhYK+XpTdm4UWvd/G+HE7Lgkg9Xom1Ff6+hmhr58cvZ2u11myqRuU/lPNuQnWpndhn14ApzYPjmqWh0Lw2UAIIYQQQgiJG8lnLoSQtevtsv2wDk+EWvUc1Iy/mfXtrZwUMBikwaMODNXXXlhv6H1K0Np+NSgTDc/5UHybz8zquwXkqaTC/l5UP5Zl9tvteCSC1Cta0sBxmNaEVOizEMpWmHo1LFk1Zvf3sAs3wWksY7YCIYQQQgghCUTSmgsGKZOoL4R9dhnUxrehpNnj5KxQFoNboJJEmpChA0QP1KdeWK8mqLnwcgZaXvSY2XyZ1XcLyFNGskrEHT5jpiRsNskrGVDvZkIN8UGN9+jrKMmzFsQozNX3wIzrTNNG+2gunOqTwTIIQgghhBBCSEKR3OZCG3YAdsVhM6upFtwKZRo9pkA6uBgMQ6U8Qu/PK/rvbgFlnKUGZaDqse5mVt81KE8R+W/2ofy+LLQOlFIV92MRVw3WejsT6rssqAlek/3iek0lmdTM66E2vAk7byVgBfTNzhIIQgghhBBCEpHUMBdCzR7thiJYJ+fAkjIJ6cPgEqwklzKgJuqA8Xsv1NsJOluu1fBsFopvS2FzoacHRf2zUP2oDtwliHc5BnHXW1JGo7dvrFz3yZ+xoOTaX3A7rP0jYFccAiz2ViCEEEIIISSRSRFzIYSt4DSVBZs9bvkIal5fWFN6uAcwySLpvyANHv8jBkNizpq3DPSi7B4f/H1S1GDo6TElEfXPZMEa3M31GMRNsprIa5lQn+nrY3gKZCxIGcSsf8Fa8yKsU/Ph1JxhGQQhhBBCCCFJQGqZC2201sEu3Q1r/zBYKx6DZZo9SqlE8jZ7VCN08PiFNHhMvGaC6uVMVD3sQ2G/FDUXentRfr/PLL3ptv9x1WB9/D/S18YQHZRPTFZjQe5LrWnXwlp0J6xtn8HOXwOnqcIYhoQQQgghhJDEJzXNBcG2zFJ19vHpsNa/AjWnZ7DZY1sg4xrkJKhy9fZKecTPOoj8xGsa97kGmvGSDnDrnvKZ2f08t+A8mdVTVonIMqtEBAYlWOaIGAvv6OviB31djEvGlSFC96IYf9P/bJo2WgdGwC7bC8dq1TcxyyAIIYQQQghJFlLXXAjhtNbDLtwMteMrqPn9YE3WwXmyGgzS4HGIDiTfTbTyiG5oesGL8vt8yO/lEqAnsfJuykTJ3T1Q/6wPynXf4yQxFt7MgPpGXw9jk3FliNA9ONkDNfPvUGtegnVmEZyGEn3T0lQghBBCCCEk2Uh5c0ECFUc1wq4+BUuyGFY8DjXlKljZ/y+41J1r4JOo0gHkeB2M/ZgF9VamDjATJ4NBZvVldr+gX5aZ7XcL1JNRef/2ouKh7mh+wav3U18vLvseF72RCfWlD9Yoj76Wk7AcYuL/NZlEatGdUHt+gF1+EE5rrb5frdCNSwghhBBCCEkmUt9cMDim27zTUATHf16zx1xpgPcH9+AnUSUN+8Z4ob7WgWVCGQwZqH/Gh5K7upvZfrdAPRlVcEsWap7woXVgAvW6eDUD6mMPrF/09Zt0fRa6BY296ddBrRkI69h0ONUnAdWob1M7dL8SQgghhBBCko00MRdCSPASaIBTsgvWvqFQyx6GNfVqlwAowZWtg8vhXqjPdXD5hpRIJIbB0PS8FxUPdjez/W6BelIplH1RfEd3NDzjQWBQgpg4Ug7xgfRZ0Od9QrL1WdDHUPqezO1tmjZaeSvh1BexaSMhhBBCCCEpQHqZC23IkpU1p2Edmwq16llYM/8eavaYPLPASgyGn31QH3thvZoYs+qtAz2oeaI7/DdnXRysJ5vEXOjlQcUD3dE0wAMlSz667HNM1dbA8Vu9PdJnITeJshZy9fZK08bF98La8xPs8gNwAo2hG5IQQgghhBCS7KSnuRDCaamFVbAZasObwdnUKT3cA6NEVK4ONCfoIPN/XhNwSuDpGpDGUDK7X/+M18z2uwbsSaaCm72oeTILrS9Jdoj7PsdMcn5fz4D6jz7fo7WSqYFjrr5OZ1wHtfJpWMdnwmksY7YCIYQQQgghKUZamwumTEI1mZpva/8IWEsfDJZJ5FzhHiQlmnIzocbqQPNbn2nwF2+DQWb3mwZkovz+kLmQzI0de3tRdHsWGp/zIjAwAUoipM/CZz6oEfp8SwPHXP0zt2siYdQteB9N1ts7pxeUlEEUbYGj7zf2ViCEEEIIIST1SG9zwSDNHltMmYR9ah6sjW9DzboeapIO1s1qEgm+okSO3s6ROoD7ygfr9fgbDK0vZqDmcR/8fX3uQXsSKK+nB/4+XpTd40Pz85nxLYmQ7xZj4SN9jod5oCYkQcZCmzk3/S+wVj0D69A42GX74LTWhe45QgghhBBCSKpBc6EN6cPQWAq7YCOsXd9CSW34tD+GgqVENhh0sDlRB8C/6OBT+i+IwRDHBo8yy1//rBdFt/lMz4JkzV4o7OdF1cM+tL6UAeWynzGRGAvSZ+E9D9SPviQxFvS9Iv1L5vWFveUD2GcWwak5E8xYIIQQQgghhKQsNBcuQIIgp+okrMMTYK16DtbMf+qgqS2LwSWYShCpiRkI/OSF+kAaPOogNE6z7WpQhpntL73XB3+fYBaAW/Ce0OrtRfHtPtQ95Y37KhGmgeM3+ryO1+fV5bwnlvQ9Iobckvtg7f4OTunuYLaCY4XuLkIIIYQQQkiqQnPBDceG01INK3811KZ3oWb+SwdOiT9rrLJ1IBpq8KgG6kDPJViNhQIvZaDqEZ+Z/XcN3hNZPT0o6OtFuSmJ0McybiUR3aDe1Ofxax/UaJ8+v4l+/WVATbkquPrKsalwavP0feSEbihCCCGEEEJIqkNzoT3EYLBaYFccNs0e1fz+weX0XAOrxJEap4PRb7N0YKq3NU4Gg2Qv1D3tQ/EdPpMF4BrEJ7AK+/lQ9XAWAoPiuErEq5lQX+jzONwHSxo4upzrxFAwo0dN+zOsrR/DLtwMp7kSsJmtQAghhBBCSDpBc+FymNUkTsE+ORtq7SComX/TwVQCB3s6EFXDvVBf+qBek/4L+mcxlpgLTQOCDRElC8AtgE9Y9fKg5M4s1D6pA/uX43P8rFcyguUtQzywxuttcDvPCSI17U9QSx6EtXco7MojcFprWQZBCCGEEEJIGkJzoSPYgVCzx/Wwtn0KteBWWFOucg22EkI6IFVDvVAf+6BejU+A3PKSB5UPSWlEcq0aIatElN/rQ+NzPtf9irpe0QG7lLV874U1Vnp96J+5neO4S2/bnJ6w1r8K6/h0ONWn4dgqdMMQQgghhBBC0g2aC2EgwZNdtt/M0lpLH4YlWQyJWioxTgeossLAu3r7Xol9U0KZ9a99Iss0RszvlTzZC4W3+FD1kA8tL0pJRIzLSmRliLf0efvKAzVWf39OAmbI5GbCmnoNrPm3wNr+BWz/WjjNFaE7hBBCCCGEEJKu0FzoBE59IezTC2CtHwxr1j9gTZZO/sHa84RRjg5Ux2VA/Udvmw5YJXB1DWijpcEZaHjOhzJZNSKJ+i4U3+ZD7RO+uPRbUG9kQn3uhRolDRz1OctNJHOhG5TeHjX9L1BLH4J9aAyc6pOA1Rq6KwghhBBCCCHpDM2FzuBYZjUJp3SvWXJPLbgtuLZ/zh9cgrJ4SgeDY3Sw+oUXlg5cY7s8ZTc0v+BB5YM+FNycPOZC2T1ZaHxWH68YmzHqVQ/UJz6on/V3J1rGQs4VUNlas26AtfEt2OeWA5KtYAfkZgjeE4QQQgghhJC0huZCZ3FsINBgZm+to7lQa140zR7VxP+jA7IEymLIkf4LOnD9VAet0n8hhgZDYFAmah/3oug2KY1wD+YTSr29ZpWIlhc8MTUXZLlLaeCoftAan1jZCsZYyM2CWnIf7L1D4ZTsCq4GwaaNhBBCCCGEkPOgudBVJIuh3g/73LJgs8e5vaEkpT1HDIYEMRmkweOPOnD90KuD2Vj2X8hAw7OyakRW4psLevsK+2eh7ikpidDnz3V/Ii9jLLypz893Pqgx0mdB/9ztHMZaYiro61jN/CfUmpdgH58Kp+q4WT2FEEIIIYQQQi6E5kKEcFrrYJftg7X/F6iFd5ol+kzzO7fALQ5SY3Wg+D+vaRjoFuRGRYOvRPMLwWyA/N4uAX0Cyd/Li9J7upslNFUMDRj1WgbU1z6o0V59nhIna0FN7g41ry+srR/Bzl8Lp6kimK1DCCGEEEIIIS7QXIgojimVsE/Ohlr9nCmTSCiDYYwOZP+jg+dX9N9dAt1Iyx4spREe1D4Z6ruQwNkL/t4eVD7cHS0vxtB8eT0T6lPJWPCZ8hW3cxZz6etVTekOa9FdsPb+DLvmLMAlJgkhhBBCCCGXgeZCpHEckzpuF22F2v4l1Nw+OmiTGekEKJHIyTCBrPrMC+u12MzOq8EZaBzgRemdWSaAdwvsE0H+vp5gScTAGJgL0vfiVR3Ef+iF+tkHKztRMhYyoKb/FWrtIFinFsBuLKWxQAghhBBCCOkQNBeihCmTKD8A69A4WMsehjX9L6EshjibDNk6qB3mg/rEa2bOXYPfSGrwlWh5IROVDyauuSBLZRbdkYWmF3SwPygGpsvgDKj3PMEylXH6HMS1z0LoepxyFdT8frB2fgu7YCMcYyywaSMhhBBCCCGkY9BciCKOaoZTc8aUSVib3oE1/2YdxCXAkpUTMoMrE3zogfVK9IPpwMAM1JnSiARcNaKnx2xXxUM90BqLrAUt9bY+/lKeMkoff7fzEyvJdZjrgZp1PaxVz8I+OAZ2+SFjjLG/AiGEEEIIISQcaC5EG1myr6XWlElYu/9nlvSzpl4dCvDil8WgxugA91sdWL6jA1yXADiSkmyApue9KL6jO/x9vO5BfhxVdKsPtU/3iEnWgmng+IUXarg32GchV//c5fxEV/q6k9VMcvV2zL8F1qb3YJ9aAKehBA6XmCSEEEIIIYR0ApoLscK2YdcXwDo2DWrl07CmXvtboHdR8Bd9KamvH+2B+o8vBv0XMtA60IOKh69CwS0+1wA/burtQ8ldWWh6MSv6q0S8mgH1kQ7oh3phTRRjQX+fy7mJruR6azMWboW1dwjs0j1wAg2hC5UQQgghhBBCwofmQixxLDjNlbALN0Nt/RRq9vU6yJOa+ysuCABjI5XjgRopDR59US+PCAy6ErXPXo2iW7Pcg/w4KE9KIm7xoeLBLLQOinJJhD6+6h19rH/Sx3q8/i6X8xF9BY0FNf0vUKsGwDqzBHZdvinfMY1ICSGEEEIIIaST0FyINWIwtNTALj8I6+BoqKUPwprWlsUQa+mAd6IHamgW1AdeM7PuGhhHQEpLsgMkSyC/V2KURoi5UHSbDzVPRD9rQb2VCfWNF2qc/p54NXCU/grStHH7F7ALN8FpKgesVrkog9cmIYQQQgghhHQSmgtxwYGjgzqn9iys49NhrX8F1pybTPDnGhRGU7I85Xhp8KgD7Pf09w+OXpDdOsiDigeygo0ddWDvFvDHVL28KL3Hh8bnfK7bGxENuhLqjQyoL3VgP0YrHsaCZMdMvRZq+aOw9o+AXbYPkDIIZisQQgghhBBCIgTNhThjyiTy18La9hmsBf10EHiVDgh1gO8WJEZJKqcb1Hiv6b+g3opeg0fJDqh5PMtkC+RdGOjHWqFVIiof8qHlxSjus/RZ+MxjGjiqmPZYCPXymNIdavaNsKQM4sRM2LV5+qLjShCEEEIIIYSQyEJzIQGQmne76jjUgTFQi+6GNe1PwdnmtgAxBlKTtUbqAFhWMnhNf/cg/XOXYLmranzWh9K7ZUnK+JZGtJVE1D7uNUtlum1rlzVYH9OP9fEc6jP9LdyOe/TUDWpKD1MGobZ+Art4O5zW2tAVRwghhBBCCCGRheZCQuDAsRXs5irYeatgbXjDzDbLig5Wzh9cAsfoSOVkQg0PNXiU8ogoGAzNL2aabIGCm7PiWhqR928vyu7JQsMzOviPxhKU+vip9/Rn/6g1LpYNHLuZa0ZJGYSsSnI0F07NacA0bWTGAiGEEEIIISQ60FxIIBwd/Dkt1bCLtsLa+5Np9qgmZ4VWk4hNFoMa7zErGqj3vVHpvyBZApItUHRbFvJucg/8Y6I+UhKRhebno1ASIcbCm/o4fqeP45jMGPZZ6AY1SX/f3D6wtnwE++wyOPWFbNpICCGEEEIIiTo0FxKR1nrYFUdgHZsKtXYg1Mx/BJs95sTAYJAGj9J48Dsv1Nv6OyO8RKVkCUi2QOndWaY0wTXwj4EK+vlQ87j0W8h03c4u6Q0d4Et5ySitbH383I5zRCXZCt2gpl0LtfQhWPuGBcsgmirEsQpdVIQQQgghhBASPWguJCq2BaexDLZ/LazN78GafwusKT2CgaRrgBlB6YBYjdYB8lc+qDd18D1Y/8wtiO6kJFug8kEf8nvHqe9CLw+K78xC/TNR6LfwegbUJx6oX/Sxy45BOYQYTrleqJn/hFr9HKwTM4JNG62W0IVECCGEEEIIIdGH5kKiI70YKo/C2jcUavHdUJO9OqiMxWy4DpKlweMnmVCvRTYAb30p05RGFPbLcg/+oyx/Xy8qHuqB5hf0sXw5gvv2ypVQH4bKSrJj1cBRn585/w6WQRRshG2p0IVDCCGEEEIIIbGD5kLC4wQNhqZyWGcWwVrzIlSuTweVMTAYpMHjEK8JmCNZHiHZAg1Pe1Byh881+I+m/L3E1PCh9onuaH1J+i1Ebr/U2/pYfZcFNU5/bq7+mdsxjZi66evAA7XoHliHxsOuOsZsBUIIIYQQQkjcoLmQLDgWnOYK2IWbYG3/AmrBrbCmXu0SdEZQuRkmUFb/88J6L3INHpUO6Jue96D8gSz4+8TWYPD3lmaSPjQ864MaGLl+C+p1fZz+oz9zlP4z2g0cJ+vvmXMj1LpXYJ1ZAkfKIGQ1CEIIIYQQQgiJEzQXkghpzecEGuCUH4B1cCysVc+YWnvT7DFqvRgyoEbrgPm/OqCV/gsugXVnJI0Uqx/LQsEtPuT3il3vhYK+wSUom1/Q+xShJSjVqxlm+U41PJoNHOX8ak37E9SS+2Dt/K8pg3Caq0x/DkIIIYQQQgiJJzQXkhHJYmgognVqHqyNbwWXHpzS/bcA1DU47YJkBYkRHgQ+98KKUP8FKY2of8Znsggkm8DNCIiGpCSi6pEsBAZFyCgRY+H9TKhhWVAT9WdGvBwidE7FQJrxV1irng2WQVQc1pcB+ysQQgghhBBCEgOaC0mME2iCXbIT1u7/QS28A2qy9GJoC0gvDFK7qOwroUaE+i/ogNoapH/mFmx3UJI1IA0VZUlKySZwMwIiLlkl4javMTWkNMNtuzos2X8pE3nPA/WDPu6mgWOksxb0eWxbDWLW9bA2vAHn3AqgsUyffC4xSQghhBBCCEkcaC4kMxJgqmY4tedgSxbDquehpl6jA93/GwxKXQPWLig7E+rnLFgf6ED6Ff33Qfo73ALvDikDgUEek0VQ1C82fRf8faQkwoeWl3wu2xOmpKRCGjh+oz9rXKbJ7nA9Zl3RxP8Da3J3qMX3Qu0bDqfqOBCo1+fdDl0AhBBCCCGEEJIY0FxIehzAaoXTWAq7eHuw2eP8frBkRYmcP7gHrZ2WDqClweN30uDRE5y570IGg9K/W/e0D8W3e01WgZshEEmZkoiHfVCD9ba7bE+HJfv8eibUl/pYjIiGsdANVrY+dzP/AbX+NVgn58KpORts2siMBUIIIYQQQkgCQnMhVTBZDC1wyvbDOjASavkTsKb+0SVw7aJyroQapQPr/+gA/a2uBeliLjS/6EXpPV6TVeBmCERSJbd7UfeUr+urXkifhU89UEP1/k+MtLGgP3tKj6BBtPM/sP3rjHEkfTYIIYQQQgghJFGhuZBqOLZZmtA+OQfW2pdhzfoXrMlZJmh1D2Y7oWwdAP+ig2tp8Cj9F9wC8A4q8HImKh/2mawCN0MgYurlQfm9PjQN8MIe7L4tHZJp4Kj3fYgP1gSP+/HprEJNG9XSh4xB5FQeAVRT6MQSQgghhBBCSOJCcyFFcQKNsMsPQG35ENa8W2BNuUoHsBEyGHL150yU/gs6yH4/E9YrXTAYdKAv2QQld0TXXCi4JQtVD2ehdWAXsi1kP9/OROB/PqjxXn0sInQ8RZP1Z878J9SaF2CdXhBcYpLZCoQQQgghhJAkgeZCqiJlElYLnNqzsA5NgFrxBJSUSUgtfyRWkxCDYYIH6qcsWO/ogL2TBoM9uBuaBvhMo8X8XtEpjci7KRPFd3Y3/R2UyzZ0WG9mQn2lP2N0pPos6POQc4XJLFHz+0Pt/AZW8U44kq3Apo2EEEIIIYSQJILmQkoTavZY54d9dhmsLR9Bzb4xmH4vQW1XTQYJsMd5of7rNTP6ne1l0DrQa7IKCm7OQn5Pd4OgK8rTn1n+QHc0Pq+30+X7LyvTwDED6jMP1Ah97LL1392ORzgKNdtUM66DtXYgrKOTYVcchiOrQRBCCCGEEEJIkkFzIR2QPgzNlbCLt8Ha+yOspQ9BTf9LKMgVk+GCwDcc5eige6QOur/0Qr2Z6R6cX0bq5UzUPZWF4ju6R8VcyO/jQ/XjWWh5qRMlEWIsvJIB9bHex5+9pt+E63EIS91M00ZrQX9Y2z6BnbfCGECO1RI6YYQQQgghhBCSXNBcSCMcqzlYJnFsKtTaQVCzb4CVKyn+XctgUGIwDPNCfar1qv68Qfrz3AL1S0hKI8rv72GyDFwNgi6o6LbuqH/Gh8CgTpof0sDxB2+wgWOu/pnLMeiY5Dh3g5r+Z6hlj8DaN9Ss7mGyFVgGQQghhBBCCEliaC6kG44Dp7UeduFmWFs/gZpzkw54uz4br3J0AD7UB/WhFypsc6GbKY2ofrw78ntHru+CGBV5+s+y+7LQNKAzxkIG1Jt6f/7ngzXWo/ezq8dJf96Ua4JNG0/OgVNfZM4HIYQQQgghhCQ7NBfSkbZmj1XHg80eF98bWq7SLSDuuNR4D9SPPgTe1oG4lBOIXIP2i6UGZZrsgsLbursaBZ2TF/l9fah+QkoiwjUXMkwWhjRwtEbp/elqA8dcfWxm/gvW9q9hF23nahCEEEIIIYSQlILmQjqjpEziHKwzi6DWvwI165/BMgm34LgjkvKIMTqI/sYH9ZY37AaPTQM8KLs3ZC5EoDzC39uLotuyUP+sF4GB4W2L9Xom1Cd6X4br4zGxs8ZCWxnEX6GWPwHr4DjYVcfhtNbRWCCEEEIIIYSkFDQX0h1bBZs9FmyEteMrqEV3Q029VgfFElB3ohdDdgbUSC/UF1lQb4SXLdD6YiaqH8uCv08ESiN6esznlN2bhebnM6HCyKKwXs2A+tADNUTvR1eMBclWmNsbauNbsE7OhVOXD8emqUAIIYQQQghJPWguEINjWbArjsA6OAZqxVOwZv4jlMUQnH13D6DbkRgM0n9BVlh4reMZA5JdUP+sD4W3ZiG/VxcNhp4eFN7iRdUjWWh9KYysBVkZ4j293d95oaSBo9v+XU5y3KZdC7Xwdli7voVduClYBkEIIYQQQgghKQrNBfI7nMZS2GeXQW18E2rWv3Sg7O3UahIqO9OssGBWWhisf+YWyF8gNSgDzS9kovTe7ibroEsrR/Tyovg2H+qf9pnPdfs+N6m39Pb+R//OaL3fYTdwlGyFTFgzroNa/hiso5Ph1Oab7BBCCCGEEEIISWVoLpDf41hwWmthVxwySyVKmYQ1pQesnD+4BNOXUK4O1Md5ob7Vgbo0eHQJ5C+U0mp5KcNkGxTc0gVzQf9eQV8vyu7xoul5T4dLIkwDxy/19o7Q250dprGQcwXUpG7BMogtn8Dyr4fTXE1jgRBCCCGEEJIW0FwgF+PYcFQTnNqzsE/MgLVuMNTMf0BN/L86kA4ji0EaPI7Uwf1XOmB/Qxo86p+5BPXnS0oj6p7OMlkHnS6NkJKIfl5UPeRDawdXiZDsisDHXqhhUg4h5SD65x2SPh5iLEzuAbXsEVgHR8MuPwCnpcYcR0IIIYQQQghJB2gukPYRk6GhGHb+aqgdX0PN7w/1a5lEx0wGaYiohnmgPvVBvXL58gQpYZBVI0rv9nW+saOURNzuQ+0T+jsvVxIhWQ2hPguBn7xQ48MwFnKugGnaOPtGqPWvwj45G07NabPMJyGEEEIIIYSkEzQXyGVxAk2wK46apRTVonugpv/ZBNWuAbeL1AQdvP+sA/13M6Fe0T9zC/LPkzRgrHzQZ7IPXM2Dy6htlYiGZ/V3vnwZc2FwBtQ7Hqj/dQ82cMwJoxxCykUW9Ie140vYhZvhtFTL0QoeNEIIIYQQQghJI2gukI4hMXNrE+xTC6DWvAhr1j87bjDk6gA+RwJ4Hey/rf/bLcg/T2pQJmqfyELxHZ1YNUL6LdzsReVDPjS/qLfvMqUYpoHj11lQ47I6bizkZkJNvRrW0gfN6hp2fYE+PlxikhBCCCGEEJK+0FwgHcdxANUEu2QnrJ3fwJrfD2qSlBF0pEQiA2q8F+q/Wm/p37lUk8XBGWh8zmeyDzpTGlF0mw81j/sQGHSJfgv6+9WrHqjPfFDDpdQjDGNBlunc+Casc8thN1XSWCCEEEIIIYSkPTQXSNg4gXrYFUdgHcmFWvmMDrb/boLuyy5ZKQ0eZSWGL3Uw/8alDYbmF7ymNEKyENwMhPbk7+VF6T0+NDyjv6e9kggxFqQc4mMP1BCtCZczFmS/9L+fei3Uojth7f0JdvF2OMZYYNNGQgghhBBCCKG5QDqFY7XCqcuHdWYxrC0fQS24FaojS1ZOzIT6WQf0n3pMI0XX4F8rMDATNY95TRaCm4nQniTTwZREPH+Jkgj9c/Wu3obvvVBjJfNC/6w9yf6Ypo03Qa15CdaRHNiVx+AEGoKZHIQQQgghhBBCaC6QLiCrSbTWwy7ZBWvvz1DLHoKadq0OyjMumcWgxmVA/agD9vcuZTBkmOwDWTUiv5e7kXCR9L+TJpC1T3jROrCdkggxHN7MDJZnjNbf3245hN5+2YfJvqBxsvVjWGeXwmkqZ7YCIYQQQgghhFwAzQXSdXSwbTeUwDo5B2rNC1DT/hwM0C9pMOgA/38+WNJ/wW0FicFXovn5TFMa0dG+C/5eHhTf6UPjc572SyLe0N/7uQ9qlBdWdnvGQkiT9fYtuRfWgVGwKw7BUU2hHSaEEEIIIYQQcj40F0hkcCw4LTWm2aPa8R9Yc3rqAF36MLRTJiH9F8Z6ob7SAfybF2cZ2IODpRG1j/tQcEvHshf8vT2oeDALzS+0Yyy8kgH1gQdqmP7O9oyFNkNkxt+g1r4EJ381nIYiwGqRnQzuKyGEEEIIIYSQ30FzgUQOUyZRB6fyGOwjObCWP/5bFoOLlA7wZaUGWbHBNHi8wAyQ7IPGZ70oubO7yUpwMxR+lf7/BTf7UPtkFgIDxVzodvHnvZ8J9YPHfK/b9hhJtsLCO2Ht+s40bURzFWAHZOeC+0gIIYQQQggh5CJoLpDIYys49QWwTs6F2vAm1NxewaD9gkBeiSZmQP3kg/rI69p/ofkFyUbocdnSCH9vL4puz0LTAP1Zgy7+HPV2JtS3nmADx1z9swu2RZo2WtP/DGvlU7AOjYNdcRhQzXpnaCoQQgghhBBCyOWguUCigoTkTks17IKNsKRMQpZwnHZ1cMnK3wX13YL9F77zmhUcfm8KdDONGWuf7BFckrK97IWeHhT09aL8/u7638tnnGcuSAPH1zOgvtafP8oDJc0mf/1+KYHQf596FSwxQNa9DPvUfDj1hXrjaSoQQgghhBBCSEehuUCiix2AU3sO1pHJUEvvC2YHTJJVGtoC/CuhcnXwL/0XvvVBvfb7rANTGjHAh6JbL2EuaBX296HmyR5Qgy4or3g1E+oz/dkjpIHjBcaG9FeYejWsRXdA7fgv7NL9wSUmCSGEEEIIIYSEBc0FEmUcUyYBafZYsB7W5veCWQJShpD9W7NHNSkTaowP6qssYwj8ln2QYbIRyu7LMtkJbsZCfi8vim/3oXGA/t1B8jshibHwkf7MYfq7Jl6QsZBzBdT0v8Ba8yLsEzPg1OYHmzYyY4EQQgghhBBCwobmAokNptmjrCaxC9aBEVDS7HFyDx3ki8EQKk+YmAnrFy/Uxz5Yr/9mMEgPhZrHu6Own9eUQFxoLhT09aH8/iy0vhQqqxikP2+w/r33MqF+8MIarz/HZErI92hN1t+x4DZYO/8D278WTkMxYLFpIyGEEEIIIYR0FpoLJLYEGuFUnYB9YhbUulehZl9vgv1gNsGVsCZkQv2kg/8PPVCvZoQyEaQ0IgvFd8iSlBdkL/T0oOhWH6ofyzIlFG1ZC+od/Tn/9cAa21aCETQwTLbC8sdgHRoDp2yvWT6T2QqEEEIIIYQQ0jVoLpDY41hwmipgF2yCte1zWAtvD/Y+CBkManzmrw0eVcgsaB3oNaUR/r6+35sL//ai9O4sNDzr+9VYsN7Uv/+V/v2RXv15GaFsBf3/Z99kmjZap+bBqfcDVmtogwghhBBCCCGEdAWaCyR+2Bac2jxYh8ZCLX0AanIWrNwMIzXWB/UfL9QbwQaNanCGyU4ovNWHvJ6Zv2Yt+PtkofLBLDS/5A0aC6/o3/1U+ixotTVwzPVAze0Da/uXcIp36e+1QxtACCGEEEIIISQS0Fwg8cW2YDdVwTq3HGr9qwhMvTZoMORkQg33Qn3hCzZmfLkb6p/1oeQuMReCWQt5N0lJRBZqnvAh8HImrMEZUO/5oH7SmhA0FsSwUEsfgnUkB3b1SWYrEEIIIYQQQkgUoLlA4o80e2yugl28Hdbu76EW3QU17dqgQfCz16z4IBkJzS96UfGAD/4+PpO1ICaDlETUP+1BQLIbpBzifz6osfrPyd2h5vaG2vQerLxVsOukDKI59IWEEEIIIYQQQiIJzQWSOKhGOJXHYB3JhlrzAtSsG6HGZ0F974V6x4PWlzNR85gXhf2D5kJ+by8qH/Sh6XlP0Fj4Uv+7sVrTr4Na9jCsPT/CLt4Ju6XO9HkghBBCCCGEEBIdaC6QxEKaPTaUwDqzFNaWD6Hm94eacI3pvxB4MxP1z3hQGiqNKLzFh5rHfWh5xQP1mdaoHlCzroe1dhDso5NhV52Aw5UgCCGEEEIIISTq0FwgCYmjWmCXH4C1/xeoJfdBTbgWgS+8aBzkRcX9siSlDyW3+8wqEYGPfFC/XAU180aoze/DLtgIp7k69EmEEEIIIYQQQqINzQWSoDim+aJTXwD77FKotYOhxvwNLR96UPOUrBrRAxUP9EDTa5kIDPkz1MJHYR0YDaf2jCmvkD4OhBBCCCGEEEJiA80FktjYATjNFXBKd8Pa+h0CE+5D/Vt/QdkDV6FmQHe0/NwX1uoPYZ9ZCqcuH7Ba9C+xFIIQQgghhBBCYgnNBZIEhLIYKo7A2pWD5pxXUPvB7Wj46WEENvwMu3CbWW2C2QqEEEIIIYQQEh9oLpCkwqkrhjq6Bs1LR6B1+wxYFWfgWK2h/0sIIYQQQgghJB7QXCBJh+NYsFUzHEvJX0I/JYQQQgghhBASL2gukCSFpgIhhBBCCCGEJAo0FwghhBBCCCGEENIlaC4QQgghhBBCCCGkS9BcIIQQQgghhPz/27FjAgAAAIRB/VNriL0QA4BELgAAAACJXAAAAAASuQAAAAAkcgEAAABI5AIAAACQyAUAAAAgkQsAAABAIhcAAACARC4AAAAAiVwAAAAAErkAAAAAJHIBAAAACLYDyDQ6AvR00nkAAAAASUVORK5CYII=;labelPosition=center;align=center;" parent="1" vertex="1">
                    <mxGeometry x="20" y="266" width="127" height="41" as="geometry"/>
                </mxCell>
                <mxCell id="78" value="" style="group" parent="1" vertex="1" connectable="0">
                    <mxGeometry x="190" y="402" width="80" height="60" as="geometry"/>
                </mxCell>
                <mxCell id="75" value="" style="strokeColor=#dddddd;shadow=1;strokeWidth=1;rounded=1;absoluteArcSize=1;arcSize=2;container=0;" parent="78" vertex="1">
                    <mxGeometry width="80" height="60" as="geometry"/>
                </mxCell>
                <mxCell id="77" value="Google Cloud Public API" style="text;html=1;align=center;verticalAlign=middle;whiteSpace=wrap;rounded=0;" parent="78" vertex="1">
                    <mxGeometry x="10" y="15" width="60" height="30" as="geometry"/>
                </mxCell>
                <mxCell id="84" value="Internet" style="image;aspect=fixed;perimeter=ellipsePerimeter;html=1;align=center;shadow=0;dashed=0;spacingTop=3;image=img/lib/active_directory/internet_cloud.svg;labelPosition=center;verticalLabelPosition=middle;verticalAlign=middle;" parent="1" vertex="1">
                    <mxGeometry x="346.82" y="840" width="86.37" height="54.41" as="geometry"/>
                </mxCell>
                <mxCell id="85" style="edgeStyle=orthogonalEdgeStyle;rounded=0;html=1;labelBackgroundColor=none;startFill=1;endArrow=blockThin;endFill=1;jettySize=auto;orthogonalLoop=1;strokeColor=#9E9E9E;strokeWidth=2;fontSize=12;fontColor=#000000;align=center;dashed=1;entryX=0.105;entryY=1;entryDx=0;entryDy=0;startArrow=classicThin;dashPattern=1 2;exitX=0.5;exitY=0;exitDx=0;exitDy=0;entryPerimeter=0;" parent="1" source="102" target="3ZfG_3-aHI2Txs_DAWEP-419" edge="1">
                    <mxGeometry relative="1" as="geometry">
                        <Array as="points"/>
                        <mxPoint x="390" y="740" as="sourcePoint"/>
                        <mxPoint x="390.02500000000003" y="640.0000000000002" as="targetPoint"/>
                    </mxGeometry>
                </mxCell>
                <mxCell id="86" value="Firewall policies&lt;br&gt;rules" style="sketch=0;html=1;verticalAlign=top;labelPosition=center;verticalLabelPosition=bottom;align=center;spacingTop=-6;fontSize=11;fontStyle=1;fontColor=#999999;shape=image;aspect=fixed;imageAspect=0;image=data:image/svg+xml,PHN2ZyB4bWxucz0iaHR0cDovL3d3dy53My5vcmcvMjAwMC9zdmciIHhtbG5zOnY9Imh0dHBzOi8vdmVjdGEuaW8vbmFubyIgd2lkdGg9IjIwIiBoZWlnaHQ9IjIwIiBmaWxsPSIjNDI4NWY0IiB2aWV3Qm94PSIwIDAgMjAgMjAiPiYjeGE7CTxzdHlsZSB0eXBlPSJ0ZXh0L2NzcyI+JiN4YTsJLnN0MHtmaWxsOiM0Mjg1ZjQ7fSYjeGE7CTwvc3R5bGU+JiN4YTsJPHBhdGggY2xhc3M9InN0MCIgZD0iTTAgMGg4Ljg5djIuMjJIMHptMCAxNy43OGg4Ljg5VjIwSDB6bTAtOC44OWg4Ljg5djIuMjJIMHpNMTEuMTEgMEgyMHYyLjIyaC04Ljg5em0wIDE3Ljc4SDIwVjIwaC04Ljg5em0wLTguODlIMjB2Mi4yMmgtOC44OXpNNS41NSA0LjQ0aDguODl2Mi4yMkg1LjU1em0wIDguODloOC44OXYyLjIySDUuNTV6TTAgNC40NGgzLjMzdjIuMjJIMHptMCA4Ljg5aDMuMzN2Mi4yMkgwem0xNi42Ny04Ljg5SDIwdjIuMjJoLTMuMzN6bTAgOC44OUgyMHYyLjIyaC0zLjMzeiIvPiYjeGE7PC9zdmc+;" parent="1" vertex="1">
                    <mxGeometry x="257.5" y="657" width="42" height="42" as="geometry"/>
                </mxCell>
                <mxCell id="87" value="" style="shape=mxgraph.mockup.markup.redX;fillColor=#ff0000;html=1;shadow=0;whiteSpace=wrap;strokeColor=none;" parent="1" vertex="1">
                    <mxGeometry x="406.00000000000006" y="689" width="20" height="10" as="geometry"/>
                </mxCell>
                <mxCell id="89" style="edgeStyle=orthogonalEdgeStyle;rounded=0;html=1;labelBackgroundColor=none;startFill=1;endArrow=blockThin;endFill=1;jettySize=auto;orthogonalLoop=1;strokeColor=#9E9E9E;strokeWidth=2;fontSize=12;fontColor=#000000;align=center;dashed=0;entryX=0;entryY=0.5;entryDx=0;entryDy=0;exitX=0.75;exitY=0;exitDx=0;exitDy=0;" parent="1" source="75" target="8" edge="1">
                    <mxGeometry relative="1" as="geometry">
                        <Array as="points"/>
                        <mxPoint x="990" y="257" as="sourcePoint"/>
                        <mxPoint x="727" y="160" as="targetPoint"/>
                    </mxGeometry>
                </mxCell>
                <mxCell id="79" value="" style="strokeColor=#dddddd;shadow=1;strokeWidth=1;rounded=1;absoluteArcSize=1;arcSize=2;" parent="1" vertex="1">
                    <mxGeometry x="220" y="280" width="130" height="60" as="geometry"/>
                </mxCell>
                <mxCell id="80" value="&lt;font color=&quot;#000000&quot;&gt;Workload&lt;br&gt;Identity &lt;br&gt;Federation&lt;/font&gt;" style="editableCssRules=.*;html=1;fontColor=#999999;shape=image;verticalLabelPosition=middle;verticalAlign=middle;labelPosition=right;align=left;spacingLeft=20;part=1;points=[];imageAspect=0;image=data:image/svg+xml,PHN2ZyB4bWxucz0iaHR0cDovL3d3dy53My5vcmcvMjAwMC9zdmciIHhtbG5zOnY9Imh0dHBzOi8vdmVjdGEuaW8vbmFubyIgd2lkdGg9IjE2LjQyMDAwMDA3NjI5Mzk0NSIgaGVpZ2h0PSIyMC4wNDk5OTkyMzcwNjA1NDciIGZpbGwtcnVsZT0iZXZlbm9kZCIgdmlld0JveD0iMCAwIDE2LjQyMDAwMDA3NjI5Mzk0NSAyMC4wNDk5OTkyMzcwNjA1NDciPiYjeGE7CTxzdHlsZSB0eXBlPSJ0ZXh0L2NzcyI+JiN4YTsJLnN0MHtmaWxsOiM0Mjg1ZjQ7fSYjeGE7CS5zdDF7ZmlsbDojNjY5ZGY2O30mI3hhOwk8L3N0eWxlPiYjeGE7CTxwYXRoIGNsYXNzPSJzdDEiIGQ9Ik04LjIxIDBMMCAzLjQydjUuNjNjMCA1LjA2IDMuNSA5LjggOC4yMSAxMSA0LjcxLTEuMTUgOC4yMS01Ljg5IDguMjEtMTAuOTVWMy40MnptMCAzLjc5YTIuNjMgMi42MyAwIDAgMSAxLjAwNSA1LjA2QTIuNjMgMi42MyAwIDAgMSA2LjM1IDQuNTZhMi42MyAyLjYzIDAgMCAxIDEuODYtLjc3em00LjExIDExLjE1YTguNjQgOC42NCAwIDAgMS00LjExIDIuOTMgOC42NCA4LjY0IDAgMCAxLTQuMTEtMi45M3YtMi4yNWMwLTEuNjcgMi43NC0yLjUyIDQuMTEtMi41MnM0LjExLjg1IDQuMTEgMi41MnoiLz4mI3hhOwk8cGF0aCBjbGFzcz0ic3QwIiBkPSJNOC4yMSAwdjMuNzlhMi42MyAyLjYzIDAgMSAxIDAgNS4yNnYxLjEyYzEuMzcgMCA0LjExLjg1IDQuMTEgMi41MnYyLjI1YTguNjQgOC42NCAwIDAgMS00LjExIDIuOTNWMjBjNC43MS0xLjE1IDguMjEtNS44OSA4LjIxLTEwLjk1VjMuNDJ6Ii8+JiN4YTs8L3N2Zz4=;" parent="79" vertex="1">
                    <mxGeometry width="24" height="30" relative="1" as="geometry">
                        <mxPoint x="18" y="15" as="offset"/>
                    </mxGeometry>
                </mxCell>
                <mxCell id="92" style="edgeStyle=orthogonalEdgeStyle;rounded=0;html=1;labelBackgroundColor=none;startFill=1;endArrow=blockThin;endFill=1;jettySize=auto;orthogonalLoop=1;strokeColor=#9E9E9E;strokeWidth=2;fontSize=12;fontColor=#000000;align=center;dashed=0;entryX=0.5;entryY=1;entryDx=0;entryDy=0;" parent="1" source="3ZfG_3-aHI2Txs_DAWEP-421" target="74" edge="1">
                    <mxGeometry relative="1" as="geometry">
                        <Array as="points">
                            <mxPoint x="84" y="450"/>
                            <mxPoint x="84" y="450"/>
                        </Array>
                        <mxPoint x="60" y="396" as="sourcePoint"/>
                        <mxPoint x="60" y="340" as="targetPoint"/>
                    </mxGeometry>
                </mxCell>
                <mxCell id="93" style="edgeStyle=orthogonalEdgeStyle;rounded=0;html=1;labelBackgroundColor=none;startFill=1;endArrow=blockThin;endFill=1;jettySize=auto;orthogonalLoop=1;strokeColor=#9E9E9E;strokeWidth=2;fontSize=12;fontColor=#000000;align=center;dashed=0;exitX=1;exitY=0.5;exitDx=0;exitDy=0;" parent="1" source="3ZfG_3-aHI2Txs_DAWEP-421" edge="1">
                    <mxGeometry relative="1" as="geometry">
                        <Array as="points">
                            <mxPoint x="230" y="552"/>
                            <mxPoint x="230" y="466"/>
                        </Array>
                        <mxPoint x="70" y="406" as="sourcePoint"/>
                        <mxPoint x="230" y="466" as="targetPoint"/>
                    </mxGeometry>
                </mxCell>
                <mxCell id="94" value="mostly read-only access&lt;br&gt;&lt;br&gt;&lt;div style=&quot;text-align: left;&quot;&gt;&lt;span style=&quot;&quot;&gt;via IAP:&lt;br&gt;gcloud compute ssh&lt;/span&gt;&lt;/div&gt;&lt;div style=&quot;text-align: left;&quot;&gt;&lt;span style=&quot;&quot;&gt;kubectl&lt;/span&gt;&lt;/div&gt;" style="edgeLabel;html=1;align=center;verticalAlign=middle;resizable=0;points=[];labelBackgroundColor=none;" parent="93" vertex="1" connectable="0">
                    <mxGeometry x="-0.4543" relative="1" as="geometry">
                        <mxPoint x="27" y="48" as="offset"/>
                    </mxGeometry>
                </mxCell>
                <mxCell id="95" style="edgeStyle=orthogonalEdgeStyle;rounded=0;html=1;labelBackgroundColor=none;startFill=1;endArrow=blockThin;endFill=1;jettySize=auto;orthogonalLoop=1;strokeColor=#9E9E9E;strokeWidth=2;fontSize=12;fontColor=#000000;align=center;dashed=0;exitX=0.75;exitY=1;exitDx=0;exitDy=0;entryX=-0.01;entryY=0.337;entryDx=0;entryDy=0;entryPerimeter=0;" parent="1" source="74" target="75" edge="1">
                    <mxGeometry relative="1" as="geometry">
                        <Array as="points">
                            <mxPoint x="115" y="422"/>
                            <mxPoint x="170" y="422"/>
                        </Array>
                        <mxPoint x="94" y="502" as="sourcePoint"/>
                        <mxPoint x="200" y="432" as="targetPoint"/>
                    </mxGeometry>
                </mxCell>
                <mxCell id="97" value="IaC, images push" style="edgeLabel;html=1;align=center;verticalAlign=middle;resizable=0;points=[];" parent="95" vertex="1" connectable="0">
                    <mxGeometry x="-0.267" y="-1" relative="1" as="geometry">
                        <mxPoint x="56" y="-7" as="offset"/>
                    </mxGeometry>
                </mxCell>
                <mxCell id="96" value="trust" style="edgeStyle=orthogonalEdgeStyle;fontSize=12;html=1;endArrow=classic;endFill=1;rounded=0;strokeWidth=2;endSize=4;startSize=4;dashed=1;strokeColor=#9E9E9E;startArrow=classic;startFill=1;dashPattern=1 1;" parent="1" edge="1">
                    <mxGeometry x="0.1429" y="10" width="100" relative="1" as="geometry">
                        <mxPoint x="150" y="300" as="sourcePoint"/>
                        <mxPoint x="220" y="300" as="targetPoint"/>
                        <mxPoint as="offset"/>
                    </mxGeometry>
                </mxCell>
                <mxCell id="98" value="" style="group" parent="1" vertex="1" connectable="0">
                    <mxGeometry x="870" y="514" width="80" height="60" as="geometry"/>
                </mxCell>
                <mxCell id="99" value="" style="strokeColor=#dddddd;shadow=1;strokeWidth=1;rounded=1;absoluteArcSize=1;arcSize=2;container=0;" parent="98" vertex="1">
                    <mxGeometry width="80" height="60" as="geometry"/>
                </mxCell>
                <mxCell id="100" value="Private Google Access" style="text;html=1;align=center;verticalAlign=middle;whiteSpace=wrap;rounded=0;" parent="98" vertex="1">
                    <mxGeometry x="10" y="15" width="60" height="30" as="geometry"/>
                </mxCell>
                <mxCell id="101" style="edgeStyle=orthogonalEdgeStyle;rounded=0;html=1;labelBackgroundColor=none;startFill=1;startSize=4;endArrow=blockThin;endFill=1;endSize=4;jettySize=auto;orthogonalLoop=1;strokeColor=#9E9E9E;strokeWidth=2;fontSize=12;fontColor=#000000;align=center;dashed=0;entryX=0;entryY=0.5;entryDx=0;entryDy=0;exitX=0.997;exitY=0.727;exitDx=0;exitDy=0;exitPerimeter=0;" parent="1" source="31" target="99" edge="1">
                    <mxGeometry relative="1" as="geometry">
                        <Array as="points"/>
                        <mxPoint x="820" y="544" as="sourcePoint"/>
                        <mxPoint x="1006.2" y="543.54" as="targetPoint"/>
                    </mxGeometry>
                </mxCell>
                <mxCell id="102" value="Cloud&#xa;NAT" style="sketch=0;html=1;verticalAlign=top;labelPosition=center;verticalLabelPosition=bottom;align=center;spacingTop=-6;fontSize=11;fontStyle=1;fontColor=#999999;shape=image;aspect=fixed;imageAspect=0;image=data:image/svg+xml,PHN2ZyB4bWxuczppbmtzY2FwZT0iaHR0cDovL3d3dy5pbmtzY2FwZS5vcmcvbmFtZXNwYWNlcy9pbmtzY2FwZSIgeG1sbnM6c29kaXBvZGk9Imh0dHA6Ly9zb2RpcG9kaS5zb3VyY2Vmb3JnZS5uZXQvRFREL3NvZGlwb2RpLTAuZHRkIiB4bWxucz0iaHR0cDovL3d3dy53My5vcmcvMjAwMC9zdmciIHhtbG5zOnN2Zz0iaHR0cDovL3d3dy53My5vcmcvMjAwMC9zdmciIHdpZHRoPSI5OS45OTczMDIyMDQ4OTI5NiIgaGVpZ2h0PSI5Ny44ODA4NTM5MDQyOTYzMyIgdmlld0JveD0iLTAuMDQ1Nzc2MzY3MTg3NSAxLjA4Nzc4ODU4MTg0ODE0NDUgOTkuOTk3Mjk5MTk0MzM1OTQgOTcuODgwODQ0MTE2MjEwOTQiIHZlcnNpb249IjEuMSIgaWQ9InN2ZzUiIGlua3NjYXBlOnZlcnNpb249IjEuMSAoYzY4ZTIyYzM4NywgMjAyMS0wNS0yMykiIHNvZGlwb2RpOmRvY25hbWU9ImNsb3VkX25hdC5zdmciPiYjeGE7ICA8c29kaXBvZGk6bmFtZWR2aWV3IGlkPSJuYW1lZHZpZXc3IiBwYWdlY29sb3I9IiNmZmZmZmYiIGJvcmRlcmNvbG9yPSIjNjY2NjY2IiBib3JkZXJvcGFjaXR5PSIxLjAiIGlua3NjYXBlOnBhZ2VzaGFkb3c9IjIiIGlua3NjYXBlOnBhZ2VvcGFjaXR5PSIwLjAiIGlua3NjYXBlOnBhZ2VjaGVja2VyYm9hcmQ9IjAiIGlua3NjYXBlOmRvY3VtZW50LXVuaXRzPSJtbSIgc2hvd2dyaWQ9ImZhbHNlIiBpbmtzY2FwZTp6b29tPSIwLjU3OTMzNzQ0IiBpbmtzY2FwZTpjeD0iLTQyLjI4OTY4OSIgaW5rc2NhcGU6Y3k9IjI1NC42MDExOSIgaW5rc2NhcGU6d2luZG93LXdpZHRoPSIxOTIwIiBpbmtzY2FwZTp3aW5kb3ctaGVpZ2h0PSIxMDE3IiBpbmtzY2FwZTp3aW5kb3cteD0iLTgiIGlua3NjYXBlOndpbmRvdy15PSItOCIgaW5rc2NhcGU6d2luZG93LW1heGltaXplZD0iMSIgaW5rc2NhcGU6Y3VycmVudC1sYXllcj0ibGF5ZXIxIiBmaXQtbWFyZ2luLXRvcD0iMCIgZml0LW1hcmdpbi1sZWZ0PSIwIiBmaXQtbWFyZ2luLXJpZ2h0PSIwIiBmaXQtbWFyZ2luLWJvdHRvbT0iMCIvPiYjeGE7ICA8ZGVmcyBpZD0iZGVmczIiLz4mI3hhOyAgPGcgaW5rc2NhcGU6bGFiZWw9IkxheWVyIDEiIGlua3NjYXBlOmdyb3VwbW9kZT0ibGF5ZXIiIGlkPSJsYXllcjEiIHRyYW5zZm9ybT0idHJhbnNsYXRlKDI1OC42MTk3NSwxNi42Njc3MTUpIj4mI3hhOyAgICA8cGF0aCBpZD0icGF0aDE3MzYyIiBzdHlsZT0ib3BhY2l0eToxO2ZpbGw6IzQyODVmNDtmaWxsLW9wYWNpdHk6MTtzdHJva2U6bm9uZTtzdHJva2Utd2lkdGg6MC45OTk5OTlweDtzdHJva2UtbGluZWNhcDpidXR0O3N0cm9rZS1saW5lam9pbjptaXRlcjtzdHJva2Utb3BhY2l0eToxIiBkPSJNIDE0MS40MTc5Nyw0LjExMTMyODEgMTI0LjQwMjM0LDI0LjM3NSBjIDU3Ljg5NTM3LDQ4LjYxNjQyNiA4My40MTQwNyw5Ni4wNjQ2NyA4My40MTQwNywxNjMuOTQzMzYgMCw3Mi4zMTIyOCAtMzYuMTA3MzEsMTI0LjgyOTc3IC04Mi4wMTk1MywxNjYuMDQ4ODMgbCAxNy42Nzk2OCwxOS42ODc1IGMgNDkuMjAyOTksLTQ0LjE3MzQyIDkwLjc5Njg4LC0xMDQuNDk4MzcgOTAuNzk2ODgsLTE4NS43MzYzMyAwLC03NC44ODE1MiAtMzEuMTU5NDEsLTEzMi4zOTkwMjIgLTkyLjg1NTQ3LC0xODQuMjA3MDMxOSB6IE0gOTYuNTU2NjQxLDc1Ljg4NDc2NiBWIDEwMi4zNDE4IEggMTY2LjQ4MzA1IEMgMTYyLjM5Mjc0LDk0LjU1NDQyIDE1OC40NTE0Myw4Ni44NDE1NDIgMTQ4LjAyMjMzLDc1Ljg4NDc2NiBaIE0gMzE3Ljc3OTMsMjAyLjMwNjY0IHYgMzIuMjkyOTcgbCA1OS45OTAyMywtNDUuNTE3NTggLTU5Ljk5MDIzLC00NS41MTc1OCB2IDMyLjI4NTE2IGggLTY0LjQ3NDYxIHYgMjYuNDU3MDMgeiBNIDUwLjA1ODU5NCwxNzUuODQ5NjEgdiAyNi40NTcwMyBIIDE4Ny4yODEyNSBjIDEuMTU3NDUsLTguMDQ3MzcgMS4yODIzMSwtMTYuNzgzMTUgMCwtMjYuNDU3MDMgeiBtIDQ3LjAzNzEwOSwxMDAuMDQ2ODcgdiAyNi40NTcwNCBoIDUwLjY4MjY3NyBjIDguMDE2NTcsLTguMDE0NjYgMTQuNDYxNjksLTE2LjgxNTA0IDE5LjIyMzU3LC0yNi40NTcwNCB6IiB0cmFuc2Zvcm09Im1hdHJpeCgwLjI2NDU4MzMzLDAsMCwwLjI2NDU4MzMzLC0yNTguNjE5NzUsLTE2LjY2NzcxNSkiIHNvZGlwb2RpOm5vZGV0eXBlcz0iY2NzY2NzY2NjY2NjY2NjY2NjY2NjY2NjY2NjY2NjIi8+JiN4YTsgICAgPHBhdGggaWQ9InBhdGgxNjI3MS03IiBzdHlsZT0iY29sb3I6IzAwMDAwMDtvcGFjaXR5OjE7ZmlsbDojNjY5ZGY2O3N0cm9rZS1saW5lam9pbjpyb3VuZDstaW5rc2NhcGUtc3Ryb2tlOm5vbmU7ZmlsbC1vcGFjaXR5OjEiIGQ9Im0gLTIzNy45NTQwOCw1MS45MDU2ODYgYyAtNC4zNDYzLDEwZS03IC03LjkyMzgyLDMuNTc3NTIxIC03LjkyMzgyLDcuOTIzODI4IDAsNC4zNDYzMDcgMy41Nzc1Miw3LjkyMzgyOCA3LjkyMzgyLDcuOTIzODI4IDQuMzQ2MzEsMCA3LjkyMzgzLC0zLjU3NzUyMSA3LjkyMzgzLC03LjkyMzgyOCAwLC00LjM0NjMwNyAtMy41Nzc1MiwtNy45MjM4MjcgLTcuOTIzODMsLTcuOTIzODI4IHogbSAwLDUgYyAxLjY0NDExLDAgMi45MjM4MywxLjI3OTcxOCAyLjkyMzgzLDIuOTIzODI4IDAsMS42NDQxMSAtMS4yNzk3MiwyLjkyMzgyOCAtMi45MjM4MywyLjkyMzgyOCAtMS42NDQxMSwwIC0yLjkyMzgyLC0xLjI3OTcxOCAtMi45MjM4MiwtMi45MjM4MjggMCwtMS42NDQxMSAxLjI3OTcxLC0yLjkyMzgyOCAyLjkyMzgyLC0yLjkyMzgyOCB6IG0gLTEyLjc4NzYxLC0zMS40ODg1OTMgYyAtNC4zNDYzLDEwZS03IC03LjkyMzgyLDMuNTc3NTIxIC03LjkyMzgyLDcuOTIzODI4IDAsNC4zNDYzMDcgMy41Nzc1Miw3LjkyMzgyOCA3LjkyMzgyLDcuOTIzODI4IDQuMzQ2MzEsMCA3LjkyMzgzLC0zLjU3NzUyMSA3LjkyMzgzLC03LjkyMzgyOCAwLC00LjM0NjMwNyAtMy41Nzc1MiwtNy45MjM4MjcgLTcuOTIzODMsLTcuOTIzODI4IHogbSAwLDUgYyAxLjY0NDExLDAgMi45MjM4MywxLjI3OTcxOCAyLjkyMzgzLDIuOTIzODI4IDAsMS42NDQxMSAtMS4yNzk3MiwyLjkyMzgyOCAtMi45MjM4MywyLjkyMzgyOCAtMS42NDQxMSwwIC0yLjkyMzgyLC0xLjI3OTcxOCAtMi45MjM4MiwtMi45MjM4MjggMCwtMS42NDQxMSAxLjI3OTcxLC0yLjkyMzgyOCAyLjkyMzgyLC0yLjkyMzgyOCB6IG0gMTIuNjE2NTIsLTMxLjQzMTQ5MjkgYyAtNC4zNDYzLDZlLTcgLTcuOTIzODIsMy41Nzc1MjA4IC03LjkyMzgyLDcuOTIzODI4MSAwLDQuMzQ2MzA2OCAzLjU3NzUyLDcuOTIzODI3OCA3LjkyMzgyLDcuOTIzODI3OCA0LjM0NjMxLDAgNy45MjM4MywtMy41Nzc1MjEgNy45MjM4MywtNy45MjM4Mjc4IDAsLTQuMzQ2MzA3MyAtMy41Nzc1MiwtNy45MjM4Mjc1IC03LjkyMzgzLC03LjkyMzgyODEgeiBtIDAsNSBjIDEuNjQ0MTEsMmUtNyAyLjkyMzgzLDEuMjc5NzE4NCAyLjkyMzgzLDIuOTIzODI4MSAwLDEuNjQ0MTA5NiAtMS4yNzk3MiwyLjkyMzgyNzkgLTIuOTIzODMsMi45MjM4Mjc5IC0xLjY0NDExLDAgLTIuOTIzODIsLTEuMjc5NzE4MyAtMi45MjM4MiwtMi45MjM4Mjc5IDAsLTEuNjQ0MTA5NyAxLjI3OTcxLC0yLjkyMzgyNzkgMi45MjM4MiwtMi45MjM4MjgxIHoiLz4mI3hhOyAgPC9nPiYjeGE7PC9zdmc+;" parent="1" vertex="1">
                    <mxGeometry x="394.5" y="742.1" width="32" height="32" as="geometry"/>
                </mxCell>
                <mxCell id="106" value="" style="group" parent="1" vertex="1" connectable="0">
                    <mxGeometry x="980" y="514" width="80" height="60" as="geometry"/>
                </mxCell>
                <mxCell id="107" value="" style="strokeColor=#dddddd;shadow=1;strokeWidth=1;rounded=1;absoluteArcSize=1;arcSize=2;container=0;" parent="106" vertex="1">
                    <mxGeometry width="80" height="60" as="geometry"/>
                </mxCell>
                <mxCell id="108" value="Google APIs and services" style="text;html=1;align=center;verticalAlign=middle;whiteSpace=wrap;rounded=0;" parent="106" vertex="1">
                    <mxGeometry x="10" y="15" width="60" height="30" as="geometry"/>
                </mxCell>
                <mxCell id="111" style="edgeStyle=orthogonalEdgeStyle;rounded=0;html=1;labelBackgroundColor=none;startFill=1;startSize=4;endArrow=blockThin;endFill=1;endSize=4;jettySize=auto;orthogonalLoop=1;strokeColor=#9E9E9E;strokeWidth=2;fontSize=12;fontColor=#000000;align=center;dashed=0;entryX=0;entryY=0.5;entryDx=0;entryDy=0;exitX=1;exitY=0.5;exitDx=0;exitDy=0;" parent="1" source="99" target="107" edge="1">
                    <mxGeometry relative="1" as="geometry">
                        <Array as="points"/>
                        <mxPoint x="823" y="554" as="sourcePoint"/>
                        <mxPoint x="880" y="554" as="targetPoint"/>
                    </mxGeometry>
                </mxCell>
                <mxCell id="115" value="Rules e.g.:&lt;br&gt;host() == gitlab.com&amp;nbsp;&lt;br&gt;||&lt;br&gt;&lt;div&gt;&lt;font color=&quot;#000000&quot;&gt;host().endsWith(&quot;strimzi.io&quot;)&lt;br&gt;&lt;/font&gt;&lt;div&gt;&lt;br&gt;&lt;/div&gt;&lt;/div&gt;" style="text;html=1;align=left;verticalAlign=middle;whiteSpace=wrap;rounded=0;" parent="1" vertex="1">
                    <mxGeometry x="589.41" y="740" width="115.09" height="30" as="geometry"/>
                </mxCell>
                <mxCell id="117" value="" style="shape=mxgraph.gcp2.doubleRect;strokeColor=#dddddd;shadow=1;strokeWidth=1;rounded=1;absoluteArcSize=1;arcSize=2;" parent="1" vertex="1">
                    <mxGeometry x="648.74" y="239" width="170" height="68" as="geometry"/>
                </mxCell>
                <mxCell id="118" value="&lt;font color=&quot;#000000&quot;&gt;rke-mig&lt;/font&gt;&lt;br&gt;Compute Engine" style="editableCssRules=.*;html=1;fontColor=#999999;shape=image;verticalLabelPosition=middle;verticalAlign=middle;labelPosition=right;align=left;spacingLeft=20;part=1;points=[];imageAspect=0;image=data:image/svg+xml,PHN2ZyB4bWxucz0iaHR0cDovL3d3dy53My5vcmcvMjAwMC9zdmciIHhtbG5zOnY9Imh0dHBzOi8vdmVjdGEuaW8vbmFubyIgd2lkdGg9IjIwIiBoZWlnaHQ9IjIwIiB2aWV3Qm94PSIwIDAgMjAgMjAiPiYjeGE7CTxzdHlsZSB0eXBlPSJ0ZXh0L2NzcyI+JiN4YTsJLnN0MHtmaWxsOiM0Mjg1ZjQ7fSYjeGE7CS5zdDF7ZmlsbDojNjY5ZGY2O30mI3hhOwkuc3Qye2ZpbGw6I2FlY2JmYTt9JiN4YTsJPC9zdHlsZT4mI3hhOwk8cGF0aCBjbGFzcz0ic3QyIiBkPSJNNyA3aDZ2Nkg3eiIvPiYjeGE7CTxwYXRoIGNsYXNzPSJzdDEiIGQ9Ik05IDBoMnY0SDl6TTUgMGgydjRINXptOCAwaDJ2NGgtMnoiLz4mI3hhOwk8cGF0aCBjbGFzcz0ic3QwIiBkPSJNOSAxNmgydjRIOXptLTQgMGgydjRINXptOCAwaDJ2NGgtMnptMy01VjloNHYyem0wIDR2LTJoNHYyem0wLThWNWg0djJ6Ii8+JiN4YTsJPHBhdGggY2xhc3M9InN0MSIgZD0iTTAgMTFWOWg0djJ6bTAgNHYtMmg0djJ6bTAtOFY1aDR2MnoiLz4mI3hhOwk8cGF0aCBjbGFzcz0ic3QyIiBkPSJNMyAzdjE0aDE0VjN6bTEyIDEySDVWNWgxMHoiLz4mI3hhOwk8cGF0aCBjbGFzcz0ic3QxIiBkPSJNMTAgMTBsLTMgM2g2eiIvPiYjeGE7CTxwYXRoIGNsYXNzPSJzdDAiIGQ9Ik0xMyA3bC0zIDMgMyAzeiIvPiYjeGE7PC9zdmc+;" parent="117" vertex="1">
                    <mxGeometry width="30" height="30" relative="1" as="geometry">
                        <mxPoint x="15" y="15" as="offset"/>
                    </mxGeometry>
                </mxCell>
                <mxCell id="122" value="transparent next-hop mode &lt;br&gt;without TLS inspection" style="edgeStyle=orthogonalEdgeStyle;rounded=0;html=1;labelBackgroundColor=none;startFill=1;startSize=4;endArrow=blockThin;endFill=1;endSize=4;jettySize=auto;orthogonalLoop=1;strokeColor=#9E9E9E;strokeWidth=2;fontSize=12;fontColor=#000000;align=center;dashed=0;exitX=0.426;exitY=1;exitDx=0;exitDy=0;exitPerimeter=0;entryX=0.5;entryY=0;entryDx=0;entryDy=0;" parent="1" source="3ZfG_3-aHI2Txs_DAWEP-419" target="126" edge="1">
                    <mxGeometry x="-0.4687" y="78" relative="1" as="geometry">
                        <Array as="points"/>
                        <mxPoint x="823" y="554" as="sourcePoint"/>
                        <mxPoint x="507.33500000000004" y="690" as="targetPoint"/>
                        <mxPoint x="78" y="-73" as="offset"/>
                    </mxGeometry>
                </mxCell>
                <mxCell id="124" style="edgeStyle=orthogonalEdgeStyle;rounded=0;html=1;labelBackgroundColor=none;startFill=1;startSize=4;endArrow=blockThin;endFill=1;endSize=4;jettySize=auto;orthogonalLoop=1;strokeColor=#9E9E9E;strokeWidth=2;fontSize=12;fontColor=#000000;align=center;dashed=0;exitX=0.5;exitY=1;exitDx=0;exitDy=0;entryX=1;entryY=0.5;entryDx=0;entryDy=0;" parent="1" source="126" target="102" edge="1">
                    <mxGeometry relative="1" as="geometry">
                        <Array as="points"/>
                        <mxPoint x="450.35923076923063" y="720" as="sourcePoint"/>
                        <mxPoint x="517" y="700" as="targetPoint"/>
                    </mxGeometry>
                </mxCell>
                <mxCell id="125" value="" style="group" parent="1" vertex="1" connectable="0">
                    <mxGeometry x="452" y="690" width="132.09" height="40" as="geometry"/>
                </mxCell>
                <mxCell id="126" value="" style="strokeColor=#dddddd;shadow=1;strokeWidth=1;rounded=1;absoluteArcSize=1;arcSize=2;container=0;" parent="125" vertex="1">
                    <mxGeometry width="132.09" height="40" as="geometry"/>
                </mxCell>
                <mxCell id="127" value="Secure Web Proxy" style="text;html=1;align=center;verticalAlign=middle;whiteSpace=wrap;rounded=0;" parent="125" vertex="1">
                    <mxGeometry x="10.160769230769231" y="10" width="111.76846153846154" height="20" as="geometry"/>
                </mxCell>
                <mxCell id="130" value="" style="shape=mxgraph.mockup.markup.redX;fillColor=#ff0000;html=1;shadow=0;whiteSpace=wrap;strokeColor=none;" parent="1" vertex="1">
                    <mxGeometry x="404.50000000000006" y="689" width="20" height="10" as="geometry"/>
                </mxCell>
                <mxCell id="131" style="edgeStyle=orthogonalEdgeStyle;rounded=0;html=1;labelBackgroundColor=none;startFill=1;startSize=4;endArrow=blockThin;endFill=1;endSize=4;jettySize=auto;orthogonalLoop=1;strokeColor=#9E9E9E;strokeWidth=2;fontSize=12;fontColor=#000000;align=center;dashed=0;" parent="1" target="84" edge="1">
                    <mxGeometry relative="1" as="geometry">
                        <Array as="points"/>
                        <mxPoint x="410" y="800" as="sourcePoint"/>
                        <mxPoint x="437" y="768" as="targetPoint"/>
                    </mxGeometry>
                </mxCell>
                <mxCell id="134" value="" style="strokeColor=#dddddd;shadow=1;strokeWidth=1;rounded=1;absoluteArcSize=1;arcSize=2;" vertex="1" parent="1">
                    <mxGeometry x="760" y="170" width="160" height="55" as="geometry"/>
                </mxCell>
                <mxCell id="135" value="Internal&lt;br&gt;Network&lt;br&gt;Load Balancer" style="editableCssRules=.*;html=1;fontColor=#999999;shape=image;verticalLabelPosition=middle;verticalAlign=middle;labelPosition=right;align=left;spacingLeft=20;part=1;points=[];imageAspect=0;image=data:image/svg+xml,PHN2ZyB4bWxucz0iaHR0cDovL3d3dy53My5vcmcvMjAwMC9zdmciIHhtbG5zOnY9Imh0dHBzOi8vdmVjdGEuaW8vbmFubyIgd2lkdGg9IjIwIiBoZWlnaHQ9IjIwIiB2aWV3Qm94PSIwIDAgMjAgMjAiPiYjeGE7CTxzdHlsZSB0eXBlPSJ0ZXh0L2NzcyI+JiN4YTsJLnN0MHtmaWxsOiM0Mjg1ZjQ7fSYjeGE7CS5zdDF7ZmlsbDojNjY5ZGY2O30mI3hhOwkuc3Qye2ZpbGw6I2FlY2JmYTt9JiN4YTsJPC9zdHlsZT4mI3hhOwk8cGF0aCBjbGFzcz0ic3QxIiBkPSJNMTYgMTBoMnY0aC0yem0tNyAwaDJ2NEg5em0tNyAwaDJ2NEgyeiIvPiYjeGE7CTxwYXRoIGNsYXNzPSJzdDAiIGQ9Ik05IDVoMnY0SDl6Ii8+JiN4YTsJPHBhdGggY2xhc3M9InN0MSIgZD0iTTIgOWgxNnYySDJ6Ii8+JiN4YTsJPHBhdGggY2xhc3M9InN0MiIgZD0iTTQgMGgxMnY1SDR6Ii8+JiN4YTsJPHBhdGggY2xhc3M9InN0MSIgZD0iTTEwIDBoNnY1aC02eiIvPiYjeGE7CTxwYXRoIGNsYXNzPSJzdDIiIGQ9Ik0xNCAxNGg2djZoLTZ6TTAgMTRoNnY2SDB6Ii8+JiN4YTsJPHBhdGggY2xhc3M9InN0MSIgZD0iTTMgMTRoM3Y2SDN6Ii8+JiN4YTsJPHBhdGggY2xhc3M9InN0MiIgZD0iTTcgMTRoNnY2SDd6Ii8+JiN4YTsJPHBhdGggY2xhc3M9InN0MSIgZD0iTTEwIDE0aDN2NmgtM3ptNyAwaDN2NmgtM3oiLz4mI3hhOzwvc3ZnPg==;" vertex="1" parent="134">
                    <mxGeometry width="30" height="30" relative="1" as="geometry">
                        <mxPoint x="15" y="15" as="offset"/>
                    </mxGeometry>
                </mxCell>
                <mxCell id="136" style="edgeStyle=orthogonalEdgeStyle;rounded=0;html=1;labelBackgroundColor=none;startFill=1;startSize=4;endArrow=blockThin;endFill=1;endSize=4;jettySize=auto;orthogonalLoop=1;strokeColor=#9E9E9E;strokeWidth=2;fontSize=12;fontColor=#000000;align=center;dashed=0;exitX=0.597;exitY=1.04;exitDx=0;exitDy=0;entryX=1;entryY=0.5;entryDx=0;entryDy=0;exitPerimeter=0;" edge="1" parent="1" source="134" target="117">
                    <mxGeometry relative="1" as="geometry">
                        <Array as="points">
                            <mxPoint x="856" y="260"/>
                            <mxPoint x="856" y="260"/>
                            <mxPoint x="856" y="273"/>
                        </Array>
                        <mxPoint x="896" y="430" as="sourcePoint"/>
                        <mxPoint x="775" y="410" as="targetPoint"/>
                    </mxGeometry>
                </mxCell>
                <mxCell id="139" value="&lt;font style=&quot;color: rgb(0, 0, 0);&quot;&gt;Strimzi&lt;/font&gt;" style="sketch=0;points=[[0,0,0],[0.25,0,0],[0.5,0,0],[0.75,0,0],[1,0,0],[1,0.25,0],[1,0.5,0],[1,0.75,0],[1,1,0],[0.75,1,0],[0.5,1,0],[0.25,1,0],[0,1,0],[0,0.75,0],[0,0.5,0],[0,0.25,0]];rounded=1;absoluteArcSize=1;arcSize=2;html=1;strokeColor=#82b366;shadow=0;dashed=0;fontSize=12;align=left;verticalAlign=top;spacing=10;spacingTop=-4;whiteSpace=wrap;fillColor=#d5e8d4;" vertex="1" parent="1">
                    <mxGeometry x="505.41" y="350" width="54.59" height="42" as="geometry"/>
                </mxCell>
                <mxCell id="140" value="" style="edgeStyle=orthogonalEdgeStyle;rounded=0;html=1;labelBackgroundColor=none;startFill=1;startSize=4;endArrow=blockThin;endFill=1;endSize=4;jettySize=auto;orthogonalLoop=1;strokeColor=#9E9E9E;strokeWidth=2;fontSize=12;fontColor=#000000;align=center;dashed=0;exitX=0.005;exitY=0.63;exitDx=0;exitDy=0;entryX=0.5;entryY=0;entryDx=0;entryDy=0;entryPerimeter=0;exitPerimeter=0;" edge="1" parent="1" source="68" target="66">
                    <mxGeometry relative="1" as="geometry">
                        <Array as="points">
                            <mxPoint x="736" y="421"/>
                            <mxPoint x="720" y="421"/>
                        </Array>
                        <mxPoint x="736" y="404" as="sourcePoint"/>
                        <mxPoint x="720" y="573" as="targetPoint"/>
                    </mxGeometry>
                </mxCell>
                <mxCell id="66" value="" style="aspect=fixed;sketch=0;html=1;dashed=0;whitespace=wrap;verticalLabelPosition=bottom;verticalAlign=top;fillColor=#2875E2;strokeColor=#ffffff;points=[[0.005,0.63,0],[0.1,0.2,0],[0.9,0.2,0],[0.5,0,0],[0.995,0.63,0],[0.72,0.99,0],[0.5,1,0],[0.28,0.99,0]];shape=mxgraph.kubernetes.icon2;kubernetesLabel=1;prIcon=ing" parent="1" vertex="1">
                    <mxGeometry x="704.5" y="518" width="31.25" height="30" as="geometry"/>
                </mxCell>
                <mxCell id="144" value="&lt;font style=&quot;color: rgb(0, 0, 0);&quot;&gt;CloudNativePG&lt;/font&gt;" style="sketch=0;points=[[0,0,0],[0.25,0,0],[0.5,0,0],[0.75,0,0],[1,0,0],[1,0.25,0],[1,0.5,0],[1,0.75,0],[1,1,0],[0.75,1,0],[0.5,1,0],[0.25,1,0],[0,1,0],[0,0.75,0],[0,0.5,0],[0,0.25,0]];rounded=1;absoluteArcSize=1;arcSize=2;html=1;strokeColor=#82b366;shadow=0;dashed=0;fontSize=12;align=left;verticalAlign=top;spacing=10;spacingTop=-4;whiteSpace=wrap;fillColor=#d5e8d4;" vertex="1" parent="1">
                    <mxGeometry x="566.66" y="350" width="96.51" height="42" as="geometry"/>
                </mxCell>
                <mxCell id="145" value="&lt;font style=&quot;color: rgb(0, 0, 0);&quot;&gt;ArgoCD&lt;/font&gt;" style="sketch=0;points=[[0,0,0],[0.25,0,0],[0.5,0,0],[0.75,0,0],[1,0,0],[1,0.25,0],[1,0.5,0],[1,0.75,0],[1,1,0],[0.75,1,0],[0.5,1,0],[0.25,1,0],[0,1,0],[0,0.75,0],[0,0.5,0],[0,0.25,0]];rounded=1;absoluteArcSize=1;arcSize=2;html=1;strokeColor=#82b366;shadow=0;dashed=0;fontSize=12;align=left;verticalAlign=top;spacing=10;spacingTop=-4;whiteSpace=wrap;fillColor=#d5e8d4;" vertex="1" parent="1">
                    <mxGeometry x="668.52" y="350" width="61.48" height="42" as="geometry"/>
                </mxCell>
                <mxCell id="146" value="..." style="text;html=1;align=center;verticalAlign=middle;whiteSpace=wrap;rounded=0;" vertex="1" parent="1">
                    <mxGeometry x="719.91" y="354" width="60" height="30" as="geometry"/>
                </mxCell>
                <mxCell id="147" style="edgeStyle=orthogonalEdgeStyle;rounded=0;html=1;labelBackgroundColor=none;startFill=1;startSize=4;endArrow=blockThin;endFill=1;endSize=4;jettySize=auto;orthogonalLoop=1;strokeColor=#9E9E9E;strokeWidth=2;fontSize=12;fontColor=#000000;align=center;dashed=0;exitX=0.037;exitY=0.54;exitDx=0;exitDy=0;exitPerimeter=0;" edge="1" parent="1" source="68">
                    <mxGeometry relative="1" as="geometry">
                        <Array as="points">
                            <mxPoint x="700" y="421"/>
                            <mxPoint x="700" y="400"/>
                        </Array>
                        <mxPoint x="690" y="420" as="sourcePoint"/>
                        <mxPoint x="700" y="392" as="targetPoint"/>
                    </mxGeometry>
                </mxCell>
                <mxCell id="150" value="Public DNS" style="rounded=0;whiteSpace=wrap;html=1;" vertex="1" parent="1">
                    <mxGeometry x="1179.5" y="574" width="120" height="60" as="geometry"/>
                </mxCell>
                <mxCell id="151" style="edgeStyle=orthogonalEdgeStyle;rounded=0;html=1;labelBackgroundColor=none;startFill=1;endArrow=blockThin;endFill=1;jettySize=auto;orthogonalLoop=1;strokeColor=#9E9E9E;strokeWidth=2;fontSize=12;fontColor=#000000;align=center;dashed=0;entryX=0.651;entryY=0.977;entryDx=0;entryDy=0;entryPerimeter=0;" edge="1" parent="1" source="150" target="2">
                    <mxGeometry relative="1" as="geometry">
                        <Array as="points">
                            <mxPoint x="1100" y="604"/>
                            <mxPoint x="1100" y="490"/>
                            <mxPoint x="1008" y="490"/>
                        </Array>
                        <mxPoint x="990" y="400" as="sourcePoint"/>
                        <mxPoint x="989" y="317" as="targetPoint"/>
                    </mxGeometry>
                </mxCell>
                <mxCell id="152" value="*.csf.psi-cloud.com" style="text;html=1;align=center;verticalAlign=middle;whiteSpace=wrap;rounded=0;fontSize=17;fontStyle=1" vertex="1" parent="1">
                    <mxGeometry x="1140" y="537" width="180" height="30" as="geometry"/>
                </mxCell>
                <mxCell id="154" value="Text" style="text;html=1;align=center;verticalAlign=middle;whiteSpace=wrap;rounded=0;" vertex="1" parent="1">
                    <mxGeometry x="630" y="510" width="60" height="30" as="geometry"/>
                </mxCell>
                <mxCell id="155" value="Custom organization policies" style="text;html=1;align=center;verticalAlign=middle;whiteSpace=wrap;rounded=0;labelBackgroundColor=none;fontColor=light-dark(#999999, #7f7f7f);fontSize=11;fontStyle=1" vertex="1" parent="1">
                    <mxGeometry x="220" y="740" width="125" height="30" as="geometry"/>
                </mxCell>
            </root>
        </mxGraphModel>
    </diagram>
</mxfile>